G04 #@! TF.GenerationSoftware,KiCad,Pcbnew,9.0.7*
G04 #@! TF.CreationDate,2026-03-08T21:17:58+01:00*
G04 #@! TF.ProjectId,LightspeedLaserDriver,4c696768-7473-4706-9565-644c61736572,rev?*
G04 #@! TF.SameCoordinates,Original*
G04 #@! TF.FileFunction,Legend,Top*
G04 #@! TF.FilePolarity,Positive*
%FSLAX46Y46*%
G04 Gerber Fmt 4.6, Leading zero omitted, Abs format (unit mm)*
G04 Created by KiCad (PCBNEW 9.0.7) date 2026-03-08 21:17:58*
%MOMM*%
%LPD*%
G01*
G04 APERTURE LIST*
%ADD10C,0.000000*%
%ADD11C,0.253999*%
%ADD12C,0.250000*%
%ADD13C,0.375000*%
%ADD14C,0.340000*%
%ADD15C,0.120000*%
G04 APERTURE END LIST*
D10*
G36*
X154087437Y-116579375D02*
G01*
X154087437Y-116968312D01*
X153000000Y-116500000D01*
X153341312Y-117135000D01*
X152039562Y-116777812D01*
X152150687Y-116960375D01*
X151666500Y-116634937D01*
X152238000Y-116515875D01*
X152063375Y-116642875D01*
X153007937Y-116793687D01*
X152682500Y-116182500D01*
X154087437Y-116579375D01*
G37*
G36*
X155556890Y-114620011D02*
G01*
X155565095Y-114620820D01*
X155573256Y-114622169D01*
X155581347Y-114624057D01*
X155589339Y-114626485D01*
X155597208Y-114629452D01*
X155604925Y-114632959D01*
X155612464Y-114637005D01*
X155676553Y-114674004D01*
X159514536Y-116889674D01*
X159521659Y-116894209D01*
X159528431Y-116899168D01*
X159534839Y-116904527D01*
X159540866Y-116910262D01*
X159546498Y-116916351D01*
X159551720Y-116922770D01*
X159556516Y-116929497D01*
X159560871Y-116936507D01*
X159564771Y-116943777D01*
X159568199Y-116951285D01*
X159571142Y-116959006D01*
X159573584Y-116966918D01*
X159575509Y-116974998D01*
X159576903Y-116983221D01*
X159577750Y-116991566D01*
X159578036Y-117000008D01*
X159577966Y-117004240D01*
X159577759Y-117008450D01*
X159577415Y-117012636D01*
X159576935Y-117016795D01*
X159576322Y-117020923D01*
X159575577Y-117025019D01*
X159574701Y-117029078D01*
X159573695Y-117033098D01*
X159572562Y-117037077D01*
X159571302Y-117041010D01*
X159569917Y-117044896D01*
X159568409Y-117048732D01*
X159566778Y-117052514D01*
X159565027Y-117056239D01*
X159563157Y-117059906D01*
X159561169Y-117063510D01*
X159559065Y-117067049D01*
X159556845Y-117070520D01*
X159554513Y-117073920D01*
X159552069Y-117077246D01*
X159549514Y-117080495D01*
X159546850Y-117083665D01*
X159544079Y-117086752D01*
X159541201Y-117089754D01*
X159538219Y-117092668D01*
X159535134Y-117095490D01*
X159531947Y-117098218D01*
X159528659Y-117100848D01*
X159525273Y-117103379D01*
X159521789Y-117105807D01*
X159518210Y-117108129D01*
X159514536Y-117110343D01*
X155612464Y-119362996D01*
X155605064Y-119367042D01*
X155597468Y-119370549D01*
X155589702Y-119373516D01*
X155581793Y-119375944D01*
X155573768Y-119377832D01*
X155565653Y-119379181D01*
X155557476Y-119379990D01*
X155549262Y-119380260D01*
X155541039Y-119379990D01*
X155532833Y-119379181D01*
X155524672Y-119377832D01*
X155516582Y-119375944D01*
X155508589Y-119373516D01*
X155500721Y-119370549D01*
X155493004Y-119367042D01*
X155485464Y-119362996D01*
X155478342Y-119358460D01*
X155471569Y-119353501D01*
X155465162Y-119348143D01*
X155459134Y-119342407D01*
X155453502Y-119336318D01*
X155448281Y-119329899D01*
X155443485Y-119323173D01*
X155439129Y-119316163D01*
X155435230Y-119308892D01*
X155431801Y-119301385D01*
X155428858Y-119293663D01*
X155426417Y-119285751D01*
X155424492Y-119277672D01*
X155423098Y-119269448D01*
X155422250Y-119261103D01*
X155421964Y-119252661D01*
X155421964Y-119032799D01*
X155676553Y-119032799D01*
X156731605Y-118421022D01*
X156731605Y-117254210D01*
X156649331Y-117561245D01*
X156580855Y-117542890D01*
X156663113Y-117235870D01*
X156349505Y-117779061D01*
X156288113Y-117743622D01*
X156601737Y-117200399D01*
X156376960Y-117425176D01*
X156326839Y-117375040D01*
X156551585Y-117150294D01*
X156008394Y-117463902D01*
X155972954Y-117402511D01*
X156516145Y-117088902D01*
X156209126Y-117171161D01*
X156190770Y-117102669D01*
X156497774Y-117020410D01*
X155870557Y-117020410D01*
X155870557Y-116949515D01*
X156497774Y-116949515D01*
X156190770Y-116867257D01*
X156209110Y-116798765D01*
X156516099Y-116881023D01*
X155972938Y-116567430D01*
X156008394Y-116506023D01*
X156551570Y-116819632D01*
X156326824Y-116594886D01*
X156376960Y-116544749D01*
X156601706Y-116769495D01*
X156288097Y-116226319D01*
X156349505Y-116190864D01*
X156663113Y-116734056D01*
X156580855Y-116427035D01*
X156649331Y-116408680D01*
X156731605Y-116715715D01*
X156731605Y-116088483D01*
X156802500Y-116088483D01*
X156802500Y-116715685D01*
X156884759Y-116408680D01*
X156953251Y-116427035D01*
X156870992Y-116734040D01*
X157184585Y-116190864D01*
X157245992Y-116226304D01*
X156932368Y-116769511D01*
X157157130Y-116544749D01*
X157207266Y-116594886D01*
X156982520Y-116819632D01*
X157525696Y-116506023D01*
X157561151Y-116567430D01*
X157017991Y-116881023D01*
X157324980Y-116798765D01*
X157343335Y-116867257D01*
X157036331Y-116949515D01*
X157663533Y-116949515D01*
X157663533Y-117020410D01*
X157036284Y-117020410D01*
X157343320Y-117102684D01*
X157324980Y-117171161D01*
X157017960Y-117088902D01*
X157561151Y-117402511D01*
X157525696Y-117463918D01*
X156982536Y-117150325D01*
X157207266Y-117375055D01*
X157157130Y-117425176D01*
X156932384Y-117200430D01*
X157245992Y-117743622D01*
X157184585Y-117779061D01*
X156870992Y-117235916D01*
X156953251Y-117542890D01*
X156884759Y-117561245D01*
X156802500Y-117254241D01*
X156802500Y-118379908D01*
X159180866Y-117000799D01*
X155676553Y-114968799D01*
X155676553Y-119032799D01*
X155421964Y-119032799D01*
X155421964Y-114747340D01*
X155422034Y-114743108D01*
X155422241Y-114738897D01*
X155422586Y-114734712D01*
X155423065Y-114730553D01*
X155423678Y-114726425D01*
X155424424Y-114722329D01*
X155425300Y-114718270D01*
X155426305Y-114714250D01*
X155427439Y-114710271D01*
X155428698Y-114706338D01*
X155430083Y-114702452D01*
X155431592Y-114698616D01*
X155433222Y-114694834D01*
X155434973Y-114691108D01*
X155436844Y-114687442D01*
X155438832Y-114683838D01*
X155440936Y-114680299D01*
X155443155Y-114676828D01*
X155445487Y-114673428D01*
X155447932Y-114670102D01*
X155450487Y-114666852D01*
X155453150Y-114663683D01*
X155455922Y-114660595D01*
X155458799Y-114657594D01*
X155461781Y-114654680D01*
X155464867Y-114651858D01*
X155468054Y-114649130D01*
X155471341Y-114646499D01*
X155474727Y-114643969D01*
X155478211Y-114641541D01*
X155481790Y-114639219D01*
X155485464Y-114637005D01*
X155492864Y-114632959D01*
X155500460Y-114629452D01*
X155508226Y-114626485D01*
X155516135Y-114624057D01*
X155524161Y-114622169D01*
X155532275Y-114620820D01*
X155540453Y-114620011D01*
X155548667Y-114619741D01*
X155556890Y-114620011D01*
G37*
D11*
X155262187Y-116754000D02*
X151356937Y-119008250D01*
X151356937Y-114499750D01*
X155262187Y-116754000D01*
D12*
X141455857Y-101028571D02*
X141455857Y-101714286D01*
X140255857Y-101371428D02*
X141455857Y-101371428D01*
X140255857Y-102114286D02*
X141455857Y-102114286D01*
X141398714Y-103314286D02*
X141455857Y-103200001D01*
X141455857Y-103200001D02*
X141455857Y-103028572D01*
X141455857Y-103028572D02*
X141398714Y-102857143D01*
X141398714Y-102857143D02*
X141284428Y-102742858D01*
X141284428Y-102742858D02*
X141170142Y-102685715D01*
X141170142Y-102685715D02*
X140941571Y-102628572D01*
X140941571Y-102628572D02*
X140770142Y-102628572D01*
X140770142Y-102628572D02*
X140541571Y-102685715D01*
X140541571Y-102685715D02*
X140427285Y-102742858D01*
X140427285Y-102742858D02*
X140313000Y-102857143D01*
X140313000Y-102857143D02*
X140255857Y-103028572D01*
X140255857Y-103028572D02*
X140255857Y-103142858D01*
X140255857Y-103142858D02*
X140313000Y-103314286D01*
X140313000Y-103314286D02*
X140370142Y-103371429D01*
X140370142Y-103371429D02*
X140770142Y-103371429D01*
X140770142Y-103371429D02*
X140770142Y-103142858D01*
X141398714Y-104514286D02*
X141455857Y-104400001D01*
X141455857Y-104400001D02*
X141455857Y-104228572D01*
X141455857Y-104228572D02*
X141398714Y-104057143D01*
X141398714Y-104057143D02*
X141284428Y-103942858D01*
X141284428Y-103942858D02*
X141170142Y-103885715D01*
X141170142Y-103885715D02*
X140941571Y-103828572D01*
X140941571Y-103828572D02*
X140770142Y-103828572D01*
X140770142Y-103828572D02*
X140541571Y-103885715D01*
X140541571Y-103885715D02*
X140427285Y-103942858D01*
X140427285Y-103942858D02*
X140313000Y-104057143D01*
X140313000Y-104057143D02*
X140255857Y-104228572D01*
X140255857Y-104228572D02*
X140255857Y-104342858D01*
X140255857Y-104342858D02*
X140313000Y-104514286D01*
X140313000Y-104514286D02*
X140370142Y-104571429D01*
X140370142Y-104571429D02*
X140770142Y-104571429D01*
X140770142Y-104571429D02*
X140770142Y-104342858D01*
X140884428Y-105085715D02*
X140884428Y-105485715D01*
X140255857Y-105657143D02*
X140255857Y-105085715D01*
X140255857Y-105085715D02*
X141455857Y-105085715D01*
X141455857Y-105085715D02*
X141455857Y-105657143D01*
X140255857Y-106857143D02*
X140827285Y-106457143D01*
X140255857Y-106171429D02*
X141455857Y-106171429D01*
X141455857Y-106171429D02*
X141455857Y-106628572D01*
X141455857Y-106628572D02*
X141398714Y-106742857D01*
X141398714Y-106742857D02*
X141341571Y-106800000D01*
X141341571Y-106800000D02*
X141227285Y-106857143D01*
X141227285Y-106857143D02*
X141055857Y-106857143D01*
X141055857Y-106857143D02*
X140941571Y-106800000D01*
X140941571Y-106800000D02*
X140884428Y-106742857D01*
X140884428Y-106742857D02*
X140827285Y-106628572D01*
X140827285Y-106628572D02*
X140827285Y-106171429D01*
X139523924Y-103028571D02*
X139523924Y-102457143D01*
X139523924Y-102457143D02*
X138952495Y-102400000D01*
X138952495Y-102400000D02*
X139009638Y-102457143D01*
X139009638Y-102457143D02*
X139066781Y-102571429D01*
X139066781Y-102571429D02*
X139066781Y-102857143D01*
X139066781Y-102857143D02*
X139009638Y-102971429D01*
X139009638Y-102971429D02*
X138952495Y-103028571D01*
X138952495Y-103028571D02*
X138838209Y-103085714D01*
X138838209Y-103085714D02*
X138552495Y-103085714D01*
X138552495Y-103085714D02*
X138438209Y-103028571D01*
X138438209Y-103028571D02*
X138381067Y-102971429D01*
X138381067Y-102971429D02*
X138323924Y-102857143D01*
X138323924Y-102857143D02*
X138323924Y-102571429D01*
X138323924Y-102571429D02*
X138381067Y-102457143D01*
X138381067Y-102457143D02*
X138438209Y-102400000D01*
X139523924Y-103828571D02*
X139523924Y-103942857D01*
X139523924Y-103942857D02*
X139466781Y-104057143D01*
X139466781Y-104057143D02*
X139409638Y-104114286D01*
X139409638Y-104114286D02*
X139295352Y-104171428D01*
X139295352Y-104171428D02*
X139066781Y-104228571D01*
X139066781Y-104228571D02*
X138781067Y-104228571D01*
X138781067Y-104228571D02*
X138552495Y-104171428D01*
X138552495Y-104171428D02*
X138438209Y-104114286D01*
X138438209Y-104114286D02*
X138381067Y-104057143D01*
X138381067Y-104057143D02*
X138323924Y-103942857D01*
X138323924Y-103942857D02*
X138323924Y-103828571D01*
X138323924Y-103828571D02*
X138381067Y-103714286D01*
X138381067Y-103714286D02*
X138438209Y-103657143D01*
X138438209Y-103657143D02*
X138552495Y-103600000D01*
X138552495Y-103600000D02*
X138781067Y-103542857D01*
X138781067Y-103542857D02*
X139066781Y-103542857D01*
X139066781Y-103542857D02*
X139295352Y-103600000D01*
X139295352Y-103600000D02*
X139409638Y-103657143D01*
X139409638Y-103657143D02*
X139466781Y-103714286D01*
X139466781Y-103714286D02*
X139523924Y-103828571D01*
X138323924Y-104685714D02*
X138323924Y-104971428D01*
X138323924Y-104971428D02*
X138552495Y-104971428D01*
X138552495Y-104971428D02*
X138609638Y-104857143D01*
X138609638Y-104857143D02*
X138723924Y-104742857D01*
X138723924Y-104742857D02*
X138895352Y-104685714D01*
X138895352Y-104685714D02*
X139181067Y-104685714D01*
X139181067Y-104685714D02*
X139352495Y-104742857D01*
X139352495Y-104742857D02*
X139466781Y-104857143D01*
X139466781Y-104857143D02*
X139523924Y-105028571D01*
X139523924Y-105028571D02*
X139523924Y-105257143D01*
X139523924Y-105257143D02*
X139466781Y-105428571D01*
X139466781Y-105428571D02*
X139352495Y-105542857D01*
X139352495Y-105542857D02*
X139181067Y-105600000D01*
X139181067Y-105600000D02*
X138895352Y-105600000D01*
X138895352Y-105600000D02*
X138723924Y-105542857D01*
X138723924Y-105542857D02*
X138609638Y-105428571D01*
X138609638Y-105428571D02*
X138552495Y-105314285D01*
X138552495Y-105314285D02*
X138323924Y-105314285D01*
X138323924Y-105314285D02*
X138323924Y-105600000D01*
X104159857Y-100971429D02*
X104159857Y-101200000D01*
X104159857Y-101200000D02*
X104217000Y-101314286D01*
X104217000Y-101314286D02*
X104274142Y-101371429D01*
X104274142Y-101371429D02*
X104445571Y-101485714D01*
X104445571Y-101485714D02*
X104674142Y-101542857D01*
X104674142Y-101542857D02*
X105131285Y-101542857D01*
X105131285Y-101542857D02*
X105245571Y-101485714D01*
X105245571Y-101485714D02*
X105302714Y-101428572D01*
X105302714Y-101428572D02*
X105359857Y-101314286D01*
X105359857Y-101314286D02*
X105359857Y-101085714D01*
X105359857Y-101085714D02*
X105302714Y-100971429D01*
X105302714Y-100971429D02*
X105245571Y-100914286D01*
X105245571Y-100914286D02*
X105131285Y-100857143D01*
X105131285Y-100857143D02*
X104845571Y-100857143D01*
X104845571Y-100857143D02*
X104731285Y-100914286D01*
X104731285Y-100914286D02*
X104674142Y-100971429D01*
X104674142Y-100971429D02*
X104617000Y-101085714D01*
X104617000Y-101085714D02*
X104617000Y-101314286D01*
X104617000Y-101314286D02*
X104674142Y-101428572D01*
X104674142Y-101428572D02*
X104731285Y-101485714D01*
X104731285Y-101485714D02*
X104845571Y-101542857D01*
X104617000Y-102057143D02*
X104617000Y-102971429D01*
X105359857Y-103428571D02*
X105359857Y-104171428D01*
X105359857Y-104171428D02*
X104902714Y-103771428D01*
X104902714Y-103771428D02*
X104902714Y-103942857D01*
X104902714Y-103942857D02*
X104845571Y-104057143D01*
X104845571Y-104057143D02*
X104788428Y-104114285D01*
X104788428Y-104114285D02*
X104674142Y-104171428D01*
X104674142Y-104171428D02*
X104388428Y-104171428D01*
X104388428Y-104171428D02*
X104274142Y-104114285D01*
X104274142Y-104114285D02*
X104217000Y-104057143D01*
X104217000Y-104057143D02*
X104159857Y-103942857D01*
X104159857Y-103942857D02*
X104159857Y-103600000D01*
X104159857Y-103600000D02*
X104217000Y-103485714D01*
X104217000Y-103485714D02*
X104274142Y-103428571D01*
X105359857Y-104914285D02*
X105359857Y-105028571D01*
X105359857Y-105028571D02*
X105302714Y-105142857D01*
X105302714Y-105142857D02*
X105245571Y-105200000D01*
X105245571Y-105200000D02*
X105131285Y-105257142D01*
X105131285Y-105257142D02*
X104902714Y-105314285D01*
X104902714Y-105314285D02*
X104617000Y-105314285D01*
X104617000Y-105314285D02*
X104388428Y-105257142D01*
X104388428Y-105257142D02*
X104274142Y-105200000D01*
X104274142Y-105200000D02*
X104217000Y-105142857D01*
X104217000Y-105142857D02*
X104159857Y-105028571D01*
X104159857Y-105028571D02*
X104159857Y-104914285D01*
X104159857Y-104914285D02*
X104217000Y-104800000D01*
X104217000Y-104800000D02*
X104274142Y-104742857D01*
X104274142Y-104742857D02*
X104388428Y-104685714D01*
X104388428Y-104685714D02*
X104617000Y-104628571D01*
X104617000Y-104628571D02*
X104902714Y-104628571D01*
X104902714Y-104628571D02*
X105131285Y-104685714D01*
X105131285Y-104685714D02*
X105245571Y-104742857D01*
X105245571Y-104742857D02*
X105302714Y-104800000D01*
X105302714Y-104800000D02*
X105359857Y-104914285D01*
X105359857Y-105657142D02*
X104159857Y-106057142D01*
X104159857Y-106057142D02*
X105359857Y-106457142D01*
G36*
X137740242Y-100069732D02*
G01*
X137815700Y-100145191D01*
X137860714Y-100325246D01*
X137860714Y-100694467D01*
X137815700Y-100874521D01*
X137740240Y-100949982D01*
X137670492Y-100984857D01*
X137500936Y-100984857D01*
X137431187Y-100949982D01*
X137355727Y-100874522D01*
X137310714Y-100694467D01*
X137310714Y-100325246D01*
X137355727Y-100145191D01*
X137431188Y-100069730D01*
X137500936Y-100034857D01*
X137670492Y-100034857D01*
X137740242Y-100069732D01*
G37*
G36*
X138244047Y-101368190D02*
G01*
X134644069Y-101368190D01*
X134644069Y-101085471D01*
X134777402Y-101085471D01*
X134777402Y-101134243D01*
X134796066Y-101179303D01*
X134830554Y-101213791D01*
X134875614Y-101232455D01*
X134900000Y-101234857D01*
X135585714Y-101234857D01*
X135610100Y-101232455D01*
X135655160Y-101213791D01*
X135689648Y-101179303D01*
X135708312Y-101134243D01*
X135708312Y-101085471D01*
X135689648Y-101040411D01*
X135655160Y-101005923D01*
X135610100Y-100987259D01*
X135585714Y-100984857D01*
X135367857Y-100984857D01*
X135367857Y-100138428D01*
X135860714Y-100138428D01*
X135860714Y-101109857D01*
X135863116Y-101134243D01*
X135881780Y-101179303D01*
X135916268Y-101213791D01*
X135961328Y-101232455D01*
X136010100Y-101232455D01*
X136055160Y-101213791D01*
X136089648Y-101179303D01*
X136108312Y-101134243D01*
X136110714Y-101109857D01*
X136110714Y-100167936D01*
X136145588Y-100098187D01*
X136174045Y-100069731D01*
X136243793Y-100034857D01*
X136413349Y-100034857D01*
X136483099Y-100069732D01*
X136511553Y-100098186D01*
X136546428Y-100167936D01*
X136546428Y-101109857D01*
X136548830Y-101134243D01*
X136567494Y-101179303D01*
X136601982Y-101213791D01*
X136647042Y-101232455D01*
X136695814Y-101232455D01*
X136740874Y-101213791D01*
X136775362Y-101179303D01*
X136794026Y-101134243D01*
X136796428Y-101109857D01*
X136796428Y-100309857D01*
X137060714Y-100309857D01*
X137060714Y-100709857D01*
X137061133Y-100714111D01*
X137060862Y-100715934D01*
X137062211Y-100725063D01*
X137063116Y-100734243D01*
X137063820Y-100735944D01*
X137064446Y-100740174D01*
X137121589Y-100968745D01*
X137129834Y-100991821D01*
X137135368Y-100999290D01*
X137138924Y-101007874D01*
X137154469Y-101026816D01*
X137268755Y-101141102D01*
X137278341Y-101148970D01*
X137280504Y-101151463D01*
X137284261Y-101153828D01*
X137287697Y-101156648D01*
X137290748Y-101157912D01*
X137301241Y-101164517D01*
X137415526Y-101221660D01*
X137438412Y-101230418D01*
X137442893Y-101230736D01*
X137447042Y-101232455D01*
X137471428Y-101234857D01*
X137700000Y-101234857D01*
X137724386Y-101232455D01*
X137728534Y-101230736D01*
X137733016Y-101230418D01*
X137755902Y-101221660D01*
X137870188Y-101164517D01*
X137880682Y-101157910D01*
X137883733Y-101156647D01*
X137887167Y-101153828D01*
X137890925Y-101151463D01*
X137893086Y-101148971D01*
X137902675Y-101141102D01*
X138016960Y-101026816D01*
X138032505Y-101007874D01*
X138036061Y-100999286D01*
X138041594Y-100991820D01*
X138049839Y-100968745D01*
X138106982Y-100740174D01*
X138107607Y-100735944D01*
X138108312Y-100734243D01*
X138109216Y-100725061D01*
X138110566Y-100715933D01*
X138110294Y-100714111D01*
X138110714Y-100709857D01*
X138110714Y-100309857D01*
X138110294Y-100305602D01*
X138110566Y-100303781D01*
X138109216Y-100294652D01*
X138108312Y-100285471D01*
X138107607Y-100283769D01*
X138106982Y-100279540D01*
X138049839Y-100050968D01*
X138041594Y-100027893D01*
X138036061Y-100020425D01*
X138032504Y-100011838D01*
X138016959Y-99992896D01*
X137902674Y-99878612D01*
X137893088Y-99870745D01*
X137890925Y-99868251D01*
X137887163Y-99865883D01*
X137883732Y-99863067D01*
X137880684Y-99861804D01*
X137870188Y-99855197D01*
X137755902Y-99798054D01*
X137733016Y-99789296D01*
X137728534Y-99788977D01*
X137724386Y-99787259D01*
X137700000Y-99784857D01*
X137471428Y-99784857D01*
X137447042Y-99787259D01*
X137442893Y-99788977D01*
X137438412Y-99789296D01*
X137415526Y-99798054D01*
X137301241Y-99855197D01*
X137290748Y-99861802D01*
X137287697Y-99863066D01*
X137284260Y-99865886D01*
X137280504Y-99868251D01*
X137278343Y-99870742D01*
X137268755Y-99878611D01*
X137154469Y-99992896D01*
X137138924Y-100011838D01*
X137135367Y-100020423D01*
X137129834Y-100027892D01*
X137121589Y-100050968D01*
X137064446Y-100279540D01*
X137063820Y-100283769D01*
X137063116Y-100285471D01*
X137062211Y-100294652D01*
X137060862Y-100303781D01*
X137061133Y-100305602D01*
X137060714Y-100309857D01*
X136796428Y-100309857D01*
X136796428Y-100138428D01*
X136794026Y-100114042D01*
X136792307Y-100109893D01*
X136791989Y-100105412D01*
X136783232Y-100082527D01*
X136726088Y-99968240D01*
X136719480Y-99957743D01*
X136718218Y-99954696D01*
X136715401Y-99951264D01*
X136713034Y-99947503D01*
X136710539Y-99945339D01*
X136702673Y-99935754D01*
X136645531Y-99878612D01*
X136635945Y-99870745D01*
X136633782Y-99868251D01*
X136630020Y-99865883D01*
X136626589Y-99863067D01*
X136623541Y-99861804D01*
X136613045Y-99855197D01*
X136498759Y-99798054D01*
X136475873Y-99789296D01*
X136471391Y-99788977D01*
X136467243Y-99787259D01*
X136442857Y-99784857D01*
X136214285Y-99784857D01*
X136189899Y-99787259D01*
X136185750Y-99788977D01*
X136181269Y-99789296D01*
X136158383Y-99798054D01*
X136044098Y-99855197D01*
X136033603Y-99861803D01*
X136030555Y-99863066D01*
X136027121Y-99865883D01*
X136023361Y-99868251D01*
X136021197Y-99870745D01*
X136011613Y-99878611D01*
X135954469Y-99935753D01*
X135946599Y-99945341D01*
X135944108Y-99947503D01*
X135941742Y-99951260D01*
X135938924Y-99954695D01*
X135937660Y-99957745D01*
X135931054Y-99968240D01*
X135873911Y-100082526D01*
X135865153Y-100105412D01*
X135864834Y-100109893D01*
X135863116Y-100114042D01*
X135860714Y-100138428D01*
X135367857Y-100138428D01*
X135367857Y-99909857D01*
X135365455Y-99885471D01*
X135346791Y-99840411D01*
X135312303Y-99805923D01*
X135267243Y-99787259D01*
X135218471Y-99787259D01*
X135173411Y-99805923D01*
X135138923Y-99840411D01*
X135120259Y-99885471D01*
X135117857Y-99909857D01*
X135117857Y-100984857D01*
X134900000Y-100984857D01*
X134875614Y-100987259D01*
X134830554Y-101005923D01*
X134796066Y-101040411D01*
X134777402Y-101085471D01*
X134644069Y-101085471D01*
X134644069Y-99651524D01*
X138244047Y-99651524D01*
X138244047Y-101368190D01*
G37*
X140313000Y-113371429D02*
X140255857Y-113542858D01*
X140255857Y-113542858D02*
X140255857Y-113828572D01*
X140255857Y-113828572D02*
X140313000Y-113942858D01*
X140313000Y-113942858D02*
X140370142Y-114000000D01*
X140370142Y-114000000D02*
X140484428Y-114057143D01*
X140484428Y-114057143D02*
X140598714Y-114057143D01*
X140598714Y-114057143D02*
X140713000Y-114000000D01*
X140713000Y-114000000D02*
X140770142Y-113942858D01*
X140770142Y-113942858D02*
X140827285Y-113828572D01*
X140827285Y-113828572D02*
X140884428Y-113600000D01*
X140884428Y-113600000D02*
X140941571Y-113485715D01*
X140941571Y-113485715D02*
X140998714Y-113428572D01*
X140998714Y-113428572D02*
X141113000Y-113371429D01*
X141113000Y-113371429D02*
X141227285Y-113371429D01*
X141227285Y-113371429D02*
X141341571Y-113428572D01*
X141341571Y-113428572D02*
X141398714Y-113485715D01*
X141398714Y-113485715D02*
X141455857Y-113600000D01*
X141455857Y-113600000D02*
X141455857Y-113885715D01*
X141455857Y-113885715D02*
X141398714Y-114057143D01*
X140884428Y-114571429D02*
X140884428Y-114971429D01*
X140255857Y-115142857D02*
X140255857Y-114571429D01*
X140255857Y-114571429D02*
X141455857Y-114571429D01*
X141455857Y-114571429D02*
X141455857Y-115142857D01*
X140255857Y-115657143D02*
X141455857Y-115657143D01*
X141455857Y-115657143D02*
X140255857Y-116342857D01*
X140255857Y-116342857D02*
X141455857Y-116342857D01*
X140313000Y-116857143D02*
X140255857Y-117028572D01*
X140255857Y-117028572D02*
X140255857Y-117314286D01*
X140255857Y-117314286D02*
X140313000Y-117428572D01*
X140313000Y-117428572D02*
X140370142Y-117485714D01*
X140370142Y-117485714D02*
X140484428Y-117542857D01*
X140484428Y-117542857D02*
X140598714Y-117542857D01*
X140598714Y-117542857D02*
X140713000Y-117485714D01*
X140713000Y-117485714D02*
X140770142Y-117428572D01*
X140770142Y-117428572D02*
X140827285Y-117314286D01*
X140827285Y-117314286D02*
X140884428Y-117085714D01*
X140884428Y-117085714D02*
X140941571Y-116971429D01*
X140941571Y-116971429D02*
X140998714Y-116914286D01*
X140998714Y-116914286D02*
X141113000Y-116857143D01*
X141113000Y-116857143D02*
X141227285Y-116857143D01*
X141227285Y-116857143D02*
X141341571Y-116914286D01*
X141341571Y-116914286D02*
X141398714Y-116971429D01*
X141398714Y-116971429D02*
X141455857Y-117085714D01*
X141455857Y-117085714D02*
X141455857Y-117371429D01*
X141455857Y-117371429D02*
X141398714Y-117542857D01*
X140884428Y-118057143D02*
X140884428Y-118457143D01*
X140255857Y-118628571D02*
X140255857Y-118057143D01*
X140255857Y-118057143D02*
X141455857Y-118057143D01*
X141455857Y-118057143D02*
X141455857Y-118628571D01*
X139409638Y-113428572D02*
X139466781Y-113485715D01*
X139466781Y-113485715D02*
X139523924Y-113600001D01*
X139523924Y-113600001D02*
X139523924Y-113885715D01*
X139523924Y-113885715D02*
X139466781Y-114000001D01*
X139466781Y-114000001D02*
X139409638Y-114057143D01*
X139409638Y-114057143D02*
X139295352Y-114114286D01*
X139295352Y-114114286D02*
X139181067Y-114114286D01*
X139181067Y-114114286D02*
X139009638Y-114057143D01*
X139009638Y-114057143D02*
X138323924Y-113371429D01*
X138323924Y-113371429D02*
X138323924Y-114114286D01*
X139523924Y-114857143D02*
X139523924Y-114971429D01*
X139523924Y-114971429D02*
X139466781Y-115085715D01*
X139466781Y-115085715D02*
X139409638Y-115142858D01*
X139409638Y-115142858D02*
X139295352Y-115200000D01*
X139295352Y-115200000D02*
X139066781Y-115257143D01*
X139066781Y-115257143D02*
X138781067Y-115257143D01*
X138781067Y-115257143D02*
X138552495Y-115200000D01*
X138552495Y-115200000D02*
X138438209Y-115142858D01*
X138438209Y-115142858D02*
X138381067Y-115085715D01*
X138381067Y-115085715D02*
X138323924Y-114971429D01*
X138323924Y-114971429D02*
X138323924Y-114857143D01*
X138323924Y-114857143D02*
X138381067Y-114742858D01*
X138381067Y-114742858D02*
X138438209Y-114685715D01*
X138438209Y-114685715D02*
X138552495Y-114628572D01*
X138552495Y-114628572D02*
X138781067Y-114571429D01*
X138781067Y-114571429D02*
X139066781Y-114571429D01*
X139066781Y-114571429D02*
X139295352Y-114628572D01*
X139295352Y-114628572D02*
X139409638Y-114685715D01*
X139409638Y-114685715D02*
X139466781Y-114742858D01*
X139466781Y-114742858D02*
X139523924Y-114857143D01*
X138666781Y-115714286D02*
X138666781Y-116285715D01*
X138323924Y-115600000D02*
X139523924Y-116000000D01*
X139523924Y-116000000D02*
X138323924Y-116400000D01*
X139581067Y-117657143D02*
X138038209Y-116628571D01*
X139523924Y-117885714D02*
X138323924Y-118285714D01*
X138323924Y-118285714D02*
X139523924Y-118685714D01*
X137591991Y-115028571D02*
X137591991Y-114457143D01*
X137591991Y-114457143D02*
X137020562Y-114400000D01*
X137020562Y-114400000D02*
X137077705Y-114457143D01*
X137077705Y-114457143D02*
X137134848Y-114571429D01*
X137134848Y-114571429D02*
X137134848Y-114857143D01*
X137134848Y-114857143D02*
X137077705Y-114971429D01*
X137077705Y-114971429D02*
X137020562Y-115028571D01*
X137020562Y-115028571D02*
X136906276Y-115085714D01*
X136906276Y-115085714D02*
X136620562Y-115085714D01*
X136620562Y-115085714D02*
X136506276Y-115028571D01*
X136506276Y-115028571D02*
X136449134Y-114971429D01*
X136449134Y-114971429D02*
X136391991Y-114857143D01*
X136391991Y-114857143D02*
X136391991Y-114571429D01*
X136391991Y-114571429D02*
X136449134Y-114457143D01*
X136449134Y-114457143D02*
X136506276Y-114400000D01*
X137591991Y-115828571D02*
X137591991Y-115942857D01*
X137591991Y-115942857D02*
X137534848Y-116057143D01*
X137534848Y-116057143D02*
X137477705Y-116114286D01*
X137477705Y-116114286D02*
X137363419Y-116171428D01*
X137363419Y-116171428D02*
X137134848Y-116228571D01*
X137134848Y-116228571D02*
X136849134Y-116228571D01*
X136849134Y-116228571D02*
X136620562Y-116171428D01*
X136620562Y-116171428D02*
X136506276Y-116114286D01*
X136506276Y-116114286D02*
X136449134Y-116057143D01*
X136449134Y-116057143D02*
X136391991Y-115942857D01*
X136391991Y-115942857D02*
X136391991Y-115828571D01*
X136391991Y-115828571D02*
X136449134Y-115714286D01*
X136449134Y-115714286D02*
X136506276Y-115657143D01*
X136506276Y-115657143D02*
X136620562Y-115600000D01*
X136620562Y-115600000D02*
X136849134Y-115542857D01*
X136849134Y-115542857D02*
X137134848Y-115542857D01*
X137134848Y-115542857D02*
X137363419Y-115600000D01*
X137363419Y-115600000D02*
X137477705Y-115657143D01*
X137477705Y-115657143D02*
X137534848Y-115714286D01*
X137534848Y-115714286D02*
X137591991Y-115828571D01*
X136391991Y-116685714D02*
X136391991Y-116971428D01*
X136391991Y-116971428D02*
X136620562Y-116971428D01*
X136620562Y-116971428D02*
X136677705Y-116857143D01*
X136677705Y-116857143D02*
X136791991Y-116742857D01*
X136791991Y-116742857D02*
X136963419Y-116685714D01*
X136963419Y-116685714D02*
X137249134Y-116685714D01*
X137249134Y-116685714D02*
X137420562Y-116742857D01*
X137420562Y-116742857D02*
X137534848Y-116857143D01*
X137534848Y-116857143D02*
X137591991Y-117028571D01*
X137591991Y-117028571D02*
X137591991Y-117257143D01*
X137591991Y-117257143D02*
X137534848Y-117428571D01*
X137534848Y-117428571D02*
X137420562Y-117542857D01*
X137420562Y-117542857D02*
X137249134Y-117600000D01*
X137249134Y-117600000D02*
X136963419Y-117600000D01*
X136963419Y-117600000D02*
X136791991Y-117542857D01*
X136791991Y-117542857D02*
X136677705Y-117428571D01*
X136677705Y-117428571D02*
X136620562Y-117314285D01*
X136620562Y-117314285D02*
X136391991Y-117314285D01*
X136391991Y-117314285D02*
X136391991Y-117600000D01*
D13*
X159321428Y-106774500D02*
X158178571Y-106774500D01*
X158749999Y-106203071D02*
X158749999Y-107345928D01*
D14*
X158178571Y-113227320D02*
X159321429Y-113227320D01*
D12*
G36*
X116283099Y-100069732D02*
G01*
X116358557Y-100145191D01*
X116403571Y-100325246D01*
X116403571Y-100694467D01*
X116358557Y-100874521D01*
X116283097Y-100949982D01*
X116213349Y-100984857D01*
X116043793Y-100984857D01*
X115974044Y-100949982D01*
X115898584Y-100874522D01*
X115853571Y-100694467D01*
X115853571Y-100325246D01*
X115898584Y-100145191D01*
X115974045Y-100069730D01*
X116043793Y-100034857D01*
X116213349Y-100034857D01*
X116283099Y-100069732D01*
G37*
G36*
X116786904Y-101368190D02*
G01*
X114270238Y-101368190D01*
X114270238Y-99909857D01*
X114403571Y-99909857D01*
X114403571Y-101109857D01*
X114405973Y-101134243D01*
X114424637Y-101179303D01*
X114459125Y-101213791D01*
X114504185Y-101232455D01*
X114552957Y-101232455D01*
X114598017Y-101213791D01*
X114632505Y-101179303D01*
X114651169Y-101134243D01*
X114653571Y-101109857D01*
X114653571Y-100380551D01*
X115105755Y-101171874D01*
X115109401Y-101177011D01*
X115110351Y-101179303D01*
X115112686Y-101181638D01*
X115119939Y-101191855D01*
X115133080Y-101202032D01*
X115144839Y-101213791D01*
X115152200Y-101216840D01*
X115158500Y-101221719D01*
X115174541Y-101226093D01*
X115189899Y-101232455D01*
X115197866Y-101232455D01*
X115205555Y-101234552D01*
X115222050Y-101232455D01*
X115238671Y-101232455D01*
X115246031Y-101229406D01*
X115253938Y-101228401D01*
X115268372Y-101220152D01*
X115283731Y-101213791D01*
X115289365Y-101208156D01*
X115296284Y-101204203D01*
X115306463Y-101191058D01*
X115318219Y-101179303D01*
X115321267Y-101171942D01*
X115326147Y-101165642D01*
X115330521Y-101149600D01*
X115336883Y-101134243D01*
X115338111Y-101121771D01*
X115338980Y-101118587D01*
X115338667Y-101116127D01*
X115339285Y-101109857D01*
X115339285Y-100309857D01*
X115603571Y-100309857D01*
X115603571Y-100709857D01*
X115603990Y-100714111D01*
X115603719Y-100715934D01*
X115605068Y-100725063D01*
X115605973Y-100734243D01*
X115606677Y-100735944D01*
X115607303Y-100740174D01*
X115664446Y-100968745D01*
X115672691Y-100991821D01*
X115678225Y-100999290D01*
X115681781Y-101007874D01*
X115697326Y-101026816D01*
X115811612Y-101141102D01*
X115821198Y-101148970D01*
X115823361Y-101151463D01*
X115827118Y-101153828D01*
X115830554Y-101156648D01*
X115833605Y-101157912D01*
X115844098Y-101164517D01*
X115958383Y-101221660D01*
X115981269Y-101230418D01*
X115985750Y-101230736D01*
X115989899Y-101232455D01*
X116014285Y-101234857D01*
X116242857Y-101234857D01*
X116267243Y-101232455D01*
X116271391Y-101230736D01*
X116275873Y-101230418D01*
X116298759Y-101221660D01*
X116413045Y-101164517D01*
X116423539Y-101157910D01*
X116426590Y-101156647D01*
X116430024Y-101153828D01*
X116433782Y-101151463D01*
X116435943Y-101148971D01*
X116445532Y-101141102D01*
X116559817Y-101026816D01*
X116575362Y-101007874D01*
X116578918Y-100999286D01*
X116584451Y-100991820D01*
X116592696Y-100968745D01*
X116649839Y-100740174D01*
X116650464Y-100735944D01*
X116651169Y-100734243D01*
X116652073Y-100725061D01*
X116653423Y-100715933D01*
X116653151Y-100714111D01*
X116653571Y-100709857D01*
X116653571Y-100309857D01*
X116653151Y-100305602D01*
X116653423Y-100303781D01*
X116652073Y-100294652D01*
X116651169Y-100285471D01*
X116650464Y-100283769D01*
X116649839Y-100279540D01*
X116592696Y-100050968D01*
X116584451Y-100027893D01*
X116578918Y-100020425D01*
X116575361Y-100011838D01*
X116559816Y-99992896D01*
X116445531Y-99878612D01*
X116435945Y-99870745D01*
X116433782Y-99868251D01*
X116430020Y-99865883D01*
X116426589Y-99863067D01*
X116423541Y-99861804D01*
X116413045Y-99855197D01*
X116298759Y-99798054D01*
X116275873Y-99789296D01*
X116271391Y-99788977D01*
X116267243Y-99787259D01*
X116242857Y-99784857D01*
X116014285Y-99784857D01*
X115989899Y-99787259D01*
X115985750Y-99788977D01*
X115981269Y-99789296D01*
X115958383Y-99798054D01*
X115844098Y-99855197D01*
X115833605Y-99861802D01*
X115830554Y-99863066D01*
X115827117Y-99865886D01*
X115823361Y-99868251D01*
X115821200Y-99870742D01*
X115811612Y-99878611D01*
X115697326Y-99992896D01*
X115681781Y-100011838D01*
X115678224Y-100020423D01*
X115672691Y-100027892D01*
X115664446Y-100050968D01*
X115607303Y-100279540D01*
X115606677Y-100283769D01*
X115605973Y-100285471D01*
X115605068Y-100294652D01*
X115603719Y-100303781D01*
X115603990Y-100305602D01*
X115603571Y-100309857D01*
X115339285Y-100309857D01*
X115339285Y-99909857D01*
X115336883Y-99885471D01*
X115318219Y-99840411D01*
X115283731Y-99805923D01*
X115238671Y-99787259D01*
X115189899Y-99787259D01*
X115144839Y-99805923D01*
X115110351Y-99840411D01*
X115091687Y-99885471D01*
X115089285Y-99909857D01*
X115089285Y-100639161D01*
X114637101Y-99847840D01*
X114633454Y-99842702D01*
X114632505Y-99840411D01*
X114630170Y-99838076D01*
X114622917Y-99827858D01*
X114609772Y-99817678D01*
X114598017Y-99805923D01*
X114590656Y-99802874D01*
X114584356Y-99797995D01*
X114568314Y-99793620D01*
X114552957Y-99787259D01*
X114544990Y-99787259D01*
X114537301Y-99785162D01*
X114520806Y-99787259D01*
X114504185Y-99787259D01*
X114496824Y-99790307D01*
X114488918Y-99791313D01*
X114474483Y-99799561D01*
X114459125Y-99805923D01*
X114453490Y-99811557D01*
X114446572Y-99815511D01*
X114436392Y-99828655D01*
X114424637Y-99840411D01*
X114421588Y-99847771D01*
X114416709Y-99854072D01*
X114412334Y-99870113D01*
X114405973Y-99885471D01*
X114404744Y-99897942D01*
X114403876Y-99901127D01*
X114404188Y-99903586D01*
X114403571Y-99909857D01*
X114270238Y-99909857D01*
X114270238Y-99651524D01*
X116786904Y-99651524D01*
X116786904Y-101368190D01*
G37*
G36*
X110653570Y-100984857D02*
G01*
X110350935Y-100984857D01*
X110281187Y-100949982D01*
X110252731Y-100921527D01*
X110217856Y-100851776D01*
X110217856Y-100739365D01*
X110252731Y-100669614D01*
X110281187Y-100641159D01*
X110350935Y-100606285D01*
X110653570Y-100606285D01*
X110653570Y-100984857D01*
G37*
G36*
X113224999Y-100984857D02*
G01*
X112922364Y-100984857D01*
X112852616Y-100949982D01*
X112824160Y-100921527D01*
X112789285Y-100851776D01*
X112789285Y-100739365D01*
X112824160Y-100669614D01*
X112852616Y-100641159D01*
X112922364Y-100606285D01*
X113224999Y-100606285D01*
X113224999Y-100984857D01*
G37*
G36*
X113608332Y-101368190D02*
G01*
X109834523Y-101368190D01*
X109834523Y-100709857D01*
X109967856Y-100709857D01*
X109967856Y-100881285D01*
X109970258Y-100905671D01*
X109971976Y-100909819D01*
X109972295Y-100914301D01*
X109981053Y-100937187D01*
X110038196Y-101051473D01*
X110044803Y-101061969D01*
X110046066Y-101065017D01*
X110048882Y-101068448D01*
X110051250Y-101072210D01*
X110053744Y-101074373D01*
X110061611Y-101083959D01*
X110118753Y-101141102D01*
X110128341Y-101148971D01*
X110130503Y-101151463D01*
X110134260Y-101153828D01*
X110137695Y-101156647D01*
X110140745Y-101157910D01*
X110151240Y-101164517D01*
X110265525Y-101221660D01*
X110288411Y-101230418D01*
X110292892Y-101230736D01*
X110297041Y-101232455D01*
X110321427Y-101234857D01*
X110778570Y-101234857D01*
X110802956Y-101232455D01*
X110848016Y-101213791D01*
X110882504Y-101179303D01*
X110901168Y-101134243D01*
X110903570Y-101109857D01*
X110903570Y-101105184D01*
X111110802Y-101105184D01*
X111118521Y-101153341D01*
X111144083Y-101194880D01*
X111183595Y-101223473D01*
X111231041Y-101234769D01*
X111279198Y-101227050D01*
X111320737Y-101201488D01*
X111349330Y-101161976D01*
X111357315Y-101138810D01*
X111528289Y-100420716D01*
X111629220Y-100799208D01*
X111631361Y-100804919D01*
X111631681Y-100807321D01*
X111633331Y-100810171D01*
X111637824Y-100822152D01*
X111647852Y-100835253D01*
X111656118Y-100849531D01*
X111662547Y-100854451D01*
X111667468Y-100860881D01*
X111681747Y-100869148D01*
X111694847Y-100879175D01*
X111702668Y-100881260D01*
X111709678Y-100885319D01*
X111726036Y-100887492D01*
X111741973Y-100891742D01*
X111749998Y-100890675D01*
X111758025Y-100891742D01*
X111773966Y-100887490D01*
X111790320Y-100885318D01*
X111797326Y-100881261D01*
X111805151Y-100879175D01*
X111818252Y-100869146D01*
X111832530Y-100860881D01*
X111837450Y-100854451D01*
X111843880Y-100849531D01*
X111852146Y-100835252D01*
X111862174Y-100822152D01*
X111866665Y-100810174D01*
X111868317Y-100807322D01*
X111868636Y-100804919D01*
X111870778Y-100799208D01*
X111971709Y-100420716D01*
X112142684Y-101138810D01*
X112150669Y-101161976D01*
X112179263Y-101201488D01*
X112220801Y-101227050D01*
X112268958Y-101234770D01*
X112316404Y-101223473D01*
X112355916Y-101194880D01*
X112381478Y-101153342D01*
X112389197Y-101105184D01*
X112385886Y-101080905D01*
X112297541Y-100709857D01*
X112539285Y-100709857D01*
X112539285Y-100881285D01*
X112541687Y-100905671D01*
X112543405Y-100909819D01*
X112543724Y-100914301D01*
X112552482Y-100937187D01*
X112609625Y-101051473D01*
X112616232Y-101061969D01*
X112617495Y-101065017D01*
X112620311Y-101068448D01*
X112622679Y-101072210D01*
X112625173Y-101074373D01*
X112633040Y-101083959D01*
X112690182Y-101141102D01*
X112699770Y-101148971D01*
X112701932Y-101151463D01*
X112705689Y-101153828D01*
X112709124Y-101156647D01*
X112712174Y-101157910D01*
X112722669Y-101164517D01*
X112836954Y-101221660D01*
X112859840Y-101230418D01*
X112864321Y-101230736D01*
X112868470Y-101232455D01*
X112892856Y-101234857D01*
X113349999Y-101234857D01*
X113374385Y-101232455D01*
X113419445Y-101213791D01*
X113453933Y-101179303D01*
X113472597Y-101134243D01*
X113474999Y-101109857D01*
X113474999Y-99909857D01*
X113472597Y-99885471D01*
X113453933Y-99840411D01*
X113419445Y-99805923D01*
X113374385Y-99787259D01*
X113325613Y-99787259D01*
X113280553Y-99805923D01*
X113246065Y-99840411D01*
X113227401Y-99885471D01*
X113224999Y-99909857D01*
X113224999Y-100356285D01*
X112892856Y-100356285D01*
X112868470Y-100358687D01*
X112864321Y-100360405D01*
X112859840Y-100360724D01*
X112836954Y-100369482D01*
X112722669Y-100426625D01*
X112712174Y-100433231D01*
X112709124Y-100434495D01*
X112705689Y-100437313D01*
X112701932Y-100439679D01*
X112699770Y-100442170D01*
X112690182Y-100450040D01*
X112633040Y-100507183D01*
X112625173Y-100516768D01*
X112622679Y-100518932D01*
X112620311Y-100522693D01*
X112617495Y-100526125D01*
X112616232Y-100529172D01*
X112609625Y-100539669D01*
X112552482Y-100653955D01*
X112543724Y-100676841D01*
X112543405Y-100681322D01*
X112541687Y-100685471D01*
X112539285Y-100709857D01*
X112297541Y-100709857D01*
X112100172Y-99880904D01*
X112097287Y-99872535D01*
X112096889Y-99869536D01*
X112095318Y-99866823D01*
X112092187Y-99857738D01*
X112081544Y-99843031D01*
X112072452Y-99827326D01*
X112067357Y-99823426D01*
X112063594Y-99818226D01*
X112048132Y-99808711D01*
X112033723Y-99797682D01*
X112027522Y-99796028D01*
X112022055Y-99792664D01*
X112004133Y-99789791D01*
X111986597Y-99785115D01*
X111980233Y-99785960D01*
X111973898Y-99784945D01*
X111956243Y-99789148D01*
X111938250Y-99791539D01*
X111932696Y-99794754D01*
X111926452Y-99796241D01*
X111911745Y-99806883D01*
X111896040Y-99815976D01*
X111892140Y-99821070D01*
X111886940Y-99824834D01*
X111877425Y-99840295D01*
X111866396Y-99854705D01*
X111863022Y-99863700D01*
X111861378Y-99866373D01*
X111860898Y-99869365D01*
X111857792Y-99877649D01*
X111749999Y-100281870D01*
X111642207Y-99877649D01*
X111639101Y-99869366D01*
X111638621Y-99866372D01*
X111636974Y-99863696D01*
X111633603Y-99854706D01*
X111622576Y-99840299D01*
X111613059Y-99824834D01*
X111607858Y-99821070D01*
X111603959Y-99815976D01*
X111588253Y-99806883D01*
X111573547Y-99796241D01*
X111567302Y-99794754D01*
X111561749Y-99791539D01*
X111543760Y-99789148D01*
X111526101Y-99784944D01*
X111519762Y-99785960D01*
X111513402Y-99785115D01*
X111495870Y-99789790D01*
X111477944Y-99792664D01*
X111472476Y-99796028D01*
X111466277Y-99797682D01*
X111451866Y-99808711D01*
X111436406Y-99818226D01*
X111432643Y-99823425D01*
X111427547Y-99827326D01*
X111418453Y-99843033D01*
X111407812Y-99857738D01*
X111404680Y-99866823D01*
X111403110Y-99869536D01*
X111402711Y-99872535D01*
X111399827Y-99880904D01*
X111114113Y-101080904D01*
X111110802Y-101105184D01*
X110903570Y-101105184D01*
X110903570Y-99909857D01*
X110901168Y-99885471D01*
X110882504Y-99840411D01*
X110848016Y-99805923D01*
X110802956Y-99787259D01*
X110754184Y-99787259D01*
X110709124Y-99805923D01*
X110674636Y-99840411D01*
X110655972Y-99885471D01*
X110653570Y-99909857D01*
X110653570Y-100356285D01*
X110557938Y-100356285D01*
X110195260Y-99838174D01*
X110179308Y-99819574D01*
X110138177Y-99793362D01*
X110090146Y-99784886D01*
X110042528Y-99795436D01*
X110002573Y-99823405D01*
X109976361Y-99864536D01*
X109967885Y-99912567D01*
X109978435Y-99960185D01*
X109990452Y-99981540D01*
X110262922Y-100370783D01*
X110151240Y-100426625D01*
X110140745Y-100433231D01*
X110137695Y-100434495D01*
X110134260Y-100437313D01*
X110130503Y-100439679D01*
X110128341Y-100442170D01*
X110118753Y-100450040D01*
X110061611Y-100507183D01*
X110053744Y-100516768D01*
X110051250Y-100518932D01*
X110048882Y-100522693D01*
X110046066Y-100526125D01*
X110044803Y-100529172D01*
X110038196Y-100539669D01*
X109981053Y-100653955D01*
X109972295Y-100676841D01*
X109971976Y-100681322D01*
X109970258Y-100685471D01*
X109967856Y-100709857D01*
X109834523Y-100709857D01*
X109834523Y-99651553D01*
X113608332Y-99651553D01*
X113608332Y-101368190D01*
G37*
D15*
X112540000Y-117100000D02*
X108910000Y-117100000D01*
X117450000Y-117100000D02*
X115060000Y-117100000D01*
X117450000Y-117100000D02*
X117450000Y-114100000D01*
X116750000Y-114100000D02*
X116750000Y-107200000D01*
X117450000Y-114100000D02*
X116750000Y-114100000D01*
X112520000Y-107900000D02*
X108910000Y-107900000D01*
X115060000Y-107200000D02*
X116750000Y-107200000D01*
X108585000Y-105740000D02*
X106715000Y-105740000D01*
X114735000Y-105740000D02*
X112865000Y-105740000D01*
X125100000Y-111610000D02*
X129100000Y-111610000D01*
X127100000Y-107390000D02*
X129100000Y-107390000D01*
X149727500Y-117237258D02*
X149727500Y-116762742D01*
X150772500Y-117237258D02*
X150772500Y-116762742D01*
X134127064Y-111265000D02*
X133672936Y-111265000D01*
X134127064Y-112735000D02*
X133672936Y-112735000D01*
X151810000Y-109150000D02*
X149150000Y-109150000D01*
X151810000Y-110850000D02*
X149150000Y-110850000D01*
X151810000Y-110850000D02*
X151810000Y-109150000D01*
X130040000Y-111211252D02*
X130040000Y-109788748D01*
X131860000Y-111211252D02*
X131860000Y-109788748D01*
X122240000Y-108788748D02*
X122240000Y-110211252D01*
X124060000Y-108788748D02*
X124060000Y-110211252D01*
X110515000Y-101515000D02*
X110515000Y-102985000D01*
X110515000Y-102985000D02*
X112800000Y-102985000D01*
X112800000Y-101515000D02*
X110515000Y-101515000D01*
X126237258Y-104477500D02*
X125762742Y-104477500D01*
X126237258Y-105522500D02*
X125762742Y-105522500D01*
X128640000Y-99640000D02*
X133360000Y-99640000D01*
X128640000Y-100770000D02*
X128640000Y-99640000D01*
X128640000Y-104360000D02*
X128640000Y-103230000D01*
X133360000Y-99640000D02*
X133360000Y-99970000D01*
X133360000Y-101730000D02*
X133360000Y-102270000D01*
X133360000Y-104030000D02*
X133360000Y-104360000D01*
X133360000Y-104360000D02*
X128640000Y-104360000D01*
X145865000Y-109772936D02*
X145865000Y-110227064D01*
X147335000Y-109772936D02*
X147335000Y-110227064D01*
X135410000Y-107150000D02*
X132750000Y-107150000D01*
X135410000Y-107450000D02*
X135410000Y-107150000D01*
X135410000Y-108850000D02*
X132750000Y-108850000D01*
X135410000Y-108850000D02*
X135410000Y-108550000D01*
X119262742Y-111777500D02*
X119737258Y-111777500D01*
X119262742Y-112822500D02*
X119737258Y-112822500D01*
X125640580Y-117990000D02*
X125359420Y-117990000D01*
X125640580Y-119010000D02*
X125359420Y-119010000D01*
X156150000Y-104390000D02*
X156150000Y-107050000D01*
X156450000Y-104390000D02*
X156150000Y-104390000D01*
X157850000Y-104390000D02*
X157550000Y-104390000D01*
X157850000Y-104390000D02*
X157850000Y-107050000D01*
X121110000Y-109650000D02*
X118450000Y-109650000D01*
X121110000Y-111350000D02*
X118450000Y-111350000D01*
X121110000Y-111350000D02*
X121110000Y-109650000D01*
X136262742Y-103227500D02*
X136737258Y-103227500D01*
X136262742Y-104272500D02*
X136737258Y-104272500D01*
X131112742Y-116977500D02*
X131587258Y-116977500D01*
X131112742Y-118022500D02*
X131587258Y-118022500D01*
X116587221Y-105240000D02*
X116912779Y-105240000D01*
X116587221Y-106260000D02*
X116912779Y-106260000D01*
X133110000Y-113150000D02*
X130450000Y-113150000D01*
X133110000Y-113450000D02*
X133110000Y-113150000D01*
X133110000Y-114850000D02*
X130450000Y-114850000D01*
X133110000Y-114850000D02*
X133110000Y-114550000D01*
X122262742Y-116877500D02*
X122737258Y-116877500D01*
X122262742Y-117922500D02*
X122737258Y-117922500D01*
X132290000Y-109150000D02*
X132290000Y-109450000D01*
X132290000Y-109150000D02*
X134950000Y-109150000D01*
X132290000Y-110550000D02*
X132290000Y-110850000D01*
X132290000Y-110850000D02*
X134950000Y-110850000D01*
X150637258Y-107877500D02*
X150162742Y-107877500D01*
X150637258Y-108922500D02*
X150162742Y-108922500D01*
X123237258Y-104477500D02*
X122762742Y-104477500D01*
X123237258Y-105522500D02*
X122762742Y-105522500D01*
X122359420Y-115290000D02*
X122640580Y-115290000D01*
X122359420Y-116310000D02*
X122640580Y-116310000D01*
X154265000Y-104772936D02*
X154265000Y-105227064D01*
X155735000Y-104772936D02*
X155735000Y-105227064D01*
X131490580Y-115490000D02*
X131209420Y-115490000D01*
X131490580Y-116510000D02*
X131209420Y-116510000D01*
X143865000Y-109738748D02*
X143865000Y-110261252D01*
X145335000Y-109738748D02*
X145335000Y-110261252D01*
X132262742Y-105227500D02*
X132737258Y-105227500D01*
X132262742Y-106272500D02*
X132737258Y-106272500D01*
X115737258Y-103227500D02*
X115262742Y-103227500D01*
X115737258Y-104272500D02*
X115262742Y-104272500D01*
X142327500Y-109762742D02*
X142327500Y-110237258D01*
X143372500Y-109762742D02*
X143372500Y-110237258D01*
X129737258Y-105227500D02*
X129262742Y-105227500D01*
X129737258Y-106272500D02*
X129262742Y-106272500D01*
X119240000Y-105890000D02*
X120760000Y-105890000D01*
X119240000Y-105940000D02*
X119240000Y-105890000D01*
X119240000Y-107840000D02*
X119240000Y-107060000D01*
X119240000Y-109010000D02*
X119240000Y-108960000D01*
X120760000Y-105890000D02*
X120760000Y-106890000D01*
X120760000Y-108010000D02*
X120760000Y-109010000D01*
X120760000Y-109010000D02*
X119240000Y-109010000D01*
X153990000Y-108640580D02*
X153990000Y-108359420D01*
X155010000Y-108640580D02*
X155010000Y-108359420D01*
X112237258Y-103227500D02*
X111762742Y-103227500D01*
X112237258Y-104272500D02*
X111762742Y-104272500D01*
X150637258Y-111177500D02*
X150162742Y-111177500D01*
X150637258Y-112222500D02*
X150162742Y-112222500D01*
X133590000Y-116211252D02*
X133590000Y-114788748D01*
X135410000Y-116211252D02*
X135410000Y-114788748D01*
X135015000Y-101515000D02*
X135015000Y-102985000D01*
X135015000Y-102985000D02*
X137300000Y-102985000D01*
X137300000Y-101515000D02*
X135015000Y-101515000D01*
X141820000Y-114200000D02*
X141820000Y-117800000D01*
X147300000Y-112320000D02*
X143700000Y-112320000D01*
X147300000Y-119680000D02*
X143700000Y-119680000D01*
X149180000Y-114200000D02*
X149180000Y-117800000D01*
X125305000Y-113337500D02*
X128525000Y-113337500D01*
X125305000Y-114337500D02*
X125305000Y-114162500D01*
X125305000Y-115337500D02*
X125305000Y-115162500D01*
X128525000Y-114162500D02*
X128525000Y-114337500D01*
X128525000Y-115162500D02*
X128525000Y-115337500D01*
X128525000Y-117662500D02*
X125305000Y-117662500D01*
X152210000Y-111040000D02*
X152210000Y-112890000D01*
X152210000Y-111040000D02*
X153100000Y-111040000D01*
X154440000Y-111055000D02*
X155330000Y-111055000D01*
X155330000Y-111055000D02*
X155330000Y-112905000D01*
X117890000Y-99790000D02*
X119240000Y-99790000D01*
X117890000Y-103610000D02*
X117890000Y-99790000D01*
X117890000Y-103610000D02*
X119240000Y-103610000D01*
X120760000Y-99790000D02*
X121740000Y-99790000D01*
X120760000Y-103610000D02*
X121740000Y-103610000D01*
X123260000Y-99790000D02*
X124240000Y-99790000D01*
X123260000Y-103610000D02*
X124240000Y-103610000D01*
X125760000Y-103610000D02*
X127110000Y-103610000D01*
X127110000Y-99790000D02*
X125760000Y-99790000D01*
X127110000Y-103610000D02*
X127110000Y-99790000D01*
X151237258Y-99977500D02*
X150762742Y-99977500D01*
X151237258Y-101022500D02*
X150762742Y-101022500D01*
X136090000Y-112211252D02*
X136090000Y-110788748D01*
X137910000Y-112211252D02*
X137910000Y-110788748D01*
X141820000Y-102200000D02*
X141820000Y-105800000D01*
X147300000Y-100320000D02*
X143700000Y-100320000D01*
X147300000Y-107680000D02*
X143700000Y-107680000D01*
X149180000Y-102200000D02*
X149180000Y-105800000D01*
X152490000Y-108640580D02*
X152490000Y-108359420D01*
X153510000Y-108640580D02*
X153510000Y-108359420D01*
X136737258Y-104727500D02*
X136262742Y-104727500D01*
X136737258Y-105772500D02*
X136262742Y-105772500D01*
X140460000Y-107100000D02*
X136450000Y-107100000D01*
X140460000Y-109100000D02*
X136450000Y-109100000D01*
X140460000Y-109100000D02*
X140460000Y-107100000D01*
X149650000Y-102400000D02*
X149650000Y-105600000D01*
X149650000Y-105600000D02*
X149850000Y-105600000D01*
X149850000Y-102400000D02*
X149650000Y-102400000D01*
X151150000Y-105600000D02*
X152350000Y-105600000D01*
X153650000Y-105600000D02*
X153850000Y-105600000D01*
X153850000Y-102400000D02*
X153650000Y-102400000D01*
X153850000Y-105600000D02*
X153850000Y-102400000D01*
X114015000Y-101515000D02*
X114015000Y-102985000D01*
X114015000Y-102985000D02*
X116300000Y-102985000D01*
X116300000Y-101515000D02*
X114015000Y-101515000D01*
X124890580Y-111990000D02*
X124609420Y-111990000D01*
X124890580Y-113010000D02*
X124609420Y-113010000D01*
M02*
