G04 #@! TF.GenerationSoftware,KiCad,Pcbnew,9.0.7*
G04 #@! TF.CreationDate,2026-03-08T21:17:58+01:00*
G04 #@! TF.ProjectId,LightspeedLaserDriver,4c696768-7473-4706-9565-644c61736572,rev?*
G04 #@! TF.SameCoordinates,Original*
G04 #@! TF.FileFunction,Copper,L2,Bot*
G04 #@! TF.FilePolarity,Positive*
%FSLAX46Y46*%
G04 Gerber Fmt 4.6, Leading zero omitted, Abs format (unit mm)*
G04 Created by KiCad (PCBNEW 9.0.7) date 2026-03-08 21:17:58*
%MOMM*%
%LPD*%
G01*
G04 APERTURE LIST*
G04 #@! TA.AperFunction,EtchedComponent*
%ADD10C,0.000000*%
G04 #@! TD*
G04 #@! TA.AperFunction,ComponentPad*
%ADD11C,0.600000*%
G04 #@! TD*
G04 #@! TA.AperFunction,ComponentPad*
%ADD12C,2.050000*%
G04 #@! TD*
G04 #@! TA.AperFunction,ComponentPad*
%ADD13C,2.250000*%
G04 #@! TD*
G04 #@! TA.AperFunction,ViaPad*
%ADD14C,0.600000*%
G04 #@! TD*
G04 #@! TA.AperFunction,ViaPad*
%ADD15C,0.500000*%
G04 #@! TD*
G04 #@! TA.AperFunction,Conductor*
%ADD16C,0.300000*%
G04 #@! TD*
G04 #@! TA.AperFunction,Conductor*
%ADD17C,0.500000*%
G04 #@! TD*
G04 APERTURE END LIST*
D10*
G04 #@! TA.AperFunction,EtchedComponent*
G36*
X155000000Y-114500000D02*
G01*
X154400000Y-114500000D01*
X154400000Y-113300000D01*
X155000000Y-113300000D01*
X155000000Y-114500000D01*
G37*
G04 #@! TD.AperFunction*
D11*
X154700000Y-114500000D03*
D12*
X145500000Y-116000000D03*
D13*
X148040000Y-113460000D03*
X142960000Y-113460000D03*
X148040000Y-118540000D03*
X142960000Y-118540000D03*
D12*
X145500000Y-104000000D03*
D13*
X148040000Y-101460000D03*
X142960000Y-101460000D03*
X148040000Y-106540000D03*
X142960000Y-106540000D03*
D14*
X123800000Y-100000000D03*
X143000000Y-116000000D03*
X145000000Y-120000000D03*
X120000000Y-120000000D03*
X115000000Y-120000000D03*
X110000000Y-105000000D03*
X150000000Y-120000000D03*
X140000000Y-100000000D03*
X127500000Y-117500000D03*
X114000000Y-100000000D03*
X140000000Y-120000000D03*
X130000000Y-120000000D03*
X117500000Y-100000000D03*
X127000000Y-106500000D03*
X104936925Y-114820953D03*
X135000000Y-120000000D03*
X121250000Y-100000000D03*
X110000000Y-110000000D03*
X110000000Y-100000000D03*
X105000000Y-110000000D03*
X145000000Y-107500000D03*
X127000000Y-100000000D03*
X105000000Y-105000000D03*
X120000000Y-115000000D03*
X115000000Y-115000000D03*
X125000000Y-120000000D03*
X155000000Y-117500000D03*
X157500000Y-102500000D03*
X148500000Y-110000000D03*
X110000000Y-115000000D03*
X145000000Y-100000000D03*
X157500000Y-115000000D03*
X107500000Y-102500000D03*
X115000000Y-110000000D03*
X143000000Y-104000000D03*
X155000000Y-102500000D03*
X140000000Y-110000000D03*
X150000000Y-115000000D03*
X135000000Y-100000000D03*
X145000000Y-112500000D03*
X123250000Y-106500000D03*
X153000000Y-104000000D03*
X140000000Y-115000000D03*
X110000000Y-120000000D03*
X140000000Y-105000000D03*
X130000000Y-100000000D03*
X157500000Y-117500000D03*
D15*
X131675000Y-105075000D03*
D14*
X129020500Y-117700000D03*
D15*
X124500000Y-105000000D03*
X125500000Y-113750000D03*
D14*
X142000000Y-110900000D03*
X137300000Y-106050000D03*
X152600000Y-110100000D03*
X147600000Y-110900000D03*
X155000000Y-104900000D03*
X154700000Y-112300000D03*
D16*
X131700000Y-105100000D02*
X131675000Y-105075000D01*
X129020500Y-117679500D02*
X131700000Y-115000000D01*
X131700000Y-115000000D02*
X131700000Y-105100000D01*
X129020500Y-117700000D02*
X129020500Y-117679500D01*
X125450000Y-113750000D02*
X124500000Y-112800000D01*
X125500000Y-113750000D02*
X125450000Y-113750000D01*
X124500000Y-112800000D02*
X124500000Y-105000000D01*
X137300000Y-106050000D02*
X142000000Y-110750000D01*
X142000000Y-110750000D02*
X142000000Y-110900000D01*
D17*
X151800000Y-110900000D02*
X147600000Y-110900000D01*
X152600000Y-110100000D02*
X151800000Y-110900000D01*
X154700000Y-105200000D02*
X155000000Y-104900000D01*
X154700000Y-112300000D02*
X154700000Y-105200000D01*
G04 #@! TA.AperFunction,Conductor*
G36*
X109998351Y-98832932D02*
G01*
X110022759Y-98851893D01*
X110178140Y-99007274D01*
X110178148Y-99007281D01*
X110386196Y-99166924D01*
X110613299Y-99298041D01*
X110613309Y-99298046D01*
X110746620Y-99353265D01*
X110855581Y-99398398D01*
X111108884Y-99466270D01*
X111368880Y-99500500D01*
X111368887Y-99500500D01*
X151631113Y-99500500D01*
X151631120Y-99500500D01*
X151891116Y-99466270D01*
X152144419Y-99398398D01*
X152386697Y-99298043D01*
X152613803Y-99166924D01*
X152821851Y-99007282D01*
X152977241Y-98851891D01*
X153038563Y-98818408D01*
X153108254Y-98823392D01*
X153164188Y-98865263D01*
X153179482Y-98892121D01*
X153241262Y-99041271D01*
X153241264Y-99041276D01*
X153408017Y-99353247D01*
X153408028Y-99353265D01*
X153604558Y-99647393D01*
X153604568Y-99647407D01*
X153828992Y-99920869D01*
X154079130Y-100171007D01*
X154079135Y-100171011D01*
X154079136Y-100171012D01*
X154352598Y-100395436D01*
X154646741Y-100591976D01*
X154646750Y-100591981D01*
X154646752Y-100591982D01*
X154958723Y-100758735D01*
X154958725Y-100758735D01*
X154958731Y-100758739D01*
X155285565Y-100894118D01*
X155624095Y-100996809D01*
X155624101Y-100996810D01*
X155624104Y-100996811D01*
X155624115Y-100996814D01*
X155841674Y-101040088D01*
X155971060Y-101065825D01*
X156323119Y-101100500D01*
X156323122Y-101100500D01*
X156676878Y-101100500D01*
X156676881Y-101100500D01*
X157028940Y-101065825D01*
X157200679Y-101031663D01*
X157375884Y-100996814D01*
X157375895Y-100996811D01*
X157375895Y-100996810D01*
X157375905Y-100996809D01*
X157714435Y-100894118D01*
X158041269Y-100758739D01*
X158353259Y-100591976D01*
X158647402Y-100395436D01*
X158920864Y-100171012D01*
X159171012Y-99920864D01*
X159279647Y-99788490D01*
X159337392Y-99749157D01*
X159407237Y-99747286D01*
X159467005Y-99783473D01*
X159497721Y-99846229D01*
X159499500Y-99867156D01*
X159499500Y-120132843D01*
X159479815Y-120199882D01*
X159427011Y-120245637D01*
X159357853Y-120255581D01*
X159294297Y-120226556D01*
X159279647Y-120211508D01*
X159171007Y-120079130D01*
X158920869Y-119828992D01*
X158647407Y-119604568D01*
X158647406Y-119604567D01*
X158647402Y-119604564D01*
X158353259Y-119408024D01*
X158353254Y-119408021D01*
X158353247Y-119408017D01*
X158041276Y-119241264D01*
X158041271Y-119241262D01*
X157714436Y-119105882D01*
X157375895Y-119003188D01*
X157375884Y-119003185D01*
X157028946Y-118934176D01*
X157028929Y-118934173D01*
X156762700Y-118907952D01*
X156676881Y-118899500D01*
X156323119Y-118899500D01*
X156243748Y-118907317D01*
X155971070Y-118934173D01*
X155971053Y-118934176D01*
X155624115Y-119003185D01*
X155624104Y-119003188D01*
X155285563Y-119105882D01*
X154958728Y-119241262D01*
X154958723Y-119241264D01*
X154646752Y-119408017D01*
X154646734Y-119408028D01*
X154352606Y-119604558D01*
X154352592Y-119604568D01*
X154079130Y-119828992D01*
X153828992Y-120079130D01*
X153604568Y-120352592D01*
X153604558Y-120352606D01*
X153408028Y-120646734D01*
X153408017Y-120646752D01*
X153241264Y-120958723D01*
X153241262Y-120958728D01*
X153179482Y-121107878D01*
X153135641Y-121162281D01*
X153069346Y-121184346D01*
X153001647Y-121167067D01*
X152977240Y-121148106D01*
X152821860Y-120992726D01*
X152821851Y-120992718D01*
X152613803Y-120833075D01*
X152386700Y-120701958D01*
X152386690Y-120701953D01*
X152144428Y-120601605D01*
X152144421Y-120601603D01*
X152144419Y-120601602D01*
X151891116Y-120533730D01*
X151833339Y-120526123D01*
X151631127Y-120499500D01*
X151631120Y-120499500D01*
X151565892Y-120499500D01*
X111565892Y-120499500D01*
X111500000Y-120499500D01*
X111368880Y-120499500D01*
X111368872Y-120499500D01*
X111137772Y-120529926D01*
X111108884Y-120533730D01*
X110855581Y-120601602D01*
X110855571Y-120601605D01*
X110613309Y-120701953D01*
X110613299Y-120701958D01*
X110386196Y-120833075D01*
X110178148Y-120992718D01*
X110022759Y-121148107D01*
X109961436Y-121181591D01*
X109891744Y-121176607D01*
X109835811Y-121134735D01*
X109820517Y-121107877D01*
X109772820Y-120992726D01*
X109758739Y-120958731D01*
X109591976Y-120646741D01*
X109395436Y-120352598D01*
X109171012Y-120079136D01*
X109171011Y-120079135D01*
X109171007Y-120079130D01*
X108920869Y-119828992D01*
X108647407Y-119604568D01*
X108647406Y-119604567D01*
X108647402Y-119604564D01*
X108353259Y-119408024D01*
X108353254Y-119408021D01*
X108353247Y-119408017D01*
X108041276Y-119241264D01*
X108041271Y-119241262D01*
X107714436Y-119105882D01*
X107375895Y-119003188D01*
X107375884Y-119003185D01*
X107028946Y-118934176D01*
X107028929Y-118934173D01*
X106762700Y-118907952D01*
X106676881Y-118899500D01*
X106323119Y-118899500D01*
X106243748Y-118907317D01*
X105971070Y-118934173D01*
X105971053Y-118934176D01*
X105624115Y-119003185D01*
X105624104Y-119003188D01*
X105285563Y-119105882D01*
X104958728Y-119241262D01*
X104958723Y-119241264D01*
X104646752Y-119408017D01*
X104646734Y-119408028D01*
X104352606Y-119604558D01*
X104352592Y-119604568D01*
X104079130Y-119828992D01*
X103828992Y-120079130D01*
X103720353Y-120211508D01*
X103662608Y-120250842D01*
X103592763Y-120252713D01*
X103532995Y-120216525D01*
X103502279Y-120153770D01*
X103500500Y-120132843D01*
X103500500Y-118419941D01*
X141434500Y-118419941D01*
X141434500Y-118660058D01*
X141472063Y-118897222D01*
X141546265Y-119125593D01*
X141655276Y-119339536D01*
X141796414Y-119533796D01*
X141966204Y-119703586D01*
X142160464Y-119844724D01*
X142261543Y-119896226D01*
X142374406Y-119953734D01*
X142374408Y-119953734D01*
X142374411Y-119953736D01*
X142602778Y-120027937D01*
X142839941Y-120065500D01*
X142839942Y-120065500D01*
X143080058Y-120065500D01*
X143080059Y-120065500D01*
X143317222Y-120027937D01*
X143545589Y-119953736D01*
X143759536Y-119844724D01*
X143953796Y-119703586D01*
X144123586Y-119533796D01*
X144264724Y-119339536D01*
X144373736Y-119125589D01*
X144447937Y-118897222D01*
X144485500Y-118660059D01*
X144485500Y-118419941D01*
X146514500Y-118419941D01*
X146514500Y-118660058D01*
X146552063Y-118897222D01*
X146626265Y-119125593D01*
X146735276Y-119339536D01*
X146876414Y-119533796D01*
X147046204Y-119703586D01*
X147240464Y-119844724D01*
X147341543Y-119896226D01*
X147454406Y-119953734D01*
X147454408Y-119953734D01*
X147454411Y-119953736D01*
X147682778Y-120027937D01*
X147919941Y-120065500D01*
X147919942Y-120065500D01*
X148160058Y-120065500D01*
X148160059Y-120065500D01*
X148397222Y-120027937D01*
X148625589Y-119953736D01*
X148839536Y-119844724D01*
X149033796Y-119703586D01*
X149203586Y-119533796D01*
X149344724Y-119339536D01*
X149453736Y-119125589D01*
X149527937Y-118897222D01*
X149565500Y-118660059D01*
X149565500Y-118419941D01*
X149527937Y-118182778D01*
X149453736Y-117954411D01*
X149453734Y-117954408D01*
X149453734Y-117954406D01*
X149344723Y-117740463D01*
X149336873Y-117729658D01*
X149203586Y-117546204D01*
X149033796Y-117376414D01*
X148839536Y-117235276D01*
X148625593Y-117126265D01*
X148397222Y-117052063D01*
X148160059Y-117014500D01*
X147919941Y-117014500D01*
X147801359Y-117033281D01*
X147682777Y-117052063D01*
X147454406Y-117126265D01*
X147240463Y-117235276D01*
X147046201Y-117376416D01*
X146876416Y-117546201D01*
X146735276Y-117740463D01*
X146626265Y-117954406D01*
X146552063Y-118182777D01*
X146514500Y-118419941D01*
X144485500Y-118419941D01*
X144447937Y-118182778D01*
X144373736Y-117954411D01*
X144373734Y-117954408D01*
X144373734Y-117954406D01*
X144264723Y-117740463D01*
X144256873Y-117729658D01*
X144123586Y-117546204D01*
X143953796Y-117376414D01*
X143759536Y-117235276D01*
X143545593Y-117126265D01*
X143317222Y-117052063D01*
X143080059Y-117014500D01*
X142839941Y-117014500D01*
X142721359Y-117033281D01*
X142602777Y-117052063D01*
X142374406Y-117126265D01*
X142160463Y-117235276D01*
X141966201Y-117376416D01*
X141796416Y-117546201D01*
X141655276Y-117740463D01*
X141546265Y-117954406D01*
X141472063Y-118182777D01*
X141434500Y-118419941D01*
X103500500Y-118419941D01*
X103500500Y-117768995D01*
X128319999Y-117768995D01*
X128346918Y-117904322D01*
X128346921Y-117904332D01*
X128399721Y-118031804D01*
X128399728Y-118031817D01*
X128476385Y-118146541D01*
X128476388Y-118146545D01*
X128573954Y-118244111D01*
X128573958Y-118244114D01*
X128688682Y-118320771D01*
X128688695Y-118320778D01*
X128816167Y-118373578D01*
X128816172Y-118373580D01*
X128816176Y-118373580D01*
X128816177Y-118373581D01*
X128951504Y-118400500D01*
X128951507Y-118400500D01*
X129089495Y-118400500D01*
X129180541Y-118382389D01*
X129224828Y-118373580D01*
X129352311Y-118320775D01*
X129352317Y-118320771D01*
X129365494Y-118311967D01*
X129414433Y-118279266D01*
X129467042Y-118244114D01*
X129564614Y-118146542D01*
X129641275Y-118031811D01*
X129694080Y-117904328D01*
X129716510Y-117791564D01*
X129748893Y-117729658D01*
X129750387Y-117728137D01*
X131590720Y-115887805D01*
X144074500Y-115887805D01*
X144074500Y-116112194D01*
X144109599Y-116333805D01*
X144178938Y-116547206D01*
X144280805Y-116747128D01*
X144412683Y-116928644D01*
X144412687Y-116928649D01*
X144571350Y-117087312D01*
X144571355Y-117087316D01*
X144665737Y-117155888D01*
X144752875Y-117219197D01*
X144880264Y-117284105D01*
X144952793Y-117321061D01*
X144952795Y-117321061D01*
X144952798Y-117321063D01*
X145067184Y-117358229D01*
X145166194Y-117390400D01*
X145387806Y-117425500D01*
X145387811Y-117425500D01*
X145612194Y-117425500D01*
X145833805Y-117390400D01*
X145876849Y-117376414D01*
X146047202Y-117321063D01*
X146247125Y-117219197D01*
X146428651Y-117087311D01*
X146587311Y-116928651D01*
X146719197Y-116747125D01*
X146821063Y-116547202D01*
X146890400Y-116333805D01*
X146925500Y-116112194D01*
X146925500Y-115887805D01*
X146890400Y-115666194D01*
X146821061Y-115452793D01*
X146784105Y-115380264D01*
X146719197Y-115252875D01*
X146689852Y-115212485D01*
X146587316Y-115071355D01*
X146587312Y-115071350D01*
X146428649Y-114912687D01*
X146428644Y-114912683D01*
X146247128Y-114780805D01*
X146247127Y-114780804D01*
X146247125Y-114780803D01*
X146184692Y-114748992D01*
X146047206Y-114678938D01*
X145833805Y-114609599D01*
X145612194Y-114574500D01*
X145612189Y-114574500D01*
X145387811Y-114574500D01*
X145387806Y-114574500D01*
X145166194Y-114609599D01*
X144952793Y-114678938D01*
X144752871Y-114780805D01*
X144571355Y-114912683D01*
X144571350Y-114912687D01*
X144412687Y-115071350D01*
X144412683Y-115071355D01*
X144280805Y-115252871D01*
X144178938Y-115452793D01*
X144109599Y-115666194D01*
X144074500Y-115887805D01*
X131590720Y-115887805D01*
X132140510Y-115338015D01*
X132212984Y-115212485D01*
X132250500Y-115072475D01*
X132250500Y-113339941D01*
X141434500Y-113339941D01*
X141434500Y-113580058D01*
X141472063Y-113817222D01*
X141546265Y-114045593D01*
X141606940Y-114164672D01*
X141655276Y-114259536D01*
X141796414Y-114453796D01*
X141966204Y-114623586D01*
X142160464Y-114764724D01*
X142192021Y-114780803D01*
X142374406Y-114873734D01*
X142374408Y-114873734D01*
X142374411Y-114873736D01*
X142602778Y-114947937D01*
X142839941Y-114985500D01*
X142839942Y-114985500D01*
X143080058Y-114985500D01*
X143080059Y-114985500D01*
X143317222Y-114947937D01*
X143545589Y-114873736D01*
X143759536Y-114764724D01*
X143953796Y-114623586D01*
X144123586Y-114453796D01*
X144264724Y-114259536D01*
X144373736Y-114045589D01*
X144447937Y-113817222D01*
X144485500Y-113580059D01*
X144485500Y-113339941D01*
X146514500Y-113339941D01*
X146514500Y-113580058D01*
X146552063Y-113817222D01*
X146626265Y-114045593D01*
X146686940Y-114164672D01*
X146735276Y-114259536D01*
X146876414Y-114453796D01*
X147046204Y-114623586D01*
X147240464Y-114764724D01*
X147272021Y-114780803D01*
X147454406Y-114873734D01*
X147454408Y-114873734D01*
X147454411Y-114873736D01*
X147682778Y-114947937D01*
X147919941Y-114985500D01*
X147919942Y-114985500D01*
X148160058Y-114985500D01*
X148160059Y-114985500D01*
X148397222Y-114947937D01*
X148625589Y-114873736D01*
X148839536Y-114764724D01*
X149033796Y-114623586D01*
X149203586Y-114453796D01*
X149344724Y-114259536D01*
X149453736Y-114045589D01*
X149527937Y-113817222D01*
X149565500Y-113580059D01*
X149565500Y-113339941D01*
X149527937Y-113102778D01*
X149453736Y-112874411D01*
X149453734Y-112874408D01*
X149453734Y-112874406D01*
X149344723Y-112660463D01*
X149203586Y-112466204D01*
X149106377Y-112368995D01*
X153999499Y-112368995D01*
X154026418Y-112504322D01*
X154026421Y-112504332D01*
X154079221Y-112631804D01*
X154079228Y-112631817D01*
X154155885Y-112746541D01*
X154155888Y-112746545D01*
X154253454Y-112844111D01*
X154253458Y-112844114D01*
X154368182Y-112920771D01*
X154368195Y-112920778D01*
X154418559Y-112941639D01*
X154495672Y-112973580D01*
X154495676Y-112973580D01*
X154495677Y-112973581D01*
X154631004Y-113000500D01*
X154631007Y-113000500D01*
X154768995Y-113000500D01*
X154860041Y-112982389D01*
X154904328Y-112973580D01*
X155031811Y-112920775D01*
X155146542Y-112844114D01*
X155244114Y-112746542D01*
X155320775Y-112631811D01*
X155373580Y-112504328D01*
X155400500Y-112368993D01*
X155400500Y-112231007D01*
X155400500Y-112231004D01*
X155373581Y-112095678D01*
X155373580Y-112095672D01*
X155359937Y-112062734D01*
X155350500Y-112015287D01*
X155350500Y-105574566D01*
X155370185Y-105507527D01*
X155405611Y-105471463D01*
X155423663Y-105459401D01*
X155446542Y-105444114D01*
X155544114Y-105346542D01*
X155620775Y-105231811D01*
X155673580Y-105104328D01*
X155692292Y-105010256D01*
X155700500Y-104968995D01*
X155700500Y-104831004D01*
X155673581Y-104695677D01*
X155673580Y-104695676D01*
X155673580Y-104695672D01*
X155672004Y-104691866D01*
X155620778Y-104568195D01*
X155620771Y-104568182D01*
X155544114Y-104453458D01*
X155544111Y-104453454D01*
X155446545Y-104355888D01*
X155446541Y-104355885D01*
X155331817Y-104279228D01*
X155331804Y-104279221D01*
X155204332Y-104226421D01*
X155204322Y-104226418D01*
X155068995Y-104199500D01*
X155068993Y-104199500D01*
X154931007Y-104199500D01*
X154931005Y-104199500D01*
X154795677Y-104226418D01*
X154795667Y-104226421D01*
X154668195Y-104279221D01*
X154668182Y-104279228D01*
X154553458Y-104355885D01*
X154553454Y-104355888D01*
X154455888Y-104453454D01*
X154455882Y-104453462D01*
X154379226Y-104568186D01*
X154379224Y-104568189D01*
X154365582Y-104601123D01*
X154338704Y-104641347D01*
X154194722Y-104785330D01*
X154194718Y-104785336D01*
X154164204Y-104831006D01*
X154164204Y-104831007D01*
X154123534Y-104891874D01*
X154074499Y-105010255D01*
X154074497Y-105010261D01*
X154049500Y-105135928D01*
X154049500Y-112015287D01*
X154048112Y-112022262D01*
X154046116Y-112044056D01*
X154043830Y-112053639D01*
X154026420Y-112095672D01*
X153999500Y-112231007D01*
X153999500Y-112368993D01*
X153999500Y-112368995D01*
X153999499Y-112368995D01*
X149106377Y-112368995D01*
X149033796Y-112296414D01*
X148839536Y-112155276D01*
X148625593Y-112046265D01*
X148397222Y-111972063D01*
X148160059Y-111934500D01*
X147919941Y-111934500D01*
X147801359Y-111953281D01*
X147682777Y-111972063D01*
X147454406Y-112046265D01*
X147240463Y-112155276D01*
X147046201Y-112296416D01*
X146876416Y-112466201D01*
X146735276Y-112660463D01*
X146626265Y-112874406D01*
X146552063Y-113102777D01*
X146514500Y-113339941D01*
X144485500Y-113339941D01*
X144447937Y-113102778D01*
X144373736Y-112874411D01*
X144373734Y-112874408D01*
X144373734Y-112874406D01*
X144264723Y-112660463D01*
X144123586Y-112466204D01*
X143953796Y-112296414D01*
X143759536Y-112155276D01*
X143545593Y-112046265D01*
X143317222Y-111972063D01*
X143080059Y-111934500D01*
X142839941Y-111934500D01*
X142721359Y-111953281D01*
X142602777Y-111972063D01*
X142374406Y-112046265D01*
X142160463Y-112155276D01*
X141966201Y-112296416D01*
X141796416Y-112466201D01*
X141655276Y-112660463D01*
X141546265Y-112874406D01*
X141472063Y-113102777D01*
X141434500Y-113339941D01*
X132250500Y-113339941D01*
X132250500Y-106118995D01*
X136599499Y-106118995D01*
X136626418Y-106254322D01*
X136626421Y-106254332D01*
X136679221Y-106381804D01*
X136679228Y-106381817D01*
X136755885Y-106496541D01*
X136755888Y-106496545D01*
X136853454Y-106594111D01*
X136853458Y-106594114D01*
X136968182Y-106670771D01*
X136968195Y-106670778D01*
X137095667Y-106723578D01*
X137095672Y-106723580D01*
X137182842Y-106740919D01*
X137244749Y-106773302D01*
X137246329Y-106774854D01*
X141263181Y-110791706D01*
X141296666Y-110853029D01*
X141299500Y-110879387D01*
X141299500Y-110968993D01*
X141299500Y-110968995D01*
X141299499Y-110968995D01*
X141326418Y-111104322D01*
X141326421Y-111104332D01*
X141379221Y-111231804D01*
X141379228Y-111231817D01*
X141455885Y-111346541D01*
X141455888Y-111346545D01*
X141553454Y-111444111D01*
X141553458Y-111444114D01*
X141668182Y-111520771D01*
X141668195Y-111520778D01*
X141784755Y-111569058D01*
X141795672Y-111573580D01*
X141795676Y-111573580D01*
X141795677Y-111573581D01*
X141931004Y-111600500D01*
X141931007Y-111600500D01*
X142068995Y-111600500D01*
X142160041Y-111582389D01*
X142204328Y-111573580D01*
X142320399Y-111525502D01*
X142331804Y-111520778D01*
X142331804Y-111520777D01*
X142331811Y-111520775D01*
X142446542Y-111444114D01*
X142544114Y-111346542D01*
X142620775Y-111231811D01*
X142673580Y-111104328D01*
X142700500Y-110968995D01*
X146899499Y-110968995D01*
X146926418Y-111104322D01*
X146926421Y-111104332D01*
X146979221Y-111231804D01*
X146979228Y-111231817D01*
X147055885Y-111346541D01*
X147055888Y-111346545D01*
X147153454Y-111444111D01*
X147153458Y-111444114D01*
X147268182Y-111520771D01*
X147268195Y-111520778D01*
X147384755Y-111569058D01*
X147395672Y-111573580D01*
X147395676Y-111573580D01*
X147395677Y-111573581D01*
X147531004Y-111600500D01*
X147531007Y-111600500D01*
X147668995Y-111600500D01*
X147760041Y-111582389D01*
X147804328Y-111573580D01*
X147837260Y-111559938D01*
X147884713Y-111550500D01*
X151864071Y-111550500D01*
X151948615Y-111533682D01*
X151989744Y-111525501D01*
X152108127Y-111476465D01*
X152214669Y-111405277D01*
X152858651Y-110761293D01*
X152898877Y-110734415D01*
X152931811Y-110720775D01*
X153046542Y-110644114D01*
X153144114Y-110546542D01*
X153220775Y-110431811D01*
X153273580Y-110304328D01*
X153289077Y-110226420D01*
X153300500Y-110168995D01*
X153300500Y-110031004D01*
X153273581Y-109895677D01*
X153273580Y-109895676D01*
X153273580Y-109895672D01*
X153251079Y-109841349D01*
X153220778Y-109768195D01*
X153220771Y-109768182D01*
X153144114Y-109653458D01*
X153144111Y-109653454D01*
X153046545Y-109555888D01*
X153046541Y-109555885D01*
X152931817Y-109479228D01*
X152931804Y-109479221D01*
X152804332Y-109426421D01*
X152804322Y-109426418D01*
X152668995Y-109399500D01*
X152668993Y-109399500D01*
X152531007Y-109399500D01*
X152531005Y-109399500D01*
X152395677Y-109426418D01*
X152395667Y-109426421D01*
X152268195Y-109479221D01*
X152268182Y-109479228D01*
X152153458Y-109555885D01*
X152153454Y-109555888D01*
X152055888Y-109653454D01*
X152055882Y-109653462D01*
X151979226Y-109768186D01*
X151979222Y-109768192D01*
X151965582Y-109801123D01*
X151938703Y-109841349D01*
X151566873Y-110213181D01*
X151505550Y-110246666D01*
X151479192Y-110249500D01*
X147884713Y-110249500D01*
X147837260Y-110240061D01*
X147804328Y-110226420D01*
X147804322Y-110226418D01*
X147668995Y-110199500D01*
X147668993Y-110199500D01*
X147531007Y-110199500D01*
X147531005Y-110199500D01*
X147395677Y-110226418D01*
X147395667Y-110226421D01*
X147268195Y-110279221D01*
X147268182Y-110279228D01*
X147153458Y-110355885D01*
X147153454Y-110355888D01*
X147055888Y-110453454D01*
X147055885Y-110453458D01*
X146979228Y-110568182D01*
X146979221Y-110568195D01*
X146926421Y-110695667D01*
X146926418Y-110695677D01*
X146899500Y-110831004D01*
X146899500Y-110831007D01*
X146899500Y-110968993D01*
X146899500Y-110968995D01*
X146899499Y-110968995D01*
X142700500Y-110968995D01*
X142700500Y-110968993D01*
X142700500Y-110831007D01*
X142700500Y-110831004D01*
X142673581Y-110695677D01*
X142673580Y-110695676D01*
X142673580Y-110695672D01*
X142652224Y-110644114D01*
X142620778Y-110568195D01*
X142620771Y-110568182D01*
X142544114Y-110453458D01*
X142544111Y-110453454D01*
X142446545Y-110355888D01*
X142446537Y-110355882D01*
X142331813Y-110279226D01*
X142331812Y-110279225D01*
X142313521Y-110271649D01*
X142273294Y-110244769D01*
X138448466Y-106419941D01*
X141434500Y-106419941D01*
X141434500Y-106660059D01*
X141444561Y-106723579D01*
X141472063Y-106897222D01*
X141546265Y-107125593D01*
X141655276Y-107339536D01*
X141796414Y-107533796D01*
X141966204Y-107703586D01*
X142160464Y-107844724D01*
X142261543Y-107896226D01*
X142374406Y-107953734D01*
X142374408Y-107953734D01*
X142374411Y-107953736D01*
X142602778Y-108027937D01*
X142839941Y-108065500D01*
X142839942Y-108065500D01*
X143080058Y-108065500D01*
X143080059Y-108065500D01*
X143317222Y-108027937D01*
X143545589Y-107953736D01*
X143759536Y-107844724D01*
X143953796Y-107703586D01*
X144123586Y-107533796D01*
X144264724Y-107339536D01*
X144373736Y-107125589D01*
X144447937Y-106897222D01*
X144485500Y-106660059D01*
X144485500Y-106419941D01*
X146514500Y-106419941D01*
X146514500Y-106660059D01*
X146524561Y-106723579D01*
X146552063Y-106897222D01*
X146626265Y-107125593D01*
X146735276Y-107339536D01*
X146876414Y-107533796D01*
X147046204Y-107703586D01*
X147240464Y-107844724D01*
X147341543Y-107896226D01*
X147454406Y-107953734D01*
X147454408Y-107953734D01*
X147454411Y-107953736D01*
X147682778Y-108027937D01*
X147919941Y-108065500D01*
X147919942Y-108065500D01*
X148160058Y-108065500D01*
X148160059Y-108065500D01*
X148397222Y-108027937D01*
X148625589Y-107953736D01*
X148839536Y-107844724D01*
X149033796Y-107703586D01*
X149203586Y-107533796D01*
X149344724Y-107339536D01*
X149453736Y-107125589D01*
X149527937Y-106897222D01*
X149565500Y-106660059D01*
X149565500Y-106419941D01*
X149527937Y-106182778D01*
X149453736Y-105954411D01*
X149453734Y-105954408D01*
X149453734Y-105954406D01*
X149344723Y-105740463D01*
X149203586Y-105546204D01*
X149033796Y-105376414D01*
X148839536Y-105235276D01*
X148832722Y-105231804D01*
X148625593Y-105126265D01*
X148397222Y-105052063D01*
X148160059Y-105014500D01*
X147919941Y-105014500D01*
X147801359Y-105033281D01*
X147682777Y-105052063D01*
X147454406Y-105126265D01*
X147240463Y-105235276D01*
X147046201Y-105376416D01*
X146876416Y-105546201D01*
X146735276Y-105740463D01*
X146626265Y-105954406D01*
X146552063Y-106182777D01*
X146540730Y-106254332D01*
X146514500Y-106419941D01*
X144485500Y-106419941D01*
X144447937Y-106182778D01*
X144373736Y-105954411D01*
X144373734Y-105954408D01*
X144373734Y-105954406D01*
X144264723Y-105740463D01*
X144123586Y-105546204D01*
X143953796Y-105376414D01*
X143759536Y-105235276D01*
X143752722Y-105231804D01*
X143545593Y-105126265D01*
X143317222Y-105052063D01*
X143080059Y-105014500D01*
X142839941Y-105014500D01*
X142721359Y-105033281D01*
X142602777Y-105052063D01*
X142374406Y-105126265D01*
X142160463Y-105235276D01*
X141966201Y-105376416D01*
X141796416Y-105546201D01*
X141655276Y-105740463D01*
X141546265Y-105954406D01*
X141472063Y-106182777D01*
X141460730Y-106254332D01*
X141434500Y-106419941D01*
X138448466Y-106419941D01*
X138024854Y-105996329D01*
X137991369Y-105935006D01*
X137990946Y-105932978D01*
X137973580Y-105845672D01*
X137930002Y-105740464D01*
X137920778Y-105718195D01*
X137920771Y-105718182D01*
X137844114Y-105603458D01*
X137844111Y-105603454D01*
X137746545Y-105505888D01*
X137746541Y-105505885D01*
X137631817Y-105429228D01*
X137631804Y-105429221D01*
X137504332Y-105376421D01*
X137504322Y-105376418D01*
X137368995Y-105349500D01*
X137368993Y-105349500D01*
X137231007Y-105349500D01*
X137231005Y-105349500D01*
X137095677Y-105376418D01*
X137095667Y-105376421D01*
X136968195Y-105429221D01*
X136968182Y-105429228D01*
X136853458Y-105505885D01*
X136853454Y-105505888D01*
X136755888Y-105603454D01*
X136755885Y-105603458D01*
X136679228Y-105718182D01*
X136679221Y-105718195D01*
X136626421Y-105845667D01*
X136626418Y-105845677D01*
X136599500Y-105981004D01*
X136599500Y-105981007D01*
X136599500Y-106118993D01*
X136599500Y-106118995D01*
X136599499Y-106118995D01*
X132250500Y-106118995D01*
X132250500Y-105410121D01*
X132259939Y-105362668D01*
X132300501Y-105264744D01*
X132325500Y-105139069D01*
X132325500Y-105010931D01*
X132325500Y-105010928D01*
X132300502Y-104885261D01*
X132300501Y-104885260D01*
X132300501Y-104885256D01*
X132251465Y-104766873D01*
X132251464Y-104766872D01*
X132251461Y-104766866D01*
X132180276Y-104660331D01*
X132180273Y-104660327D01*
X132089672Y-104569726D01*
X132089668Y-104569723D01*
X131983133Y-104498538D01*
X131983124Y-104498533D01*
X131864744Y-104449499D01*
X131864738Y-104449497D01*
X131739071Y-104424500D01*
X131739069Y-104424500D01*
X131610931Y-104424500D01*
X131610929Y-104424500D01*
X131485261Y-104449497D01*
X131485255Y-104449499D01*
X131366875Y-104498533D01*
X131366866Y-104498538D01*
X131260331Y-104569723D01*
X131260327Y-104569726D01*
X131169726Y-104660327D01*
X131169723Y-104660331D01*
X131098538Y-104766866D01*
X131098533Y-104766875D01*
X131049499Y-104885255D01*
X131049497Y-104885261D01*
X131024500Y-105010928D01*
X131024500Y-105010931D01*
X131024500Y-105139069D01*
X131024500Y-105139071D01*
X131024499Y-105139071D01*
X131049497Y-105264738D01*
X131049499Y-105264744D01*
X131098532Y-105383122D01*
X131098534Y-105383125D01*
X131098535Y-105383127D01*
X131128603Y-105428127D01*
X131149480Y-105494801D01*
X131149500Y-105497015D01*
X131149500Y-114720612D01*
X131129815Y-114787651D01*
X131113181Y-114808293D01*
X128941239Y-116980234D01*
X128879916Y-117013719D01*
X128877751Y-117014170D01*
X128816175Y-117026418D01*
X128816169Y-117026420D01*
X128688695Y-117079221D01*
X128688682Y-117079228D01*
X128573958Y-117155885D01*
X128573954Y-117155888D01*
X128476388Y-117253454D01*
X128476385Y-117253458D01*
X128399728Y-117368182D01*
X128399721Y-117368195D01*
X128346921Y-117495667D01*
X128346918Y-117495677D01*
X128320000Y-117631004D01*
X128320000Y-117631007D01*
X128320000Y-117768993D01*
X128320000Y-117768995D01*
X128319999Y-117768995D01*
X103500500Y-117768995D01*
X103500500Y-112396530D01*
X106599500Y-112396530D01*
X106599500Y-112603469D01*
X106639868Y-112806412D01*
X106639870Y-112806420D01*
X106719058Y-112997596D01*
X106834024Y-113169657D01*
X106980342Y-113315975D01*
X106980345Y-113315977D01*
X107152402Y-113430941D01*
X107343580Y-113510130D01*
X107546530Y-113550499D01*
X107546534Y-113550500D01*
X107546535Y-113550500D01*
X107753466Y-113550500D01*
X107753467Y-113550499D01*
X107956420Y-113510130D01*
X108147598Y-113430941D01*
X108319655Y-113315977D01*
X108465977Y-113169655D01*
X108580941Y-112997598D01*
X108660130Y-112806420D01*
X108700500Y-112603465D01*
X108700500Y-112409448D01*
X110999500Y-112409448D01*
X110999500Y-112590551D01*
X111027829Y-112769410D01*
X111083787Y-112941636D01*
X111083788Y-112941639D01*
X111113780Y-113000500D01*
X111165989Y-113102965D01*
X111166006Y-113102997D01*
X111272441Y-113249494D01*
X111272445Y-113249499D01*
X111400500Y-113377554D01*
X111400505Y-113377558D01*
X111489028Y-113441873D01*
X111547006Y-113483996D01*
X111598299Y-113510131D01*
X111708360Y-113566211D01*
X111708363Y-113566212D01*
X111750978Y-113580058D01*
X111880591Y-113622171D01*
X111963429Y-113635291D01*
X112059449Y-113650500D01*
X112059454Y-113650500D01*
X112240551Y-113650500D01*
X112327259Y-113636765D01*
X112419409Y-113622171D01*
X112591639Y-113566211D01*
X112752994Y-113483996D01*
X112899501Y-113377553D01*
X113027553Y-113249501D01*
X113133996Y-113102994D01*
X113216211Y-112941639D01*
X113272171Y-112769409D01*
X113289426Y-112660463D01*
X113300500Y-112590551D01*
X113300500Y-112409448D01*
X113273581Y-112239496D01*
X113272171Y-112230591D01*
X113228334Y-112095672D01*
X113216212Y-112058363D01*
X113216211Y-112058360D01*
X113187698Y-112002402D01*
X113133996Y-111897006D01*
X113085562Y-111830342D01*
X113027558Y-111750505D01*
X113027554Y-111750500D01*
X112899499Y-111622445D01*
X112899494Y-111622441D01*
X112752997Y-111516006D01*
X112752996Y-111516005D01*
X112752994Y-111516004D01*
X112675395Y-111476465D01*
X112591639Y-111433788D01*
X112591636Y-111433787D01*
X112419410Y-111377829D01*
X112240551Y-111349500D01*
X112240546Y-111349500D01*
X112059454Y-111349500D01*
X112059449Y-111349500D01*
X111880589Y-111377829D01*
X111708363Y-111433787D01*
X111708360Y-111433788D01*
X111547002Y-111516006D01*
X111400505Y-111622441D01*
X111400500Y-111622445D01*
X111272445Y-111750500D01*
X111272441Y-111750505D01*
X111166006Y-111897002D01*
X111083788Y-112058360D01*
X111083787Y-112058363D01*
X111027829Y-112230589D01*
X110999500Y-112409448D01*
X108700500Y-112409448D01*
X108700500Y-112396535D01*
X108660130Y-112193580D01*
X108580941Y-112002402D01*
X108465977Y-111830345D01*
X108465975Y-111830342D01*
X108319657Y-111684024D01*
X108194653Y-111600500D01*
X108147598Y-111569059D01*
X108042440Y-111525501D01*
X107956420Y-111489870D01*
X107956412Y-111489868D01*
X107753469Y-111449500D01*
X107753465Y-111449500D01*
X107546535Y-111449500D01*
X107546530Y-111449500D01*
X107343587Y-111489868D01*
X107343579Y-111489870D01*
X107152403Y-111569058D01*
X106980342Y-111684024D01*
X106834024Y-111830342D01*
X106719058Y-112002403D01*
X106639870Y-112193579D01*
X106639868Y-112193587D01*
X106599500Y-112396530D01*
X103500500Y-112396530D01*
X103500500Y-105064071D01*
X123849499Y-105064071D01*
X123874497Y-105189738D01*
X123874499Y-105189744D01*
X123923533Y-105308124D01*
X123923534Y-105308126D01*
X123923535Y-105308127D01*
X123928600Y-105315708D01*
X123949480Y-105382383D01*
X123949500Y-105384571D01*
X123949500Y-112872475D01*
X123968033Y-112941639D01*
X123987016Y-113012485D01*
X124051685Y-113124497D01*
X124059489Y-113138013D01*
X124059491Y-113138016D01*
X124866447Y-113944972D01*
X124893327Y-113985200D01*
X124923533Y-114058123D01*
X124923538Y-114058133D01*
X124994723Y-114164668D01*
X124994726Y-114164672D01*
X125085327Y-114255273D01*
X125085331Y-114255276D01*
X125191866Y-114326461D01*
X125191872Y-114326464D01*
X125191873Y-114326465D01*
X125310256Y-114375501D01*
X125310260Y-114375501D01*
X125310261Y-114375502D01*
X125435928Y-114400500D01*
X125435931Y-114400500D01*
X125564071Y-114400500D01*
X125648615Y-114383682D01*
X125689744Y-114375501D01*
X125808127Y-114326465D01*
X125914669Y-114255276D01*
X126005276Y-114164669D01*
X126076465Y-114058127D01*
X126125501Y-113939744D01*
X126150500Y-113814069D01*
X126150500Y-113685931D01*
X126150500Y-113685928D01*
X126125502Y-113560261D01*
X126125501Y-113560260D01*
X126125501Y-113560256D01*
X126076465Y-113441873D01*
X126076464Y-113441872D01*
X126076461Y-113441866D01*
X126005276Y-113335331D01*
X126005273Y-113335327D01*
X125914672Y-113244726D01*
X125914668Y-113244723D01*
X125808133Y-113173538D01*
X125808124Y-113173533D01*
X125689742Y-113124498D01*
X125689738Y-113124497D01*
X125618381Y-113110303D01*
X125556470Y-113077918D01*
X125554892Y-113076367D01*
X125086819Y-112608294D01*
X125053334Y-112546971D01*
X125050500Y-112520613D01*
X125050500Y-105384600D01*
X125070185Y-105317561D01*
X125071359Y-105315768D01*
X125076465Y-105308127D01*
X125125501Y-105189744D01*
X125150500Y-105064069D01*
X125150500Y-104935931D01*
X125150500Y-104935928D01*
X125125502Y-104810261D01*
X125125501Y-104810260D01*
X125125501Y-104810256D01*
X125076465Y-104691873D01*
X125076464Y-104691872D01*
X125076461Y-104691866D01*
X125005276Y-104585331D01*
X125005273Y-104585327D01*
X124914672Y-104494726D01*
X124914668Y-104494723D01*
X124808133Y-104423538D01*
X124808124Y-104423533D01*
X124689744Y-104374499D01*
X124689738Y-104374497D01*
X124564071Y-104349500D01*
X124564069Y-104349500D01*
X124435931Y-104349500D01*
X124435929Y-104349500D01*
X124310261Y-104374497D01*
X124310255Y-104374499D01*
X124191875Y-104423533D01*
X124191866Y-104423538D01*
X124085331Y-104494723D01*
X124085327Y-104494726D01*
X123994726Y-104585327D01*
X123994723Y-104585331D01*
X123923538Y-104691866D01*
X123923533Y-104691875D01*
X123874499Y-104810255D01*
X123874497Y-104810261D01*
X123849500Y-104935928D01*
X123849500Y-104935931D01*
X123849500Y-105064069D01*
X123849500Y-105064071D01*
X123849499Y-105064071D01*
X103500500Y-105064071D01*
X103500500Y-103887805D01*
X144074500Y-103887805D01*
X144074500Y-104112194D01*
X144109599Y-104333805D01*
X144178938Y-104547206D01*
X144280805Y-104747128D01*
X144412683Y-104928644D01*
X144412687Y-104928649D01*
X144571350Y-105087312D01*
X144571355Y-105087316D01*
X144712328Y-105189738D01*
X144752875Y-105219197D01*
X144842266Y-105264744D01*
X144952793Y-105321061D01*
X144952795Y-105321061D01*
X144952798Y-105321063D01*
X145032581Y-105346986D01*
X145166194Y-105390400D01*
X145387806Y-105425500D01*
X145387811Y-105425500D01*
X145612194Y-105425500D01*
X145833805Y-105390400D01*
X146047202Y-105321063D01*
X146247125Y-105219197D01*
X146428651Y-105087311D01*
X146587311Y-104928651D01*
X146719197Y-104747125D01*
X146821063Y-104547202D01*
X146890400Y-104333805D01*
X146899044Y-104279228D01*
X146925500Y-104112194D01*
X146925500Y-103887805D01*
X146890400Y-103666194D01*
X146821061Y-103452793D01*
X146784105Y-103380264D01*
X146719197Y-103252875D01*
X146702347Y-103229683D01*
X146587316Y-103071355D01*
X146587312Y-103071350D01*
X146428649Y-102912687D01*
X146428644Y-102912683D01*
X146247128Y-102780805D01*
X146247127Y-102780804D01*
X146247125Y-102780803D01*
X146184692Y-102748992D01*
X146047206Y-102678938D01*
X145833805Y-102609599D01*
X145612194Y-102574500D01*
X145612189Y-102574500D01*
X145387811Y-102574500D01*
X145387806Y-102574500D01*
X145166194Y-102609599D01*
X144952793Y-102678938D01*
X144752871Y-102780805D01*
X144571355Y-102912683D01*
X144571350Y-102912687D01*
X144412687Y-103071350D01*
X144412683Y-103071355D01*
X144280805Y-103252871D01*
X144178938Y-103452793D01*
X144109599Y-103666194D01*
X144074500Y-103887805D01*
X103500500Y-103887805D01*
X103500500Y-101339941D01*
X141434500Y-101339941D01*
X141434500Y-101580058D01*
X141472063Y-101817222D01*
X141546265Y-102045593D01*
X141655276Y-102259536D01*
X141796414Y-102453796D01*
X141966204Y-102623586D01*
X142160464Y-102764724D01*
X142192021Y-102780803D01*
X142374406Y-102873734D01*
X142374408Y-102873734D01*
X142374411Y-102873736D01*
X142602778Y-102947937D01*
X142839941Y-102985500D01*
X142839942Y-102985500D01*
X143080058Y-102985500D01*
X143080059Y-102985500D01*
X143317222Y-102947937D01*
X143545589Y-102873736D01*
X143759536Y-102764724D01*
X143953796Y-102623586D01*
X144123586Y-102453796D01*
X144264724Y-102259536D01*
X144373736Y-102045589D01*
X144447937Y-101817222D01*
X144485500Y-101580059D01*
X144485500Y-101339941D01*
X146514500Y-101339941D01*
X146514500Y-101580058D01*
X146552063Y-101817222D01*
X146626265Y-102045593D01*
X146735276Y-102259536D01*
X146876414Y-102453796D01*
X147046204Y-102623586D01*
X147240464Y-102764724D01*
X147272021Y-102780803D01*
X147454406Y-102873734D01*
X147454408Y-102873734D01*
X147454411Y-102873736D01*
X147682778Y-102947937D01*
X147919941Y-102985500D01*
X147919942Y-102985500D01*
X148160058Y-102985500D01*
X148160059Y-102985500D01*
X148397222Y-102947937D01*
X148625589Y-102873736D01*
X148839536Y-102764724D01*
X149033796Y-102623586D01*
X149203586Y-102453796D01*
X149344724Y-102259536D01*
X149453736Y-102045589D01*
X149527937Y-101817222D01*
X149565500Y-101580059D01*
X149565500Y-101339941D01*
X149527937Y-101102778D01*
X149453736Y-100874411D01*
X149453734Y-100874408D01*
X149453734Y-100874406D01*
X149344723Y-100660463D01*
X149294969Y-100591982D01*
X149203586Y-100466204D01*
X149033796Y-100296414D01*
X148839536Y-100155276D01*
X148625593Y-100046265D01*
X148397222Y-99972063D01*
X148160059Y-99934500D01*
X147919941Y-99934500D01*
X147801359Y-99953281D01*
X147682777Y-99972063D01*
X147454406Y-100046265D01*
X147240463Y-100155276D01*
X147046201Y-100296416D01*
X146876416Y-100466201D01*
X146735276Y-100660463D01*
X146626265Y-100874406D01*
X146552063Y-101102777D01*
X146514500Y-101339941D01*
X144485500Y-101339941D01*
X144447937Y-101102778D01*
X144373736Y-100874411D01*
X144373734Y-100874408D01*
X144373734Y-100874406D01*
X144264723Y-100660463D01*
X144214969Y-100591982D01*
X144123586Y-100466204D01*
X143953796Y-100296414D01*
X143759536Y-100155276D01*
X143545593Y-100046265D01*
X143317222Y-99972063D01*
X143080059Y-99934500D01*
X142839941Y-99934500D01*
X142721359Y-99953281D01*
X142602777Y-99972063D01*
X142374406Y-100046265D01*
X142160463Y-100155276D01*
X141966201Y-100296416D01*
X141796416Y-100466201D01*
X141655276Y-100660463D01*
X141546265Y-100874406D01*
X141472063Y-101102777D01*
X141434500Y-101339941D01*
X103500500Y-101339941D01*
X103500500Y-99867156D01*
X103520185Y-99800117D01*
X103572989Y-99754362D01*
X103642147Y-99744418D01*
X103705703Y-99773443D01*
X103720349Y-99788487D01*
X103729894Y-99800117D01*
X103828993Y-99920870D01*
X104079130Y-100171007D01*
X104079135Y-100171011D01*
X104079136Y-100171012D01*
X104352598Y-100395436D01*
X104646741Y-100591976D01*
X104646750Y-100591981D01*
X104646752Y-100591982D01*
X104958723Y-100758735D01*
X104958725Y-100758735D01*
X104958731Y-100758739D01*
X105285565Y-100894118D01*
X105624095Y-100996809D01*
X105624101Y-100996810D01*
X105624104Y-100996811D01*
X105624115Y-100996814D01*
X105841674Y-101040088D01*
X105971060Y-101065825D01*
X106323119Y-101100500D01*
X106323122Y-101100500D01*
X106676878Y-101100500D01*
X106676881Y-101100500D01*
X107028940Y-101065825D01*
X107200679Y-101031663D01*
X107375884Y-100996814D01*
X107375895Y-100996811D01*
X107375895Y-100996810D01*
X107375905Y-100996809D01*
X107714435Y-100894118D01*
X108041269Y-100758739D01*
X108353259Y-100591976D01*
X108647402Y-100395436D01*
X108920864Y-100171012D01*
X109171012Y-99920864D01*
X109395436Y-99647402D01*
X109591976Y-99353259D01*
X109758739Y-99041269D01*
X109820518Y-98892120D01*
X109864357Y-98837718D01*
X109930652Y-98815653D01*
X109998351Y-98832932D01*
G37*
G04 #@! TD.AperFunction*
M02*
