%TF.GenerationSoftware,KiCad,Pcbnew,9.0.7*%
%TF.CreationDate,2026-03-08T21:18:41+01:00*%
%TF.ProjectId,LightspeedLaserDriver,4c696768-7473-4706-9565-644c61736572,rev?*%
%TF.SameCoordinates,Original*%
%TF.FileFunction,Drillmap*%
%TF.FilePolarity,Positive*%
%FSLAX45Y45*%
G04 Gerber Fmt 4.5, Leading zero omitted, Abs format (unit mm)*
G04 Created by KiCad (PCBNEW 9.0.7) date 2026-03-08 21:18:41*
%MOMM*%
%LPD*%
G01*
G04 APERTURE LIST*
%ADD10C,0.100000*%
%ADD11C,0.200000*%
%ADD12C,0.150000*%
%ADD13C,0.170000*%
G04 APERTURE END LIST*
D10*
X15150000Y-9900000D02*
X11150000Y-9900000D01*
X16000000Y-12250000D02*
X16000000Y-9750000D01*
X11150000Y-12100000D02*
X15150000Y-12100000D01*
X11000000Y-12250000D02*
G75*
G02*
X10300000Y-12250000I-350000J0D01*
G01*
X16000000Y-12250000D02*
G75*
G02*
X15300000Y-12250000I-350000J0D01*
G01*
X15300000Y-9750000D02*
G75*
G02*
X16000000Y-9750000I350000J0D01*
G01*
X15150000Y-12100000D02*
G75*
G02*
X15300000Y-12250000I0J-150000D01*
G01*
X11000000Y-12250000D02*
G75*
G02*
X11150000Y-12100000I150000J0D01*
G01*
X11150000Y-9900000D02*
G75*
G02*
X11000000Y-9750000I0J150000D01*
G01*
X10300000Y-9750000D02*
G75*
G02*
X11000000Y-9750000I350000J0D01*
G01*
X10300000Y-9750000D02*
X10300000Y-12250000D01*
X15300000Y-9750000D02*
G75*
G02*
X15150000Y-9900000I-150000J0D01*
G01*
D11*
D10*
X10478693Y-11467095D02*
X10508693Y-11497095D01*
X10508693Y-11467095D02*
X10478693Y-11497095D01*
X10485000Y-10485000D02*
X10515000Y-10515000D01*
X10515000Y-10485000D02*
X10485000Y-10515000D01*
X10485000Y-10985000D02*
X10515000Y-11015000D01*
X10515000Y-10985000D02*
X10485000Y-11015000D01*
X10735000Y-10235000D02*
X10765000Y-10265000D01*
X10765000Y-10235000D02*
X10735000Y-10265000D01*
X10985000Y-9985000D02*
X11015000Y-10015000D01*
X11015000Y-9985000D02*
X10985000Y-10015000D01*
X10985000Y-10485000D02*
X11015000Y-10515000D01*
X11015000Y-10485000D02*
X10985000Y-10515000D01*
X10985000Y-10985000D02*
X11015000Y-11015000D01*
X11015000Y-10985000D02*
X10985000Y-11015000D01*
X10985000Y-11485000D02*
X11015000Y-11515000D01*
X11015000Y-11485000D02*
X10985000Y-11515000D01*
X10985000Y-11985000D02*
X11015000Y-12015000D01*
X11015000Y-11985000D02*
X10985000Y-12015000D01*
X11385000Y-9985000D02*
X11415000Y-10015000D01*
X11415000Y-9985000D02*
X11385000Y-10015000D01*
X11485000Y-10985000D02*
X11515000Y-11015000D01*
X11515000Y-10985000D02*
X11485000Y-11015000D01*
X11485000Y-11485000D02*
X11515000Y-11515000D01*
X11515000Y-11485000D02*
X11485000Y-11515000D01*
X11485000Y-11985000D02*
X11515000Y-12015000D01*
X11515000Y-11985000D02*
X11485000Y-12015000D01*
X11735000Y-9985000D02*
X11765000Y-10015000D01*
X11765000Y-9985000D02*
X11735000Y-10015000D01*
X11985000Y-11485000D02*
X12015000Y-11515000D01*
X12015000Y-11485000D02*
X11985000Y-11515000D01*
X11985000Y-11985000D02*
X12015000Y-12015000D01*
X12015000Y-11985000D02*
X11985000Y-12015000D01*
X12110000Y-9985000D02*
X12140000Y-10015000D01*
X12140000Y-9985000D02*
X12110000Y-10015000D01*
X12310000Y-10635000D02*
X12340000Y-10665000D01*
X12340000Y-10635000D02*
X12310000Y-10665000D01*
X12365000Y-9985000D02*
X12395000Y-10015000D01*
X12395000Y-9985000D02*
X12365000Y-10015000D01*
X12435000Y-10485000D02*
X12465000Y-10515000D01*
X12465000Y-10485000D02*
X12435000Y-10515000D01*
X12485000Y-11985000D02*
X12515000Y-12015000D01*
X12515000Y-11985000D02*
X12485000Y-12015000D01*
X12535000Y-11360000D02*
X12565000Y-11390000D01*
X12565000Y-11360000D02*
X12535000Y-11390000D01*
X12685000Y-9985000D02*
X12715000Y-10015000D01*
X12715000Y-9985000D02*
X12685000Y-10015000D01*
X12685000Y-10635000D02*
X12715000Y-10665000D01*
X12715000Y-10635000D02*
X12685000Y-10665000D01*
X12735000Y-11735000D02*
X12765000Y-11765000D01*
X12765000Y-11735000D02*
X12735000Y-11765000D01*
X12887050Y-11755000D02*
X12917050Y-11785000D01*
X12917050Y-11755000D02*
X12887050Y-11785000D01*
X12985000Y-9985000D02*
X13015000Y-10015000D01*
X13015000Y-9985000D02*
X12985000Y-10015000D01*
X12985000Y-11985000D02*
X13015000Y-12015000D01*
X13015000Y-11985000D02*
X12985000Y-12015000D01*
X13152500Y-10492500D02*
X13182500Y-10522500D01*
X13182500Y-10492500D02*
X13152500Y-10522500D01*
X13485000Y-9985000D02*
X13515000Y-10015000D01*
X13515000Y-9985000D02*
X13485000Y-10015000D01*
X13485000Y-11985000D02*
X13515000Y-12015000D01*
X13515000Y-11985000D02*
X13485000Y-12015000D01*
X13715000Y-10590000D02*
X13745000Y-10620000D01*
X13745000Y-10590000D02*
X13715000Y-10620000D01*
X13985000Y-9985000D02*
X14015000Y-10015000D01*
X14015000Y-9985000D02*
X13985000Y-10015000D01*
X13985000Y-10485000D02*
X14015000Y-10515000D01*
X14015000Y-10485000D02*
X13985000Y-10515000D01*
X13985000Y-10985000D02*
X14015000Y-11015000D01*
X14015000Y-10985000D02*
X13985000Y-11015000D01*
X13985000Y-11485000D02*
X14015000Y-11515000D01*
X14015000Y-11485000D02*
X13985000Y-11515000D01*
X13985000Y-11985000D02*
X14015000Y-12015000D01*
X14015000Y-11985000D02*
X13985000Y-12015000D01*
X14185000Y-11075000D02*
X14215000Y-11105000D01*
X14215000Y-11075000D02*
X14185000Y-11105000D01*
X14285000Y-10385000D02*
X14315000Y-10415000D01*
X14315000Y-10385000D02*
X14285000Y-10415000D01*
X14285000Y-11585000D02*
X14315000Y-11615000D01*
X14315000Y-11585000D02*
X14285000Y-11615000D01*
X14485000Y-9985000D02*
X14515000Y-10015000D01*
X14515000Y-9985000D02*
X14485000Y-10015000D01*
X14485000Y-10735000D02*
X14515000Y-10765000D01*
X14515000Y-10735000D02*
X14485000Y-10765000D01*
X14485000Y-11235000D02*
X14515000Y-11265000D01*
X14515000Y-11235000D02*
X14485000Y-11265000D01*
X14485000Y-11985000D02*
X14515000Y-12015000D01*
X14515000Y-11985000D02*
X14485000Y-12015000D01*
X14745000Y-11075000D02*
X14775000Y-11105000D01*
X14775000Y-11075000D02*
X14745000Y-11105000D01*
X14835000Y-10985000D02*
X14865000Y-11015000D01*
X14865000Y-10985000D02*
X14835000Y-11015000D01*
X14985000Y-11485000D02*
X15015000Y-11515000D01*
X15015000Y-11485000D02*
X14985000Y-11515000D01*
X14985000Y-11985000D02*
X15015000Y-12015000D01*
X15015000Y-11985000D02*
X14985000Y-12015000D01*
X15245000Y-10995000D02*
X15275000Y-11025000D01*
X15275000Y-10995000D02*
X15245000Y-11025000D01*
X15285000Y-10385000D02*
X15315000Y-10415000D01*
X15315000Y-10385000D02*
X15285000Y-10415000D01*
X15455000Y-11215000D02*
X15485000Y-11245000D01*
X15485000Y-11215000D02*
X15455000Y-11245000D01*
X15485000Y-10235000D02*
X15515000Y-10265000D01*
X15515000Y-10235000D02*
X15485000Y-10265000D01*
X15485000Y-10475000D02*
X15515000Y-10505000D01*
X15515000Y-10475000D02*
X15485000Y-10505000D01*
X15485000Y-11735000D02*
X15515000Y-11765000D01*
X15515000Y-11735000D02*
X15485000Y-11765000D01*
X15735000Y-10235000D02*
X15765000Y-10265000D01*
X15765000Y-10235000D02*
X15735000Y-10265000D01*
X15735000Y-11485000D02*
X15765000Y-11515000D01*
X15765000Y-11485000D02*
X15735000Y-11515000D01*
X15735000Y-11735000D02*
X15765000Y-11765000D01*
X15765000Y-11735000D02*
X15735000Y-11765000D01*
X15485000Y-11450000D02*
G75*
G02*
X15455000Y-11450000I-15000J0D01*
G01*
X15455000Y-11450000D02*
G75*
G02*
X15485000Y-11450000I15000J0D01*
G01*
D12*
X14550000Y-10325000D02*
X14550000Y-10475000D01*
X14475000Y-10400000D02*
X14625000Y-10400000D01*
X14550000Y-11525000D02*
X14550000Y-11675000D01*
X14475000Y-11600000D02*
X14625000Y-11600000D01*
D13*
X14356105Y-10206105D02*
X14356105Y-10085895D01*
X14235895Y-10085895D01*
X14235895Y-10206105D01*
X14356105Y-10206105D01*
X14356105Y-10714105D02*
X14356105Y-10593895D01*
X14235895Y-10593895D01*
X14235895Y-10714105D01*
X14356105Y-10714105D01*
X14356105Y-11406105D02*
X14356105Y-11285895D01*
X14235895Y-11285895D01*
X14235895Y-11406105D01*
X14356105Y-11406105D01*
X14356105Y-11914105D02*
X14356105Y-11793895D01*
X14235895Y-11793895D01*
X14235895Y-11914105D01*
X14356105Y-11914105D01*
X14864105Y-10206105D02*
X14864105Y-10085895D01*
X14743895Y-10085895D01*
X14743895Y-10206105D01*
X14864105Y-10206105D01*
X14864105Y-10714105D02*
X14864105Y-10593895D01*
X14743895Y-10593895D01*
X14743895Y-10714105D01*
X14864105Y-10714105D01*
X14864105Y-11406105D02*
X14864105Y-11285895D01*
X14743895Y-11285895D01*
X14743895Y-11406105D01*
X14864105Y-11406105D01*
X14864105Y-11914105D02*
X14864105Y-11793895D01*
X14743895Y-11793895D01*
X14743895Y-11914105D01*
X14864105Y-11914105D01*
D11*
X10555777Y-12916484D02*
X10555777Y-12716484D01*
X10555777Y-12716484D02*
X10603396Y-12716484D01*
X10603396Y-12716484D02*
X10631967Y-12726008D01*
X10631967Y-12726008D02*
X10651015Y-12745055D01*
X10651015Y-12745055D02*
X10660539Y-12764103D01*
X10660539Y-12764103D02*
X10670063Y-12802198D01*
X10670063Y-12802198D02*
X10670063Y-12830769D01*
X10670063Y-12830769D02*
X10660539Y-12868865D01*
X10660539Y-12868865D02*
X10651015Y-12887912D01*
X10651015Y-12887912D02*
X10631967Y-12906960D01*
X10631967Y-12906960D02*
X10603396Y-12916484D01*
X10603396Y-12916484D02*
X10555777Y-12916484D01*
X10755777Y-12916484D02*
X10755777Y-12783150D01*
X10755777Y-12821246D02*
X10765301Y-12802198D01*
X10765301Y-12802198D02*
X10774824Y-12792674D01*
X10774824Y-12792674D02*
X10793872Y-12783150D01*
X10793872Y-12783150D02*
X10812920Y-12783150D01*
X10879586Y-12916484D02*
X10879586Y-12783150D01*
X10879586Y-12716484D02*
X10870063Y-12726008D01*
X10870063Y-12726008D02*
X10879586Y-12735531D01*
X10879586Y-12735531D02*
X10889110Y-12726008D01*
X10889110Y-12726008D02*
X10879586Y-12716484D01*
X10879586Y-12716484D02*
X10879586Y-12735531D01*
X11003396Y-12916484D02*
X10984348Y-12906960D01*
X10984348Y-12906960D02*
X10974824Y-12887912D01*
X10974824Y-12887912D02*
X10974824Y-12716484D01*
X11108158Y-12916484D02*
X11089110Y-12906960D01*
X11089110Y-12906960D02*
X11079586Y-12887912D01*
X11079586Y-12887912D02*
X11079586Y-12716484D01*
X11336729Y-12916484D02*
X11336729Y-12716484D01*
X11336729Y-12716484D02*
X11403396Y-12859341D01*
X11403396Y-12859341D02*
X11470062Y-12716484D01*
X11470062Y-12716484D02*
X11470062Y-12916484D01*
X11651015Y-12916484D02*
X11651015Y-12811722D01*
X11651015Y-12811722D02*
X11641491Y-12792674D01*
X11641491Y-12792674D02*
X11622443Y-12783150D01*
X11622443Y-12783150D02*
X11584348Y-12783150D01*
X11584348Y-12783150D02*
X11565301Y-12792674D01*
X11651015Y-12906960D02*
X11631967Y-12916484D01*
X11631967Y-12916484D02*
X11584348Y-12916484D01*
X11584348Y-12916484D02*
X11565301Y-12906960D01*
X11565301Y-12906960D02*
X11555777Y-12887912D01*
X11555777Y-12887912D02*
X11555777Y-12868865D01*
X11555777Y-12868865D02*
X11565301Y-12849817D01*
X11565301Y-12849817D02*
X11584348Y-12840293D01*
X11584348Y-12840293D02*
X11631967Y-12840293D01*
X11631967Y-12840293D02*
X11651015Y-12830769D01*
X11746253Y-12783150D02*
X11746253Y-12983150D01*
X11746253Y-12792674D02*
X11765301Y-12783150D01*
X11765301Y-12783150D02*
X11803396Y-12783150D01*
X11803396Y-12783150D02*
X11822443Y-12792674D01*
X11822443Y-12792674D02*
X11831967Y-12802198D01*
X11831967Y-12802198D02*
X11841491Y-12821246D01*
X11841491Y-12821246D02*
X11841491Y-12878388D01*
X11841491Y-12878388D02*
X11831967Y-12897436D01*
X11831967Y-12897436D02*
X11822443Y-12906960D01*
X11822443Y-12906960D02*
X11803396Y-12916484D01*
X11803396Y-12916484D02*
X11765301Y-12916484D01*
X11765301Y-12916484D02*
X11746253Y-12906960D01*
X11927205Y-12897436D02*
X11936729Y-12906960D01*
X11936729Y-12906960D02*
X11927205Y-12916484D01*
X11927205Y-12916484D02*
X11917682Y-12906960D01*
X11917682Y-12906960D02*
X11927205Y-12897436D01*
X11927205Y-12897436D02*
X11927205Y-12916484D01*
X11927205Y-12792674D02*
X11936729Y-12802198D01*
X11936729Y-12802198D02*
X11927205Y-12811722D01*
X11927205Y-12811722D02*
X11917682Y-12802198D01*
X11917682Y-12802198D02*
X11927205Y-12792674D01*
X11927205Y-12792674D02*
X11927205Y-12811722D01*
D10*
X10265000Y-13230000D02*
X10295000Y-13260000D01*
X10295000Y-13230000D02*
X10265000Y-13260000D01*
D11*
X10593872Y-13136484D02*
X10612920Y-13136484D01*
X10612920Y-13136484D02*
X10631967Y-13146008D01*
X10631967Y-13146008D02*
X10641491Y-13155531D01*
X10641491Y-13155531D02*
X10651015Y-13174579D01*
X10651015Y-13174579D02*
X10660539Y-13212674D01*
X10660539Y-13212674D02*
X10660539Y-13260293D01*
X10660539Y-13260293D02*
X10651015Y-13298388D01*
X10651015Y-13298388D02*
X10641491Y-13317436D01*
X10641491Y-13317436D02*
X10631967Y-13326960D01*
X10631967Y-13326960D02*
X10612920Y-13336484D01*
X10612920Y-13336484D02*
X10593872Y-13336484D01*
X10593872Y-13336484D02*
X10574824Y-13326960D01*
X10574824Y-13326960D02*
X10565301Y-13317436D01*
X10565301Y-13317436D02*
X10555777Y-13298388D01*
X10555777Y-13298388D02*
X10546253Y-13260293D01*
X10546253Y-13260293D02*
X10546253Y-13212674D01*
X10546253Y-13212674D02*
X10555777Y-13174579D01*
X10555777Y-13174579D02*
X10565301Y-13155531D01*
X10565301Y-13155531D02*
X10574824Y-13146008D01*
X10574824Y-13146008D02*
X10593872Y-13136484D01*
X10746253Y-13317436D02*
X10755777Y-13326960D01*
X10755777Y-13326960D02*
X10746253Y-13336484D01*
X10746253Y-13336484D02*
X10736729Y-13326960D01*
X10736729Y-13326960D02*
X10746253Y-13317436D01*
X10746253Y-13317436D02*
X10746253Y-13336484D01*
X10822444Y-13136484D02*
X10946253Y-13136484D01*
X10946253Y-13136484D02*
X10879586Y-13212674D01*
X10879586Y-13212674D02*
X10908158Y-13212674D01*
X10908158Y-13212674D02*
X10927205Y-13222198D01*
X10927205Y-13222198D02*
X10936729Y-13231722D01*
X10936729Y-13231722D02*
X10946253Y-13250769D01*
X10946253Y-13250769D02*
X10946253Y-13298388D01*
X10946253Y-13298388D02*
X10936729Y-13317436D01*
X10936729Y-13317436D02*
X10927205Y-13326960D01*
X10927205Y-13326960D02*
X10908158Y-13336484D01*
X10908158Y-13336484D02*
X10851015Y-13336484D01*
X10851015Y-13336484D02*
X10831967Y-13326960D01*
X10831967Y-13326960D02*
X10822444Y-13317436D01*
X11070063Y-13136484D02*
X11089110Y-13136484D01*
X11089110Y-13136484D02*
X11108158Y-13146008D01*
X11108158Y-13146008D02*
X11117682Y-13155531D01*
X11117682Y-13155531D02*
X11127205Y-13174579D01*
X11127205Y-13174579D02*
X11136729Y-13212674D01*
X11136729Y-13212674D02*
X11136729Y-13260293D01*
X11136729Y-13260293D02*
X11127205Y-13298388D01*
X11127205Y-13298388D02*
X11117682Y-13317436D01*
X11117682Y-13317436D02*
X11108158Y-13326960D01*
X11108158Y-13326960D02*
X11089110Y-13336484D01*
X11089110Y-13336484D02*
X11070063Y-13336484D01*
X11070063Y-13336484D02*
X11051015Y-13326960D01*
X11051015Y-13326960D02*
X11041491Y-13317436D01*
X11041491Y-13317436D02*
X11031967Y-13298388D01*
X11031967Y-13298388D02*
X11022444Y-13260293D01*
X11022444Y-13260293D02*
X11022444Y-13212674D01*
X11022444Y-13212674D02*
X11031967Y-13174579D01*
X11031967Y-13174579D02*
X11041491Y-13155531D01*
X11041491Y-13155531D02*
X11051015Y-13146008D01*
X11051015Y-13146008D02*
X11070063Y-13136484D01*
X11260539Y-13136484D02*
X11279586Y-13136484D01*
X11279586Y-13136484D02*
X11298634Y-13146008D01*
X11298634Y-13146008D02*
X11308158Y-13155531D01*
X11308158Y-13155531D02*
X11317682Y-13174579D01*
X11317682Y-13174579D02*
X11327205Y-13212674D01*
X11327205Y-13212674D02*
X11327205Y-13260293D01*
X11327205Y-13260293D02*
X11317682Y-13298388D01*
X11317682Y-13298388D02*
X11308158Y-13317436D01*
X11308158Y-13317436D02*
X11298634Y-13326960D01*
X11298634Y-13326960D02*
X11279586Y-13336484D01*
X11279586Y-13336484D02*
X11260539Y-13336484D01*
X11260539Y-13336484D02*
X11241491Y-13326960D01*
X11241491Y-13326960D02*
X11231967Y-13317436D01*
X11231967Y-13317436D02*
X11222443Y-13298388D01*
X11222443Y-13298388D02*
X11212920Y-13260293D01*
X11212920Y-13260293D02*
X11212920Y-13212674D01*
X11212920Y-13212674D02*
X11222443Y-13174579D01*
X11222443Y-13174579D02*
X11231967Y-13155531D01*
X11231967Y-13155531D02*
X11241491Y-13146008D01*
X11241491Y-13146008D02*
X11260539Y-13136484D01*
X11412920Y-13336484D02*
X11412920Y-13203150D01*
X11412920Y-13222198D02*
X11422443Y-13212674D01*
X11422443Y-13212674D02*
X11441491Y-13203150D01*
X11441491Y-13203150D02*
X11470063Y-13203150D01*
X11470063Y-13203150D02*
X11489110Y-13212674D01*
X11489110Y-13212674D02*
X11498634Y-13231722D01*
X11498634Y-13231722D02*
X11498634Y-13336484D01*
X11498634Y-13231722D02*
X11508158Y-13212674D01*
X11508158Y-13212674D02*
X11527205Y-13203150D01*
X11527205Y-13203150D02*
X11555777Y-13203150D01*
X11555777Y-13203150D02*
X11574824Y-13212674D01*
X11574824Y-13212674D02*
X11584348Y-13231722D01*
X11584348Y-13231722D02*
X11584348Y-13336484D01*
X11679586Y-13336484D02*
X11679586Y-13203150D01*
X11679586Y-13222198D02*
X11689110Y-13212674D01*
X11689110Y-13212674D02*
X11708158Y-13203150D01*
X11708158Y-13203150D02*
X11736729Y-13203150D01*
X11736729Y-13203150D02*
X11755777Y-13212674D01*
X11755777Y-13212674D02*
X11765301Y-13231722D01*
X11765301Y-13231722D02*
X11765301Y-13336484D01*
X11765301Y-13231722D02*
X11774824Y-13212674D01*
X11774824Y-13212674D02*
X11793872Y-13203150D01*
X11793872Y-13203150D02*
X11822443Y-13203150D01*
X11822443Y-13203150D02*
X11841491Y-13212674D01*
X11841491Y-13212674D02*
X11851015Y-13231722D01*
X11851015Y-13231722D02*
X11851015Y-13336484D01*
X12241491Y-13126960D02*
X12070063Y-13384103D01*
X12498634Y-13136484D02*
X12517682Y-13136484D01*
X12517682Y-13136484D02*
X12536729Y-13146008D01*
X12536729Y-13146008D02*
X12546253Y-13155531D01*
X12546253Y-13155531D02*
X12555777Y-13174579D01*
X12555777Y-13174579D02*
X12565301Y-13212674D01*
X12565301Y-13212674D02*
X12565301Y-13260293D01*
X12565301Y-13260293D02*
X12555777Y-13298388D01*
X12555777Y-13298388D02*
X12546253Y-13317436D01*
X12546253Y-13317436D02*
X12536729Y-13326960D01*
X12536729Y-13326960D02*
X12517682Y-13336484D01*
X12517682Y-13336484D02*
X12498634Y-13336484D01*
X12498634Y-13336484D02*
X12479586Y-13326960D01*
X12479586Y-13326960D02*
X12470063Y-13317436D01*
X12470063Y-13317436D02*
X12460539Y-13298388D01*
X12460539Y-13298388D02*
X12451015Y-13260293D01*
X12451015Y-13260293D02*
X12451015Y-13212674D01*
X12451015Y-13212674D02*
X12460539Y-13174579D01*
X12460539Y-13174579D02*
X12470063Y-13155531D01*
X12470063Y-13155531D02*
X12479586Y-13146008D01*
X12479586Y-13146008D02*
X12498634Y-13136484D01*
X12651015Y-13317436D02*
X12660539Y-13326960D01*
X12660539Y-13326960D02*
X12651015Y-13336484D01*
X12651015Y-13336484D02*
X12641491Y-13326960D01*
X12641491Y-13326960D02*
X12651015Y-13317436D01*
X12651015Y-13317436D02*
X12651015Y-13336484D01*
X12784348Y-13136484D02*
X12803396Y-13136484D01*
X12803396Y-13136484D02*
X12822444Y-13146008D01*
X12822444Y-13146008D02*
X12831967Y-13155531D01*
X12831967Y-13155531D02*
X12841491Y-13174579D01*
X12841491Y-13174579D02*
X12851015Y-13212674D01*
X12851015Y-13212674D02*
X12851015Y-13260293D01*
X12851015Y-13260293D02*
X12841491Y-13298388D01*
X12841491Y-13298388D02*
X12831967Y-13317436D01*
X12831967Y-13317436D02*
X12822444Y-13326960D01*
X12822444Y-13326960D02*
X12803396Y-13336484D01*
X12803396Y-13336484D02*
X12784348Y-13336484D01*
X12784348Y-13336484D02*
X12765301Y-13326960D01*
X12765301Y-13326960D02*
X12755777Y-13317436D01*
X12755777Y-13317436D02*
X12746253Y-13298388D01*
X12746253Y-13298388D02*
X12736729Y-13260293D01*
X12736729Y-13260293D02*
X12736729Y-13212674D01*
X12736729Y-13212674D02*
X12746253Y-13174579D01*
X12746253Y-13174579D02*
X12755777Y-13155531D01*
X12755777Y-13155531D02*
X12765301Y-13146008D01*
X12765301Y-13146008D02*
X12784348Y-13136484D01*
X13041491Y-13336484D02*
X12927206Y-13336484D01*
X12984348Y-13336484D02*
X12984348Y-13136484D01*
X12984348Y-13136484D02*
X12965301Y-13165055D01*
X12965301Y-13165055D02*
X12946253Y-13184103D01*
X12946253Y-13184103D02*
X12927206Y-13193627D01*
X13231967Y-13336484D02*
X13117682Y-13336484D01*
X13174825Y-13336484D02*
X13174825Y-13136484D01*
X13174825Y-13136484D02*
X13155777Y-13165055D01*
X13155777Y-13165055D02*
X13136729Y-13184103D01*
X13136729Y-13184103D02*
X13117682Y-13193627D01*
X13346253Y-13222198D02*
X13327206Y-13212674D01*
X13327206Y-13212674D02*
X13317682Y-13203150D01*
X13317682Y-13203150D02*
X13308158Y-13184103D01*
X13308158Y-13184103D02*
X13308158Y-13174579D01*
X13308158Y-13174579D02*
X13317682Y-13155531D01*
X13317682Y-13155531D02*
X13327206Y-13146008D01*
X13327206Y-13146008D02*
X13346253Y-13136484D01*
X13346253Y-13136484D02*
X13384348Y-13136484D01*
X13384348Y-13136484D02*
X13403396Y-13146008D01*
X13403396Y-13146008D02*
X13412920Y-13155531D01*
X13412920Y-13155531D02*
X13422444Y-13174579D01*
X13422444Y-13174579D02*
X13422444Y-13184103D01*
X13422444Y-13184103D02*
X13412920Y-13203150D01*
X13412920Y-13203150D02*
X13403396Y-13212674D01*
X13403396Y-13212674D02*
X13384348Y-13222198D01*
X13384348Y-13222198D02*
X13346253Y-13222198D01*
X13346253Y-13222198D02*
X13327206Y-13231722D01*
X13327206Y-13231722D02*
X13317682Y-13241246D01*
X13317682Y-13241246D02*
X13308158Y-13260293D01*
X13308158Y-13260293D02*
X13308158Y-13298388D01*
X13308158Y-13298388D02*
X13317682Y-13317436D01*
X13317682Y-13317436D02*
X13327206Y-13326960D01*
X13327206Y-13326960D02*
X13346253Y-13336484D01*
X13346253Y-13336484D02*
X13384348Y-13336484D01*
X13384348Y-13336484D02*
X13403396Y-13326960D01*
X13403396Y-13326960D02*
X13412920Y-13317436D01*
X13412920Y-13317436D02*
X13422444Y-13298388D01*
X13422444Y-13298388D02*
X13422444Y-13260293D01*
X13422444Y-13260293D02*
X13412920Y-13241246D01*
X13412920Y-13241246D02*
X13403396Y-13231722D01*
X13403396Y-13231722D02*
X13384348Y-13222198D01*
X13498634Y-13136484D02*
X13498634Y-13174579D01*
X13574825Y-13136484D02*
X13574825Y-13174579D01*
X13870063Y-13412674D02*
X13860539Y-13403150D01*
X13860539Y-13403150D02*
X13841491Y-13374579D01*
X13841491Y-13374579D02*
X13831968Y-13355531D01*
X13831968Y-13355531D02*
X13822444Y-13326960D01*
X13822444Y-13326960D02*
X13812920Y-13279341D01*
X13812920Y-13279341D02*
X13812920Y-13241246D01*
X13812920Y-13241246D02*
X13822444Y-13193627D01*
X13822444Y-13193627D02*
X13831968Y-13165055D01*
X13831968Y-13165055D02*
X13841491Y-13146008D01*
X13841491Y-13146008D02*
X13860539Y-13117436D01*
X13860539Y-13117436D02*
X13870063Y-13107912D01*
X14041491Y-13136484D02*
X13946253Y-13136484D01*
X13946253Y-13136484D02*
X13936729Y-13231722D01*
X13936729Y-13231722D02*
X13946253Y-13222198D01*
X13946253Y-13222198D02*
X13965301Y-13212674D01*
X13965301Y-13212674D02*
X14012920Y-13212674D01*
X14012920Y-13212674D02*
X14031968Y-13222198D01*
X14031968Y-13222198D02*
X14041491Y-13231722D01*
X14041491Y-13231722D02*
X14051015Y-13250769D01*
X14051015Y-13250769D02*
X14051015Y-13298388D01*
X14051015Y-13298388D02*
X14041491Y-13317436D01*
X14041491Y-13317436D02*
X14031968Y-13326960D01*
X14031968Y-13326960D02*
X14012920Y-13336484D01*
X14012920Y-13336484D02*
X13965301Y-13336484D01*
X13965301Y-13336484D02*
X13946253Y-13326960D01*
X13946253Y-13326960D02*
X13936729Y-13317436D01*
X14117682Y-13136484D02*
X14251015Y-13136484D01*
X14251015Y-13136484D02*
X14165301Y-13336484D01*
X14479587Y-13336484D02*
X14479587Y-13136484D01*
X14565301Y-13336484D02*
X14565301Y-13231722D01*
X14565301Y-13231722D02*
X14555777Y-13212674D01*
X14555777Y-13212674D02*
X14536730Y-13203150D01*
X14536730Y-13203150D02*
X14508158Y-13203150D01*
X14508158Y-13203150D02*
X14489110Y-13212674D01*
X14489110Y-13212674D02*
X14479587Y-13222198D01*
X14689110Y-13336484D02*
X14670063Y-13326960D01*
X14670063Y-13326960D02*
X14660539Y-13317436D01*
X14660539Y-13317436D02*
X14651015Y-13298388D01*
X14651015Y-13298388D02*
X14651015Y-13241246D01*
X14651015Y-13241246D02*
X14660539Y-13222198D01*
X14660539Y-13222198D02*
X14670063Y-13212674D01*
X14670063Y-13212674D02*
X14689110Y-13203150D01*
X14689110Y-13203150D02*
X14717682Y-13203150D01*
X14717682Y-13203150D02*
X14736730Y-13212674D01*
X14736730Y-13212674D02*
X14746253Y-13222198D01*
X14746253Y-13222198D02*
X14755777Y-13241246D01*
X14755777Y-13241246D02*
X14755777Y-13298388D01*
X14755777Y-13298388D02*
X14746253Y-13317436D01*
X14746253Y-13317436D02*
X14736730Y-13326960D01*
X14736730Y-13326960D02*
X14717682Y-13336484D01*
X14717682Y-13336484D02*
X14689110Y-13336484D01*
X14870063Y-13336484D02*
X14851015Y-13326960D01*
X14851015Y-13326960D02*
X14841491Y-13307912D01*
X14841491Y-13307912D02*
X14841491Y-13136484D01*
X15022444Y-13326960D02*
X15003396Y-13336484D01*
X15003396Y-13336484D02*
X14965301Y-13336484D01*
X14965301Y-13336484D02*
X14946253Y-13326960D01*
X14946253Y-13326960D02*
X14936730Y-13307912D01*
X14936730Y-13307912D02*
X14936730Y-13231722D01*
X14936730Y-13231722D02*
X14946253Y-13212674D01*
X14946253Y-13212674D02*
X14965301Y-13203150D01*
X14965301Y-13203150D02*
X15003396Y-13203150D01*
X15003396Y-13203150D02*
X15022444Y-13212674D01*
X15022444Y-13212674D02*
X15031968Y-13231722D01*
X15031968Y-13231722D02*
X15031968Y-13250769D01*
X15031968Y-13250769D02*
X14936730Y-13269817D01*
X15108158Y-13326960D02*
X15127206Y-13336484D01*
X15127206Y-13336484D02*
X15165301Y-13336484D01*
X15165301Y-13336484D02*
X15184349Y-13326960D01*
X15184349Y-13326960D02*
X15193872Y-13307912D01*
X15193872Y-13307912D02*
X15193872Y-13298388D01*
X15193872Y-13298388D02*
X15184349Y-13279341D01*
X15184349Y-13279341D02*
X15165301Y-13269817D01*
X15165301Y-13269817D02*
X15136730Y-13269817D01*
X15136730Y-13269817D02*
X15117682Y-13260293D01*
X15117682Y-13260293D02*
X15108158Y-13241246D01*
X15108158Y-13241246D02*
X15108158Y-13231722D01*
X15108158Y-13231722D02*
X15117682Y-13212674D01*
X15117682Y-13212674D02*
X15136730Y-13203150D01*
X15136730Y-13203150D02*
X15165301Y-13203150D01*
X15165301Y-13203150D02*
X15184349Y-13212674D01*
X15260539Y-13412674D02*
X15270063Y-13403150D01*
X15270063Y-13403150D02*
X15289111Y-13374579D01*
X15289111Y-13374579D02*
X15298634Y-13355531D01*
X15298634Y-13355531D02*
X15308158Y-13326960D01*
X15308158Y-13326960D02*
X15317682Y-13279341D01*
X15317682Y-13279341D02*
X15317682Y-13241246D01*
X15317682Y-13241246D02*
X15308158Y-13193627D01*
X15308158Y-13193627D02*
X15298634Y-13165055D01*
X15298634Y-13165055D02*
X15289111Y-13146008D01*
X15289111Y-13146008D02*
X15270063Y-13117436D01*
X15270063Y-13117436D02*
X15260539Y-13107912D01*
D10*
X10295000Y-13509000D02*
G75*
G02*
X10265000Y-13509000I-15000J0D01*
G01*
X10265000Y-13509000D02*
G75*
G02*
X10295000Y-13509000I15000J0D01*
G01*
D11*
X10593872Y-13400484D02*
X10612920Y-13400484D01*
X10612920Y-13400484D02*
X10631967Y-13410008D01*
X10631967Y-13410008D02*
X10641491Y-13419531D01*
X10641491Y-13419531D02*
X10651015Y-13438579D01*
X10651015Y-13438579D02*
X10660539Y-13476674D01*
X10660539Y-13476674D02*
X10660539Y-13524293D01*
X10660539Y-13524293D02*
X10651015Y-13562388D01*
X10651015Y-13562388D02*
X10641491Y-13581436D01*
X10641491Y-13581436D02*
X10631967Y-13590960D01*
X10631967Y-13590960D02*
X10612920Y-13600484D01*
X10612920Y-13600484D02*
X10593872Y-13600484D01*
X10593872Y-13600484D02*
X10574824Y-13590960D01*
X10574824Y-13590960D02*
X10565301Y-13581436D01*
X10565301Y-13581436D02*
X10555777Y-13562388D01*
X10555777Y-13562388D02*
X10546253Y-13524293D01*
X10546253Y-13524293D02*
X10546253Y-13476674D01*
X10546253Y-13476674D02*
X10555777Y-13438579D01*
X10555777Y-13438579D02*
X10565301Y-13419531D01*
X10565301Y-13419531D02*
X10574824Y-13410008D01*
X10574824Y-13410008D02*
X10593872Y-13400484D01*
X10746253Y-13581436D02*
X10755777Y-13590960D01*
X10755777Y-13590960D02*
X10746253Y-13600484D01*
X10746253Y-13600484D02*
X10736729Y-13590960D01*
X10736729Y-13590960D02*
X10746253Y-13581436D01*
X10746253Y-13581436D02*
X10746253Y-13600484D01*
X10822444Y-13400484D02*
X10946253Y-13400484D01*
X10946253Y-13400484D02*
X10879586Y-13476674D01*
X10879586Y-13476674D02*
X10908158Y-13476674D01*
X10908158Y-13476674D02*
X10927205Y-13486198D01*
X10927205Y-13486198D02*
X10936729Y-13495722D01*
X10936729Y-13495722D02*
X10946253Y-13514769D01*
X10946253Y-13514769D02*
X10946253Y-13562388D01*
X10946253Y-13562388D02*
X10936729Y-13581436D01*
X10936729Y-13581436D02*
X10927205Y-13590960D01*
X10927205Y-13590960D02*
X10908158Y-13600484D01*
X10908158Y-13600484D02*
X10851015Y-13600484D01*
X10851015Y-13600484D02*
X10831967Y-13590960D01*
X10831967Y-13590960D02*
X10822444Y-13581436D01*
X11070063Y-13400484D02*
X11089110Y-13400484D01*
X11089110Y-13400484D02*
X11108158Y-13410008D01*
X11108158Y-13410008D02*
X11117682Y-13419531D01*
X11117682Y-13419531D02*
X11127205Y-13438579D01*
X11127205Y-13438579D02*
X11136729Y-13476674D01*
X11136729Y-13476674D02*
X11136729Y-13524293D01*
X11136729Y-13524293D02*
X11127205Y-13562388D01*
X11127205Y-13562388D02*
X11117682Y-13581436D01*
X11117682Y-13581436D02*
X11108158Y-13590960D01*
X11108158Y-13590960D02*
X11089110Y-13600484D01*
X11089110Y-13600484D02*
X11070063Y-13600484D01*
X11070063Y-13600484D02*
X11051015Y-13590960D01*
X11051015Y-13590960D02*
X11041491Y-13581436D01*
X11041491Y-13581436D02*
X11031967Y-13562388D01*
X11031967Y-13562388D02*
X11022444Y-13524293D01*
X11022444Y-13524293D02*
X11022444Y-13476674D01*
X11022444Y-13476674D02*
X11031967Y-13438579D01*
X11031967Y-13438579D02*
X11041491Y-13419531D01*
X11041491Y-13419531D02*
X11051015Y-13410008D01*
X11051015Y-13410008D02*
X11070063Y-13400484D01*
X11260539Y-13400484D02*
X11279586Y-13400484D01*
X11279586Y-13400484D02*
X11298634Y-13410008D01*
X11298634Y-13410008D02*
X11308158Y-13419531D01*
X11308158Y-13419531D02*
X11317682Y-13438579D01*
X11317682Y-13438579D02*
X11327205Y-13476674D01*
X11327205Y-13476674D02*
X11327205Y-13524293D01*
X11327205Y-13524293D02*
X11317682Y-13562388D01*
X11317682Y-13562388D02*
X11308158Y-13581436D01*
X11308158Y-13581436D02*
X11298634Y-13590960D01*
X11298634Y-13590960D02*
X11279586Y-13600484D01*
X11279586Y-13600484D02*
X11260539Y-13600484D01*
X11260539Y-13600484D02*
X11241491Y-13590960D01*
X11241491Y-13590960D02*
X11231967Y-13581436D01*
X11231967Y-13581436D02*
X11222443Y-13562388D01*
X11222443Y-13562388D02*
X11212920Y-13524293D01*
X11212920Y-13524293D02*
X11212920Y-13476674D01*
X11212920Y-13476674D02*
X11222443Y-13438579D01*
X11222443Y-13438579D02*
X11231967Y-13419531D01*
X11231967Y-13419531D02*
X11241491Y-13410008D01*
X11241491Y-13410008D02*
X11260539Y-13400484D01*
X11412920Y-13600484D02*
X11412920Y-13467150D01*
X11412920Y-13486198D02*
X11422443Y-13476674D01*
X11422443Y-13476674D02*
X11441491Y-13467150D01*
X11441491Y-13467150D02*
X11470063Y-13467150D01*
X11470063Y-13467150D02*
X11489110Y-13476674D01*
X11489110Y-13476674D02*
X11498634Y-13495722D01*
X11498634Y-13495722D02*
X11498634Y-13600484D01*
X11498634Y-13495722D02*
X11508158Y-13476674D01*
X11508158Y-13476674D02*
X11527205Y-13467150D01*
X11527205Y-13467150D02*
X11555777Y-13467150D01*
X11555777Y-13467150D02*
X11574824Y-13476674D01*
X11574824Y-13476674D02*
X11584348Y-13495722D01*
X11584348Y-13495722D02*
X11584348Y-13600484D01*
X11679586Y-13600484D02*
X11679586Y-13467150D01*
X11679586Y-13486198D02*
X11689110Y-13476674D01*
X11689110Y-13476674D02*
X11708158Y-13467150D01*
X11708158Y-13467150D02*
X11736729Y-13467150D01*
X11736729Y-13467150D02*
X11755777Y-13476674D01*
X11755777Y-13476674D02*
X11765301Y-13495722D01*
X11765301Y-13495722D02*
X11765301Y-13600484D01*
X11765301Y-13495722D02*
X11774824Y-13476674D01*
X11774824Y-13476674D02*
X11793872Y-13467150D01*
X11793872Y-13467150D02*
X11822443Y-13467150D01*
X11822443Y-13467150D02*
X11841491Y-13476674D01*
X11841491Y-13476674D02*
X11851015Y-13495722D01*
X11851015Y-13495722D02*
X11851015Y-13600484D01*
X12241491Y-13390960D02*
X12070063Y-13648103D01*
X12498634Y-13400484D02*
X12517682Y-13400484D01*
X12517682Y-13400484D02*
X12536729Y-13410008D01*
X12536729Y-13410008D02*
X12546253Y-13419531D01*
X12546253Y-13419531D02*
X12555777Y-13438579D01*
X12555777Y-13438579D02*
X12565301Y-13476674D01*
X12565301Y-13476674D02*
X12565301Y-13524293D01*
X12565301Y-13524293D02*
X12555777Y-13562388D01*
X12555777Y-13562388D02*
X12546253Y-13581436D01*
X12546253Y-13581436D02*
X12536729Y-13590960D01*
X12536729Y-13590960D02*
X12517682Y-13600484D01*
X12517682Y-13600484D02*
X12498634Y-13600484D01*
X12498634Y-13600484D02*
X12479586Y-13590960D01*
X12479586Y-13590960D02*
X12470063Y-13581436D01*
X12470063Y-13581436D02*
X12460539Y-13562388D01*
X12460539Y-13562388D02*
X12451015Y-13524293D01*
X12451015Y-13524293D02*
X12451015Y-13476674D01*
X12451015Y-13476674D02*
X12460539Y-13438579D01*
X12460539Y-13438579D02*
X12470063Y-13419531D01*
X12470063Y-13419531D02*
X12479586Y-13410008D01*
X12479586Y-13410008D02*
X12498634Y-13400484D01*
X12651015Y-13581436D02*
X12660539Y-13590960D01*
X12660539Y-13590960D02*
X12651015Y-13600484D01*
X12651015Y-13600484D02*
X12641491Y-13590960D01*
X12641491Y-13590960D02*
X12651015Y-13581436D01*
X12651015Y-13581436D02*
X12651015Y-13600484D01*
X12784348Y-13400484D02*
X12803396Y-13400484D01*
X12803396Y-13400484D02*
X12822444Y-13410008D01*
X12822444Y-13410008D02*
X12831967Y-13419531D01*
X12831967Y-13419531D02*
X12841491Y-13438579D01*
X12841491Y-13438579D02*
X12851015Y-13476674D01*
X12851015Y-13476674D02*
X12851015Y-13524293D01*
X12851015Y-13524293D02*
X12841491Y-13562388D01*
X12841491Y-13562388D02*
X12831967Y-13581436D01*
X12831967Y-13581436D02*
X12822444Y-13590960D01*
X12822444Y-13590960D02*
X12803396Y-13600484D01*
X12803396Y-13600484D02*
X12784348Y-13600484D01*
X12784348Y-13600484D02*
X12765301Y-13590960D01*
X12765301Y-13590960D02*
X12755777Y-13581436D01*
X12755777Y-13581436D02*
X12746253Y-13562388D01*
X12746253Y-13562388D02*
X12736729Y-13524293D01*
X12736729Y-13524293D02*
X12736729Y-13476674D01*
X12736729Y-13476674D02*
X12746253Y-13438579D01*
X12746253Y-13438579D02*
X12755777Y-13419531D01*
X12755777Y-13419531D02*
X12765301Y-13410008D01*
X12765301Y-13410008D02*
X12784348Y-13400484D01*
X13041491Y-13600484D02*
X12927206Y-13600484D01*
X12984348Y-13600484D02*
X12984348Y-13400484D01*
X12984348Y-13400484D02*
X12965301Y-13429055D01*
X12965301Y-13429055D02*
X12946253Y-13448103D01*
X12946253Y-13448103D02*
X12927206Y-13457627D01*
X13231967Y-13600484D02*
X13117682Y-13600484D01*
X13174825Y-13600484D02*
X13174825Y-13400484D01*
X13174825Y-13400484D02*
X13155777Y-13429055D01*
X13155777Y-13429055D02*
X13136729Y-13448103D01*
X13136729Y-13448103D02*
X13117682Y-13457627D01*
X13346253Y-13486198D02*
X13327206Y-13476674D01*
X13327206Y-13476674D02*
X13317682Y-13467150D01*
X13317682Y-13467150D02*
X13308158Y-13448103D01*
X13308158Y-13448103D02*
X13308158Y-13438579D01*
X13308158Y-13438579D02*
X13317682Y-13419531D01*
X13317682Y-13419531D02*
X13327206Y-13410008D01*
X13327206Y-13410008D02*
X13346253Y-13400484D01*
X13346253Y-13400484D02*
X13384348Y-13400484D01*
X13384348Y-13400484D02*
X13403396Y-13410008D01*
X13403396Y-13410008D02*
X13412920Y-13419531D01*
X13412920Y-13419531D02*
X13422444Y-13438579D01*
X13422444Y-13438579D02*
X13422444Y-13448103D01*
X13422444Y-13448103D02*
X13412920Y-13467150D01*
X13412920Y-13467150D02*
X13403396Y-13476674D01*
X13403396Y-13476674D02*
X13384348Y-13486198D01*
X13384348Y-13486198D02*
X13346253Y-13486198D01*
X13346253Y-13486198D02*
X13327206Y-13495722D01*
X13327206Y-13495722D02*
X13317682Y-13505246D01*
X13317682Y-13505246D02*
X13308158Y-13524293D01*
X13308158Y-13524293D02*
X13308158Y-13562388D01*
X13308158Y-13562388D02*
X13317682Y-13581436D01*
X13317682Y-13581436D02*
X13327206Y-13590960D01*
X13327206Y-13590960D02*
X13346253Y-13600484D01*
X13346253Y-13600484D02*
X13384348Y-13600484D01*
X13384348Y-13600484D02*
X13403396Y-13590960D01*
X13403396Y-13590960D02*
X13412920Y-13581436D01*
X13412920Y-13581436D02*
X13422444Y-13562388D01*
X13422444Y-13562388D02*
X13422444Y-13524293D01*
X13422444Y-13524293D02*
X13412920Y-13505246D01*
X13412920Y-13505246D02*
X13403396Y-13495722D01*
X13403396Y-13495722D02*
X13384348Y-13486198D01*
X13498634Y-13400484D02*
X13498634Y-13438579D01*
X13574825Y-13400484D02*
X13574825Y-13438579D01*
X13870063Y-13676674D02*
X13860539Y-13667150D01*
X13860539Y-13667150D02*
X13841491Y-13638579D01*
X13841491Y-13638579D02*
X13831968Y-13619531D01*
X13831968Y-13619531D02*
X13822444Y-13590960D01*
X13822444Y-13590960D02*
X13812920Y-13543341D01*
X13812920Y-13543341D02*
X13812920Y-13505246D01*
X13812920Y-13505246D02*
X13822444Y-13457627D01*
X13822444Y-13457627D02*
X13831968Y-13429055D01*
X13831968Y-13429055D02*
X13841491Y-13410008D01*
X13841491Y-13410008D02*
X13860539Y-13381436D01*
X13860539Y-13381436D02*
X13870063Y-13371912D01*
X14051015Y-13600484D02*
X13936729Y-13600484D01*
X13993872Y-13600484D02*
X13993872Y-13400484D01*
X13993872Y-13400484D02*
X13974825Y-13429055D01*
X13974825Y-13429055D02*
X13955777Y-13448103D01*
X13955777Y-13448103D02*
X13936729Y-13457627D01*
X14289110Y-13600484D02*
X14289110Y-13400484D01*
X14374825Y-13600484D02*
X14374825Y-13495722D01*
X14374825Y-13495722D02*
X14365301Y-13476674D01*
X14365301Y-13476674D02*
X14346253Y-13467150D01*
X14346253Y-13467150D02*
X14317682Y-13467150D01*
X14317682Y-13467150D02*
X14298634Y-13476674D01*
X14298634Y-13476674D02*
X14289110Y-13486198D01*
X14498634Y-13600484D02*
X14479587Y-13590960D01*
X14479587Y-13590960D02*
X14470063Y-13581436D01*
X14470063Y-13581436D02*
X14460539Y-13562388D01*
X14460539Y-13562388D02*
X14460539Y-13505246D01*
X14460539Y-13505246D02*
X14470063Y-13486198D01*
X14470063Y-13486198D02*
X14479587Y-13476674D01*
X14479587Y-13476674D02*
X14498634Y-13467150D01*
X14498634Y-13467150D02*
X14527206Y-13467150D01*
X14527206Y-13467150D02*
X14546253Y-13476674D01*
X14546253Y-13476674D02*
X14555777Y-13486198D01*
X14555777Y-13486198D02*
X14565301Y-13505246D01*
X14565301Y-13505246D02*
X14565301Y-13562388D01*
X14565301Y-13562388D02*
X14555777Y-13581436D01*
X14555777Y-13581436D02*
X14546253Y-13590960D01*
X14546253Y-13590960D02*
X14527206Y-13600484D01*
X14527206Y-13600484D02*
X14498634Y-13600484D01*
X14679587Y-13600484D02*
X14660539Y-13590960D01*
X14660539Y-13590960D02*
X14651015Y-13571912D01*
X14651015Y-13571912D02*
X14651015Y-13400484D01*
X14831968Y-13590960D02*
X14812920Y-13600484D01*
X14812920Y-13600484D02*
X14774825Y-13600484D01*
X14774825Y-13600484D02*
X14755777Y-13590960D01*
X14755777Y-13590960D02*
X14746253Y-13571912D01*
X14746253Y-13571912D02*
X14746253Y-13495722D01*
X14746253Y-13495722D02*
X14755777Y-13476674D01*
X14755777Y-13476674D02*
X14774825Y-13467150D01*
X14774825Y-13467150D02*
X14812920Y-13467150D01*
X14812920Y-13467150D02*
X14831968Y-13476674D01*
X14831968Y-13476674D02*
X14841491Y-13495722D01*
X14841491Y-13495722D02*
X14841491Y-13514769D01*
X14841491Y-13514769D02*
X14746253Y-13533817D01*
X14908158Y-13676674D02*
X14917682Y-13667150D01*
X14917682Y-13667150D02*
X14936730Y-13638579D01*
X14936730Y-13638579D02*
X14946253Y-13619531D01*
X14946253Y-13619531D02*
X14955777Y-13590960D01*
X14955777Y-13590960D02*
X14965301Y-13543341D01*
X14965301Y-13543341D02*
X14965301Y-13505246D01*
X14965301Y-13505246D02*
X14955777Y-13457627D01*
X14955777Y-13457627D02*
X14946253Y-13429055D01*
X14946253Y-13429055D02*
X14936730Y-13410008D01*
X14936730Y-13410008D02*
X14917682Y-13381436D01*
X14917682Y-13381436D02*
X14908158Y-13371912D01*
D12*
X10220000Y-13698000D02*
X10220000Y-13848000D01*
X10145000Y-13773000D02*
X10295000Y-13773000D01*
D11*
X10660539Y-13864484D02*
X10546253Y-13864484D01*
X10603396Y-13864484D02*
X10603396Y-13664484D01*
X10603396Y-13664484D02*
X10584348Y-13693055D01*
X10584348Y-13693055D02*
X10565301Y-13712103D01*
X10565301Y-13712103D02*
X10546253Y-13721627D01*
X10746253Y-13845436D02*
X10755777Y-13854960D01*
X10755777Y-13854960D02*
X10746253Y-13864484D01*
X10746253Y-13864484D02*
X10736729Y-13854960D01*
X10736729Y-13854960D02*
X10746253Y-13845436D01*
X10746253Y-13845436D02*
X10746253Y-13864484D01*
X10936729Y-13664484D02*
X10841491Y-13664484D01*
X10841491Y-13664484D02*
X10831967Y-13759722D01*
X10831967Y-13759722D02*
X10841491Y-13750198D01*
X10841491Y-13750198D02*
X10860539Y-13740674D01*
X10860539Y-13740674D02*
X10908158Y-13740674D01*
X10908158Y-13740674D02*
X10927205Y-13750198D01*
X10927205Y-13750198D02*
X10936729Y-13759722D01*
X10936729Y-13759722D02*
X10946253Y-13778769D01*
X10946253Y-13778769D02*
X10946253Y-13826388D01*
X10946253Y-13826388D02*
X10936729Y-13845436D01*
X10936729Y-13845436D02*
X10927205Y-13854960D01*
X10927205Y-13854960D02*
X10908158Y-13864484D01*
X10908158Y-13864484D02*
X10860539Y-13864484D01*
X10860539Y-13864484D02*
X10841491Y-13854960D01*
X10841491Y-13854960D02*
X10831967Y-13845436D01*
X11070063Y-13664484D02*
X11089110Y-13664484D01*
X11089110Y-13664484D02*
X11108158Y-13674008D01*
X11108158Y-13674008D02*
X11117682Y-13683531D01*
X11117682Y-13683531D02*
X11127205Y-13702579D01*
X11127205Y-13702579D02*
X11136729Y-13740674D01*
X11136729Y-13740674D02*
X11136729Y-13788293D01*
X11136729Y-13788293D02*
X11127205Y-13826388D01*
X11127205Y-13826388D02*
X11117682Y-13845436D01*
X11117682Y-13845436D02*
X11108158Y-13854960D01*
X11108158Y-13854960D02*
X11089110Y-13864484D01*
X11089110Y-13864484D02*
X11070063Y-13864484D01*
X11070063Y-13864484D02*
X11051015Y-13854960D01*
X11051015Y-13854960D02*
X11041491Y-13845436D01*
X11041491Y-13845436D02*
X11031967Y-13826388D01*
X11031967Y-13826388D02*
X11022444Y-13788293D01*
X11022444Y-13788293D02*
X11022444Y-13740674D01*
X11022444Y-13740674D02*
X11031967Y-13702579D01*
X11031967Y-13702579D02*
X11041491Y-13683531D01*
X11041491Y-13683531D02*
X11051015Y-13674008D01*
X11051015Y-13674008D02*
X11070063Y-13664484D01*
X11260539Y-13664484D02*
X11279586Y-13664484D01*
X11279586Y-13664484D02*
X11298634Y-13674008D01*
X11298634Y-13674008D02*
X11308158Y-13683531D01*
X11308158Y-13683531D02*
X11317682Y-13702579D01*
X11317682Y-13702579D02*
X11327205Y-13740674D01*
X11327205Y-13740674D02*
X11327205Y-13788293D01*
X11327205Y-13788293D02*
X11317682Y-13826388D01*
X11317682Y-13826388D02*
X11308158Y-13845436D01*
X11308158Y-13845436D02*
X11298634Y-13854960D01*
X11298634Y-13854960D02*
X11279586Y-13864484D01*
X11279586Y-13864484D02*
X11260539Y-13864484D01*
X11260539Y-13864484D02*
X11241491Y-13854960D01*
X11241491Y-13854960D02*
X11231967Y-13845436D01*
X11231967Y-13845436D02*
X11222443Y-13826388D01*
X11222443Y-13826388D02*
X11212920Y-13788293D01*
X11212920Y-13788293D02*
X11212920Y-13740674D01*
X11212920Y-13740674D02*
X11222443Y-13702579D01*
X11222443Y-13702579D02*
X11231967Y-13683531D01*
X11231967Y-13683531D02*
X11241491Y-13674008D01*
X11241491Y-13674008D02*
X11260539Y-13664484D01*
X11412920Y-13864484D02*
X11412920Y-13731150D01*
X11412920Y-13750198D02*
X11422443Y-13740674D01*
X11422443Y-13740674D02*
X11441491Y-13731150D01*
X11441491Y-13731150D02*
X11470063Y-13731150D01*
X11470063Y-13731150D02*
X11489110Y-13740674D01*
X11489110Y-13740674D02*
X11498634Y-13759722D01*
X11498634Y-13759722D02*
X11498634Y-13864484D01*
X11498634Y-13759722D02*
X11508158Y-13740674D01*
X11508158Y-13740674D02*
X11527205Y-13731150D01*
X11527205Y-13731150D02*
X11555777Y-13731150D01*
X11555777Y-13731150D02*
X11574824Y-13740674D01*
X11574824Y-13740674D02*
X11584348Y-13759722D01*
X11584348Y-13759722D02*
X11584348Y-13864484D01*
X11679586Y-13864484D02*
X11679586Y-13731150D01*
X11679586Y-13750198D02*
X11689110Y-13740674D01*
X11689110Y-13740674D02*
X11708158Y-13731150D01*
X11708158Y-13731150D02*
X11736729Y-13731150D01*
X11736729Y-13731150D02*
X11755777Y-13740674D01*
X11755777Y-13740674D02*
X11765301Y-13759722D01*
X11765301Y-13759722D02*
X11765301Y-13864484D01*
X11765301Y-13759722D02*
X11774824Y-13740674D01*
X11774824Y-13740674D02*
X11793872Y-13731150D01*
X11793872Y-13731150D02*
X11822443Y-13731150D01*
X11822443Y-13731150D02*
X11841491Y-13740674D01*
X11841491Y-13740674D02*
X11851015Y-13759722D01*
X11851015Y-13759722D02*
X11851015Y-13864484D01*
X12241491Y-13654960D02*
X12070063Y-13912103D01*
X12498634Y-13664484D02*
X12517682Y-13664484D01*
X12517682Y-13664484D02*
X12536729Y-13674008D01*
X12536729Y-13674008D02*
X12546253Y-13683531D01*
X12546253Y-13683531D02*
X12555777Y-13702579D01*
X12555777Y-13702579D02*
X12565301Y-13740674D01*
X12565301Y-13740674D02*
X12565301Y-13788293D01*
X12565301Y-13788293D02*
X12555777Y-13826388D01*
X12555777Y-13826388D02*
X12546253Y-13845436D01*
X12546253Y-13845436D02*
X12536729Y-13854960D01*
X12536729Y-13854960D02*
X12517682Y-13864484D01*
X12517682Y-13864484D02*
X12498634Y-13864484D01*
X12498634Y-13864484D02*
X12479586Y-13854960D01*
X12479586Y-13854960D02*
X12470063Y-13845436D01*
X12470063Y-13845436D02*
X12460539Y-13826388D01*
X12460539Y-13826388D02*
X12451015Y-13788293D01*
X12451015Y-13788293D02*
X12451015Y-13740674D01*
X12451015Y-13740674D02*
X12460539Y-13702579D01*
X12460539Y-13702579D02*
X12470063Y-13683531D01*
X12470063Y-13683531D02*
X12479586Y-13674008D01*
X12479586Y-13674008D02*
X12498634Y-13664484D01*
X12651015Y-13845436D02*
X12660539Y-13854960D01*
X12660539Y-13854960D02*
X12651015Y-13864484D01*
X12651015Y-13864484D02*
X12641491Y-13854960D01*
X12641491Y-13854960D02*
X12651015Y-13845436D01*
X12651015Y-13845436D02*
X12651015Y-13864484D01*
X12784348Y-13664484D02*
X12803396Y-13664484D01*
X12803396Y-13664484D02*
X12822444Y-13674008D01*
X12822444Y-13674008D02*
X12831967Y-13683531D01*
X12831967Y-13683531D02*
X12841491Y-13702579D01*
X12841491Y-13702579D02*
X12851015Y-13740674D01*
X12851015Y-13740674D02*
X12851015Y-13788293D01*
X12851015Y-13788293D02*
X12841491Y-13826388D01*
X12841491Y-13826388D02*
X12831967Y-13845436D01*
X12831967Y-13845436D02*
X12822444Y-13854960D01*
X12822444Y-13854960D02*
X12803396Y-13864484D01*
X12803396Y-13864484D02*
X12784348Y-13864484D01*
X12784348Y-13864484D02*
X12765301Y-13854960D01*
X12765301Y-13854960D02*
X12755777Y-13845436D01*
X12755777Y-13845436D02*
X12746253Y-13826388D01*
X12746253Y-13826388D02*
X12736729Y-13788293D01*
X12736729Y-13788293D02*
X12736729Y-13740674D01*
X12736729Y-13740674D02*
X12746253Y-13702579D01*
X12746253Y-13702579D02*
X12755777Y-13683531D01*
X12755777Y-13683531D02*
X12765301Y-13674008D01*
X12765301Y-13674008D02*
X12784348Y-13664484D01*
X13031967Y-13664484D02*
X12936729Y-13664484D01*
X12936729Y-13664484D02*
X12927206Y-13759722D01*
X12927206Y-13759722D02*
X12936729Y-13750198D01*
X12936729Y-13750198D02*
X12955777Y-13740674D01*
X12955777Y-13740674D02*
X13003396Y-13740674D01*
X13003396Y-13740674D02*
X13022444Y-13750198D01*
X13022444Y-13750198D02*
X13031967Y-13759722D01*
X13031967Y-13759722D02*
X13041491Y-13778769D01*
X13041491Y-13778769D02*
X13041491Y-13826388D01*
X13041491Y-13826388D02*
X13031967Y-13845436D01*
X13031967Y-13845436D02*
X13022444Y-13854960D01*
X13022444Y-13854960D02*
X13003396Y-13864484D01*
X13003396Y-13864484D02*
X12955777Y-13864484D01*
X12955777Y-13864484D02*
X12936729Y-13854960D01*
X12936729Y-13854960D02*
X12927206Y-13845436D01*
X13136729Y-13864484D02*
X13174825Y-13864484D01*
X13174825Y-13864484D02*
X13193872Y-13854960D01*
X13193872Y-13854960D02*
X13203396Y-13845436D01*
X13203396Y-13845436D02*
X13222444Y-13816865D01*
X13222444Y-13816865D02*
X13231967Y-13778769D01*
X13231967Y-13778769D02*
X13231967Y-13702579D01*
X13231967Y-13702579D02*
X13222444Y-13683531D01*
X13222444Y-13683531D02*
X13212920Y-13674008D01*
X13212920Y-13674008D02*
X13193872Y-13664484D01*
X13193872Y-13664484D02*
X13155777Y-13664484D01*
X13155777Y-13664484D02*
X13136729Y-13674008D01*
X13136729Y-13674008D02*
X13127206Y-13683531D01*
X13127206Y-13683531D02*
X13117682Y-13702579D01*
X13117682Y-13702579D02*
X13117682Y-13750198D01*
X13117682Y-13750198D02*
X13127206Y-13769246D01*
X13127206Y-13769246D02*
X13136729Y-13778769D01*
X13136729Y-13778769D02*
X13155777Y-13788293D01*
X13155777Y-13788293D02*
X13193872Y-13788293D01*
X13193872Y-13788293D02*
X13212920Y-13778769D01*
X13212920Y-13778769D02*
X13222444Y-13769246D01*
X13222444Y-13769246D02*
X13231967Y-13750198D01*
X13422444Y-13864484D02*
X13308158Y-13864484D01*
X13365301Y-13864484D02*
X13365301Y-13664484D01*
X13365301Y-13664484D02*
X13346253Y-13693055D01*
X13346253Y-13693055D02*
X13327206Y-13712103D01*
X13327206Y-13712103D02*
X13308158Y-13721627D01*
X13498634Y-13664484D02*
X13498634Y-13702579D01*
X13574825Y-13664484D02*
X13574825Y-13702579D01*
X13870063Y-13940674D02*
X13860539Y-13931150D01*
X13860539Y-13931150D02*
X13841491Y-13902579D01*
X13841491Y-13902579D02*
X13831968Y-13883531D01*
X13831968Y-13883531D02*
X13822444Y-13854960D01*
X13822444Y-13854960D02*
X13812920Y-13807341D01*
X13812920Y-13807341D02*
X13812920Y-13769246D01*
X13812920Y-13769246D02*
X13822444Y-13721627D01*
X13822444Y-13721627D02*
X13831968Y-13693055D01*
X13831968Y-13693055D02*
X13841491Y-13674008D01*
X13841491Y-13674008D02*
X13860539Y-13645436D01*
X13860539Y-13645436D02*
X13870063Y-13635912D01*
X13936729Y-13683531D02*
X13946253Y-13674008D01*
X13946253Y-13674008D02*
X13965301Y-13664484D01*
X13965301Y-13664484D02*
X14012920Y-13664484D01*
X14012920Y-13664484D02*
X14031968Y-13674008D01*
X14031968Y-13674008D02*
X14041491Y-13683531D01*
X14041491Y-13683531D02*
X14051015Y-13702579D01*
X14051015Y-13702579D02*
X14051015Y-13721627D01*
X14051015Y-13721627D02*
X14041491Y-13750198D01*
X14041491Y-13750198D02*
X13927206Y-13864484D01*
X13927206Y-13864484D02*
X14051015Y-13864484D01*
X14289110Y-13864484D02*
X14289110Y-13664484D01*
X14374825Y-13864484D02*
X14374825Y-13759722D01*
X14374825Y-13759722D02*
X14365301Y-13740674D01*
X14365301Y-13740674D02*
X14346253Y-13731150D01*
X14346253Y-13731150D02*
X14317682Y-13731150D01*
X14317682Y-13731150D02*
X14298634Y-13740674D01*
X14298634Y-13740674D02*
X14289110Y-13750198D01*
X14498634Y-13864484D02*
X14479587Y-13854960D01*
X14479587Y-13854960D02*
X14470063Y-13845436D01*
X14470063Y-13845436D02*
X14460539Y-13826388D01*
X14460539Y-13826388D02*
X14460539Y-13769246D01*
X14460539Y-13769246D02*
X14470063Y-13750198D01*
X14470063Y-13750198D02*
X14479587Y-13740674D01*
X14479587Y-13740674D02*
X14498634Y-13731150D01*
X14498634Y-13731150D02*
X14527206Y-13731150D01*
X14527206Y-13731150D02*
X14546253Y-13740674D01*
X14546253Y-13740674D02*
X14555777Y-13750198D01*
X14555777Y-13750198D02*
X14565301Y-13769246D01*
X14565301Y-13769246D02*
X14565301Y-13826388D01*
X14565301Y-13826388D02*
X14555777Y-13845436D01*
X14555777Y-13845436D02*
X14546253Y-13854960D01*
X14546253Y-13854960D02*
X14527206Y-13864484D01*
X14527206Y-13864484D02*
X14498634Y-13864484D01*
X14679587Y-13864484D02*
X14660539Y-13854960D01*
X14660539Y-13854960D02*
X14651015Y-13835912D01*
X14651015Y-13835912D02*
X14651015Y-13664484D01*
X14831968Y-13854960D02*
X14812920Y-13864484D01*
X14812920Y-13864484D02*
X14774825Y-13864484D01*
X14774825Y-13864484D02*
X14755777Y-13854960D01*
X14755777Y-13854960D02*
X14746253Y-13835912D01*
X14746253Y-13835912D02*
X14746253Y-13759722D01*
X14746253Y-13759722D02*
X14755777Y-13740674D01*
X14755777Y-13740674D02*
X14774825Y-13731150D01*
X14774825Y-13731150D02*
X14812920Y-13731150D01*
X14812920Y-13731150D02*
X14831968Y-13740674D01*
X14831968Y-13740674D02*
X14841491Y-13759722D01*
X14841491Y-13759722D02*
X14841491Y-13778769D01*
X14841491Y-13778769D02*
X14746253Y-13797817D01*
X14917682Y-13854960D02*
X14936730Y-13864484D01*
X14936730Y-13864484D02*
X14974825Y-13864484D01*
X14974825Y-13864484D02*
X14993872Y-13854960D01*
X14993872Y-13854960D02*
X15003396Y-13835912D01*
X15003396Y-13835912D02*
X15003396Y-13826388D01*
X15003396Y-13826388D02*
X14993872Y-13807341D01*
X14993872Y-13807341D02*
X14974825Y-13797817D01*
X14974825Y-13797817D02*
X14946253Y-13797817D01*
X14946253Y-13797817D02*
X14927206Y-13788293D01*
X14927206Y-13788293D02*
X14917682Y-13769246D01*
X14917682Y-13769246D02*
X14917682Y-13759722D01*
X14917682Y-13759722D02*
X14927206Y-13740674D01*
X14927206Y-13740674D02*
X14946253Y-13731150D01*
X14946253Y-13731150D02*
X14974825Y-13731150D01*
X14974825Y-13731150D02*
X14993872Y-13740674D01*
X15070063Y-13940674D02*
X15079587Y-13931150D01*
X15079587Y-13931150D02*
X15098634Y-13902579D01*
X15098634Y-13902579D02*
X15108158Y-13883531D01*
X15108158Y-13883531D02*
X15117682Y-13854960D01*
X15117682Y-13854960D02*
X15127206Y-13807341D01*
X15127206Y-13807341D02*
X15127206Y-13769246D01*
X15127206Y-13769246D02*
X15117682Y-13721627D01*
X15117682Y-13721627D02*
X15108158Y-13693055D01*
X15108158Y-13693055D02*
X15098634Y-13674008D01*
X15098634Y-13674008D02*
X15079587Y-13645436D01*
X15079587Y-13645436D02*
X15070063Y-13635912D01*
D13*
X10270105Y-14103105D02*
X10270105Y-13982895D01*
X10149895Y-13982895D01*
X10149895Y-14103105D01*
X10270105Y-14103105D01*
D11*
X10660539Y-14134484D02*
X10546253Y-14134484D01*
X10603396Y-14134484D02*
X10603396Y-13934484D01*
X10603396Y-13934484D02*
X10584348Y-13963055D01*
X10584348Y-13963055D02*
X10565301Y-13982103D01*
X10565301Y-13982103D02*
X10546253Y-13991627D01*
X10746253Y-14115436D02*
X10755777Y-14124960D01*
X10755777Y-14124960D02*
X10746253Y-14134484D01*
X10746253Y-14134484D02*
X10736729Y-14124960D01*
X10736729Y-14124960D02*
X10746253Y-14115436D01*
X10746253Y-14115436D02*
X10746253Y-14134484D01*
X10822444Y-13934484D02*
X10955777Y-13934484D01*
X10955777Y-13934484D02*
X10870063Y-14134484D01*
X11070063Y-13934484D02*
X11089110Y-13934484D01*
X11089110Y-13934484D02*
X11108158Y-13944008D01*
X11108158Y-13944008D02*
X11117682Y-13953531D01*
X11117682Y-13953531D02*
X11127205Y-13972579D01*
X11127205Y-13972579D02*
X11136729Y-14010674D01*
X11136729Y-14010674D02*
X11136729Y-14058293D01*
X11136729Y-14058293D02*
X11127205Y-14096388D01*
X11127205Y-14096388D02*
X11117682Y-14115436D01*
X11117682Y-14115436D02*
X11108158Y-14124960D01*
X11108158Y-14124960D02*
X11089110Y-14134484D01*
X11089110Y-14134484D02*
X11070063Y-14134484D01*
X11070063Y-14134484D02*
X11051015Y-14124960D01*
X11051015Y-14124960D02*
X11041491Y-14115436D01*
X11041491Y-14115436D02*
X11031967Y-14096388D01*
X11031967Y-14096388D02*
X11022444Y-14058293D01*
X11022444Y-14058293D02*
X11022444Y-14010674D01*
X11022444Y-14010674D02*
X11031967Y-13972579D01*
X11031967Y-13972579D02*
X11041491Y-13953531D01*
X11041491Y-13953531D02*
X11051015Y-13944008D01*
X11051015Y-13944008D02*
X11070063Y-13934484D01*
X11260539Y-13934484D02*
X11279586Y-13934484D01*
X11279586Y-13934484D02*
X11298634Y-13944008D01*
X11298634Y-13944008D02*
X11308158Y-13953531D01*
X11308158Y-13953531D02*
X11317682Y-13972579D01*
X11317682Y-13972579D02*
X11327205Y-14010674D01*
X11327205Y-14010674D02*
X11327205Y-14058293D01*
X11327205Y-14058293D02*
X11317682Y-14096388D01*
X11317682Y-14096388D02*
X11308158Y-14115436D01*
X11308158Y-14115436D02*
X11298634Y-14124960D01*
X11298634Y-14124960D02*
X11279586Y-14134484D01*
X11279586Y-14134484D02*
X11260539Y-14134484D01*
X11260539Y-14134484D02*
X11241491Y-14124960D01*
X11241491Y-14124960D02*
X11231967Y-14115436D01*
X11231967Y-14115436D02*
X11222443Y-14096388D01*
X11222443Y-14096388D02*
X11212920Y-14058293D01*
X11212920Y-14058293D02*
X11212920Y-14010674D01*
X11212920Y-14010674D02*
X11222443Y-13972579D01*
X11222443Y-13972579D02*
X11231967Y-13953531D01*
X11231967Y-13953531D02*
X11241491Y-13944008D01*
X11241491Y-13944008D02*
X11260539Y-13934484D01*
X11412920Y-14134484D02*
X11412920Y-14001150D01*
X11412920Y-14020198D02*
X11422443Y-14010674D01*
X11422443Y-14010674D02*
X11441491Y-14001150D01*
X11441491Y-14001150D02*
X11470063Y-14001150D01*
X11470063Y-14001150D02*
X11489110Y-14010674D01*
X11489110Y-14010674D02*
X11498634Y-14029722D01*
X11498634Y-14029722D02*
X11498634Y-14134484D01*
X11498634Y-14029722D02*
X11508158Y-14010674D01*
X11508158Y-14010674D02*
X11527205Y-14001150D01*
X11527205Y-14001150D02*
X11555777Y-14001150D01*
X11555777Y-14001150D02*
X11574824Y-14010674D01*
X11574824Y-14010674D02*
X11584348Y-14029722D01*
X11584348Y-14029722D02*
X11584348Y-14134484D01*
X11679586Y-14134484D02*
X11679586Y-14001150D01*
X11679586Y-14020198D02*
X11689110Y-14010674D01*
X11689110Y-14010674D02*
X11708158Y-14001150D01*
X11708158Y-14001150D02*
X11736729Y-14001150D01*
X11736729Y-14001150D02*
X11755777Y-14010674D01*
X11755777Y-14010674D02*
X11765301Y-14029722D01*
X11765301Y-14029722D02*
X11765301Y-14134484D01*
X11765301Y-14029722D02*
X11774824Y-14010674D01*
X11774824Y-14010674D02*
X11793872Y-14001150D01*
X11793872Y-14001150D02*
X11822443Y-14001150D01*
X11822443Y-14001150D02*
X11841491Y-14010674D01*
X11841491Y-14010674D02*
X11851015Y-14029722D01*
X11851015Y-14029722D02*
X11851015Y-14134484D01*
X12241491Y-13924960D02*
X12070063Y-14182103D01*
X12498634Y-13934484D02*
X12517682Y-13934484D01*
X12517682Y-13934484D02*
X12536729Y-13944008D01*
X12536729Y-13944008D02*
X12546253Y-13953531D01*
X12546253Y-13953531D02*
X12555777Y-13972579D01*
X12555777Y-13972579D02*
X12565301Y-14010674D01*
X12565301Y-14010674D02*
X12565301Y-14058293D01*
X12565301Y-14058293D02*
X12555777Y-14096388D01*
X12555777Y-14096388D02*
X12546253Y-14115436D01*
X12546253Y-14115436D02*
X12536729Y-14124960D01*
X12536729Y-14124960D02*
X12517682Y-14134484D01*
X12517682Y-14134484D02*
X12498634Y-14134484D01*
X12498634Y-14134484D02*
X12479586Y-14124960D01*
X12479586Y-14124960D02*
X12470063Y-14115436D01*
X12470063Y-14115436D02*
X12460539Y-14096388D01*
X12460539Y-14096388D02*
X12451015Y-14058293D01*
X12451015Y-14058293D02*
X12451015Y-14010674D01*
X12451015Y-14010674D02*
X12460539Y-13972579D01*
X12460539Y-13972579D02*
X12470063Y-13953531D01*
X12470063Y-13953531D02*
X12479586Y-13944008D01*
X12479586Y-13944008D02*
X12498634Y-13934484D01*
X12651015Y-14115436D02*
X12660539Y-14124960D01*
X12660539Y-14124960D02*
X12651015Y-14134484D01*
X12651015Y-14134484D02*
X12641491Y-14124960D01*
X12641491Y-14124960D02*
X12651015Y-14115436D01*
X12651015Y-14115436D02*
X12651015Y-14134484D01*
X12784348Y-13934484D02*
X12803396Y-13934484D01*
X12803396Y-13934484D02*
X12822444Y-13944008D01*
X12822444Y-13944008D02*
X12831967Y-13953531D01*
X12831967Y-13953531D02*
X12841491Y-13972579D01*
X12841491Y-13972579D02*
X12851015Y-14010674D01*
X12851015Y-14010674D02*
X12851015Y-14058293D01*
X12851015Y-14058293D02*
X12841491Y-14096388D01*
X12841491Y-14096388D02*
X12831967Y-14115436D01*
X12831967Y-14115436D02*
X12822444Y-14124960D01*
X12822444Y-14124960D02*
X12803396Y-14134484D01*
X12803396Y-14134484D02*
X12784348Y-14134484D01*
X12784348Y-14134484D02*
X12765301Y-14124960D01*
X12765301Y-14124960D02*
X12755777Y-14115436D01*
X12755777Y-14115436D02*
X12746253Y-14096388D01*
X12746253Y-14096388D02*
X12736729Y-14058293D01*
X12736729Y-14058293D02*
X12736729Y-14010674D01*
X12736729Y-14010674D02*
X12746253Y-13972579D01*
X12746253Y-13972579D02*
X12755777Y-13953531D01*
X12755777Y-13953531D02*
X12765301Y-13944008D01*
X12765301Y-13944008D02*
X12784348Y-13934484D01*
X13022444Y-13934484D02*
X12984348Y-13934484D01*
X12984348Y-13934484D02*
X12965301Y-13944008D01*
X12965301Y-13944008D02*
X12955777Y-13953531D01*
X12955777Y-13953531D02*
X12936729Y-13982103D01*
X12936729Y-13982103D02*
X12927206Y-14020198D01*
X12927206Y-14020198D02*
X12927206Y-14096388D01*
X12927206Y-14096388D02*
X12936729Y-14115436D01*
X12936729Y-14115436D02*
X12946253Y-14124960D01*
X12946253Y-14124960D02*
X12965301Y-14134484D01*
X12965301Y-14134484D02*
X13003396Y-14134484D01*
X13003396Y-14134484D02*
X13022444Y-14124960D01*
X13022444Y-14124960D02*
X13031967Y-14115436D01*
X13031967Y-14115436D02*
X13041491Y-14096388D01*
X13041491Y-14096388D02*
X13041491Y-14048769D01*
X13041491Y-14048769D02*
X13031967Y-14029722D01*
X13031967Y-14029722D02*
X13022444Y-14020198D01*
X13022444Y-14020198D02*
X13003396Y-14010674D01*
X13003396Y-14010674D02*
X12965301Y-14010674D01*
X12965301Y-14010674D02*
X12946253Y-14020198D01*
X12946253Y-14020198D02*
X12936729Y-14029722D01*
X12936729Y-14029722D02*
X12927206Y-14048769D01*
X13212920Y-13934484D02*
X13174825Y-13934484D01*
X13174825Y-13934484D02*
X13155777Y-13944008D01*
X13155777Y-13944008D02*
X13146253Y-13953531D01*
X13146253Y-13953531D02*
X13127206Y-13982103D01*
X13127206Y-13982103D02*
X13117682Y-14020198D01*
X13117682Y-14020198D02*
X13117682Y-14096388D01*
X13117682Y-14096388D02*
X13127206Y-14115436D01*
X13127206Y-14115436D02*
X13136729Y-14124960D01*
X13136729Y-14124960D02*
X13155777Y-14134484D01*
X13155777Y-14134484D02*
X13193872Y-14134484D01*
X13193872Y-14134484D02*
X13212920Y-14124960D01*
X13212920Y-14124960D02*
X13222444Y-14115436D01*
X13222444Y-14115436D02*
X13231967Y-14096388D01*
X13231967Y-14096388D02*
X13231967Y-14048769D01*
X13231967Y-14048769D02*
X13222444Y-14029722D01*
X13222444Y-14029722D02*
X13212920Y-14020198D01*
X13212920Y-14020198D02*
X13193872Y-14010674D01*
X13193872Y-14010674D02*
X13155777Y-14010674D01*
X13155777Y-14010674D02*
X13136729Y-14020198D01*
X13136729Y-14020198D02*
X13127206Y-14029722D01*
X13127206Y-14029722D02*
X13117682Y-14048769D01*
X13327206Y-14134484D02*
X13365301Y-14134484D01*
X13365301Y-14134484D02*
X13384348Y-14124960D01*
X13384348Y-14124960D02*
X13393872Y-14115436D01*
X13393872Y-14115436D02*
X13412920Y-14086865D01*
X13412920Y-14086865D02*
X13422444Y-14048769D01*
X13422444Y-14048769D02*
X13422444Y-13972579D01*
X13422444Y-13972579D02*
X13412920Y-13953531D01*
X13412920Y-13953531D02*
X13403396Y-13944008D01*
X13403396Y-13944008D02*
X13384348Y-13934484D01*
X13384348Y-13934484D02*
X13346253Y-13934484D01*
X13346253Y-13934484D02*
X13327206Y-13944008D01*
X13327206Y-13944008D02*
X13317682Y-13953531D01*
X13317682Y-13953531D02*
X13308158Y-13972579D01*
X13308158Y-13972579D02*
X13308158Y-14020198D01*
X13308158Y-14020198D02*
X13317682Y-14039246D01*
X13317682Y-14039246D02*
X13327206Y-14048769D01*
X13327206Y-14048769D02*
X13346253Y-14058293D01*
X13346253Y-14058293D02*
X13384348Y-14058293D01*
X13384348Y-14058293D02*
X13403396Y-14048769D01*
X13403396Y-14048769D02*
X13412920Y-14039246D01*
X13412920Y-14039246D02*
X13422444Y-14020198D01*
X13498634Y-13934484D02*
X13498634Y-13972579D01*
X13574825Y-13934484D02*
X13574825Y-13972579D01*
X13870063Y-14210674D02*
X13860539Y-14201150D01*
X13860539Y-14201150D02*
X13841491Y-14172579D01*
X13841491Y-14172579D02*
X13831968Y-14153531D01*
X13831968Y-14153531D02*
X13822444Y-14124960D01*
X13822444Y-14124960D02*
X13812920Y-14077341D01*
X13812920Y-14077341D02*
X13812920Y-14039246D01*
X13812920Y-14039246D02*
X13822444Y-13991627D01*
X13822444Y-13991627D02*
X13831968Y-13963055D01*
X13831968Y-13963055D02*
X13841491Y-13944008D01*
X13841491Y-13944008D02*
X13860539Y-13915436D01*
X13860539Y-13915436D02*
X13870063Y-13905912D01*
X13974825Y-14020198D02*
X13955777Y-14010674D01*
X13955777Y-14010674D02*
X13946253Y-14001150D01*
X13946253Y-14001150D02*
X13936729Y-13982103D01*
X13936729Y-13982103D02*
X13936729Y-13972579D01*
X13936729Y-13972579D02*
X13946253Y-13953531D01*
X13946253Y-13953531D02*
X13955777Y-13944008D01*
X13955777Y-13944008D02*
X13974825Y-13934484D01*
X13974825Y-13934484D02*
X14012920Y-13934484D01*
X14012920Y-13934484D02*
X14031968Y-13944008D01*
X14031968Y-13944008D02*
X14041491Y-13953531D01*
X14041491Y-13953531D02*
X14051015Y-13972579D01*
X14051015Y-13972579D02*
X14051015Y-13982103D01*
X14051015Y-13982103D02*
X14041491Y-14001150D01*
X14041491Y-14001150D02*
X14031968Y-14010674D01*
X14031968Y-14010674D02*
X14012920Y-14020198D01*
X14012920Y-14020198D02*
X13974825Y-14020198D01*
X13974825Y-14020198D02*
X13955777Y-14029722D01*
X13955777Y-14029722D02*
X13946253Y-14039246D01*
X13946253Y-14039246D02*
X13936729Y-14058293D01*
X13936729Y-14058293D02*
X13936729Y-14096388D01*
X13936729Y-14096388D02*
X13946253Y-14115436D01*
X13946253Y-14115436D02*
X13955777Y-14124960D01*
X13955777Y-14124960D02*
X13974825Y-14134484D01*
X13974825Y-14134484D02*
X14012920Y-14134484D01*
X14012920Y-14134484D02*
X14031968Y-14124960D01*
X14031968Y-14124960D02*
X14041491Y-14115436D01*
X14041491Y-14115436D02*
X14051015Y-14096388D01*
X14051015Y-14096388D02*
X14051015Y-14058293D01*
X14051015Y-14058293D02*
X14041491Y-14039246D01*
X14041491Y-14039246D02*
X14031968Y-14029722D01*
X14031968Y-14029722D02*
X14012920Y-14020198D01*
X14289110Y-14134484D02*
X14289110Y-13934484D01*
X14374825Y-14134484D02*
X14374825Y-14029722D01*
X14374825Y-14029722D02*
X14365301Y-14010674D01*
X14365301Y-14010674D02*
X14346253Y-14001150D01*
X14346253Y-14001150D02*
X14317682Y-14001150D01*
X14317682Y-14001150D02*
X14298634Y-14010674D01*
X14298634Y-14010674D02*
X14289110Y-14020198D01*
X14498634Y-14134484D02*
X14479587Y-14124960D01*
X14479587Y-14124960D02*
X14470063Y-14115436D01*
X14470063Y-14115436D02*
X14460539Y-14096388D01*
X14460539Y-14096388D02*
X14460539Y-14039246D01*
X14460539Y-14039246D02*
X14470063Y-14020198D01*
X14470063Y-14020198D02*
X14479587Y-14010674D01*
X14479587Y-14010674D02*
X14498634Y-14001150D01*
X14498634Y-14001150D02*
X14527206Y-14001150D01*
X14527206Y-14001150D02*
X14546253Y-14010674D01*
X14546253Y-14010674D02*
X14555777Y-14020198D01*
X14555777Y-14020198D02*
X14565301Y-14039246D01*
X14565301Y-14039246D02*
X14565301Y-14096388D01*
X14565301Y-14096388D02*
X14555777Y-14115436D01*
X14555777Y-14115436D02*
X14546253Y-14124960D01*
X14546253Y-14124960D02*
X14527206Y-14134484D01*
X14527206Y-14134484D02*
X14498634Y-14134484D01*
X14679587Y-14134484D02*
X14660539Y-14124960D01*
X14660539Y-14124960D02*
X14651015Y-14105912D01*
X14651015Y-14105912D02*
X14651015Y-13934484D01*
X14831968Y-14124960D02*
X14812920Y-14134484D01*
X14812920Y-14134484D02*
X14774825Y-14134484D01*
X14774825Y-14134484D02*
X14755777Y-14124960D01*
X14755777Y-14124960D02*
X14746253Y-14105912D01*
X14746253Y-14105912D02*
X14746253Y-14029722D01*
X14746253Y-14029722D02*
X14755777Y-14010674D01*
X14755777Y-14010674D02*
X14774825Y-14001150D01*
X14774825Y-14001150D02*
X14812920Y-14001150D01*
X14812920Y-14001150D02*
X14831968Y-14010674D01*
X14831968Y-14010674D02*
X14841491Y-14029722D01*
X14841491Y-14029722D02*
X14841491Y-14048769D01*
X14841491Y-14048769D02*
X14746253Y-14067817D01*
X14917682Y-14124960D02*
X14936730Y-14134484D01*
X14936730Y-14134484D02*
X14974825Y-14134484D01*
X14974825Y-14134484D02*
X14993872Y-14124960D01*
X14993872Y-14124960D02*
X15003396Y-14105912D01*
X15003396Y-14105912D02*
X15003396Y-14096388D01*
X15003396Y-14096388D02*
X14993872Y-14077341D01*
X14993872Y-14077341D02*
X14974825Y-14067817D01*
X14974825Y-14067817D02*
X14946253Y-14067817D01*
X14946253Y-14067817D02*
X14927206Y-14058293D01*
X14927206Y-14058293D02*
X14917682Y-14039246D01*
X14917682Y-14039246D02*
X14917682Y-14029722D01*
X14917682Y-14029722D02*
X14927206Y-14010674D01*
X14927206Y-14010674D02*
X14946253Y-14001150D01*
X14946253Y-14001150D02*
X14974825Y-14001150D01*
X14974825Y-14001150D02*
X14993872Y-14010674D01*
X15070063Y-14210674D02*
X15079587Y-14201150D01*
X15079587Y-14201150D02*
X15098634Y-14172579D01*
X15098634Y-14172579D02*
X15108158Y-14153531D01*
X15108158Y-14153531D02*
X15117682Y-14124960D01*
X15117682Y-14124960D02*
X15127206Y-14077341D01*
X15127206Y-14077341D02*
X15127206Y-14039246D01*
X15127206Y-14039246D02*
X15117682Y-13991627D01*
X15117682Y-13991627D02*
X15108158Y-13963055D01*
X15108158Y-13963055D02*
X15098634Y-13944008D01*
X15098634Y-13944008D02*
X15079587Y-13915436D01*
X15079587Y-13915436D02*
X15070063Y-13905912D01*
M02*
