G04 #@! TF.GenerationSoftware,KiCad,Pcbnew,9.0.7*
G04 #@! TF.CreationDate,2026-03-08T21:17:58+01:00*
G04 #@! TF.ProjectId,LightspeedLaserDriver,4c696768-7473-4706-9565-644c61736572,rev?*
G04 #@! TF.SameCoordinates,Original*
G04 #@! TF.FileFunction,Legend,Bot*
G04 #@! TF.FilePolarity,Positive*
%FSLAX46Y46*%
G04 Gerber Fmt 4.6, Leading zero omitted, Abs format (unit mm)*
G04 Created by KiCad (PCBNEW 9.0.7) date 2026-03-08 21:17:58*
%MOMM*%
%LPD*%
G01*
G04 APERTURE LIST*
%ADD10C,0.200000*%
G04 APERTURE END LIST*
D10*
X138345593Y-115761905D02*
X138345593Y-116095238D01*
X137717022Y-116095238D02*
X138917022Y-116095238D01*
X138917022Y-116095238D02*
X138917022Y-115619048D01*
X137717022Y-115238095D02*
X138517022Y-115238095D01*
X138917022Y-115238095D02*
X138859879Y-115285714D01*
X138859879Y-115285714D02*
X138802736Y-115238095D01*
X138802736Y-115238095D02*
X138859879Y-115190476D01*
X138859879Y-115190476D02*
X138917022Y-115238095D01*
X138917022Y-115238095D02*
X138802736Y-115238095D01*
X137717022Y-114857143D02*
X138517022Y-114333334D01*
X138517022Y-114857143D02*
X137717022Y-114333334D01*
X137774165Y-113571429D02*
X137717022Y-113666667D01*
X137717022Y-113666667D02*
X137717022Y-113857143D01*
X137717022Y-113857143D02*
X137774165Y-113952381D01*
X137774165Y-113952381D02*
X137888450Y-114000000D01*
X137888450Y-114000000D02*
X138345593Y-114000000D01*
X138345593Y-114000000D02*
X138459879Y-113952381D01*
X138459879Y-113952381D02*
X138517022Y-113857143D01*
X138517022Y-113857143D02*
X138517022Y-113666667D01*
X138517022Y-113666667D02*
X138459879Y-113571429D01*
X138459879Y-113571429D02*
X138345593Y-113523810D01*
X138345593Y-113523810D02*
X138231307Y-113523810D01*
X138231307Y-113523810D02*
X138117022Y-114000000D01*
X137717022Y-112666667D02*
X138917022Y-112666667D01*
X137774165Y-112666667D02*
X137717022Y-112761905D01*
X137717022Y-112761905D02*
X137717022Y-112952381D01*
X137717022Y-112952381D02*
X137774165Y-113047619D01*
X137774165Y-113047619D02*
X137831307Y-113095238D01*
X137831307Y-113095238D02*
X137945593Y-113142857D01*
X137945593Y-113142857D02*
X138288450Y-113142857D01*
X138288450Y-113142857D02*
X138402736Y-113095238D01*
X138402736Y-113095238D02*
X138459879Y-113047619D01*
X138459879Y-113047619D02*
X138517022Y-112952381D01*
X138517022Y-112952381D02*
X138517022Y-112761905D01*
X138517022Y-112761905D02*
X138459879Y-112666667D01*
X137717022Y-111428571D02*
X138917022Y-111428571D01*
X138917022Y-111428571D02*
X138917022Y-111047619D01*
X138917022Y-111047619D02*
X138859879Y-110952381D01*
X138859879Y-110952381D02*
X138802736Y-110904762D01*
X138802736Y-110904762D02*
X138688450Y-110857143D01*
X138688450Y-110857143D02*
X138517022Y-110857143D01*
X138517022Y-110857143D02*
X138402736Y-110904762D01*
X138402736Y-110904762D02*
X138345593Y-110952381D01*
X138345593Y-110952381D02*
X138288450Y-111047619D01*
X138288450Y-111047619D02*
X138288450Y-111428571D01*
X138517022Y-110000000D02*
X137717022Y-110000000D01*
X138517022Y-110428571D02*
X137888450Y-110428571D01*
X137888450Y-110428571D02*
X137774165Y-110380952D01*
X137774165Y-110380952D02*
X137717022Y-110285714D01*
X137717022Y-110285714D02*
X137717022Y-110142857D01*
X137717022Y-110142857D02*
X137774165Y-110047619D01*
X137774165Y-110047619D02*
X137831307Y-110000000D01*
X137717022Y-109380952D02*
X137774165Y-109476190D01*
X137774165Y-109476190D02*
X137888450Y-109523809D01*
X137888450Y-109523809D02*
X138917022Y-109523809D01*
X137774165Y-109047618D02*
X137717022Y-108952380D01*
X137717022Y-108952380D02*
X137717022Y-108761904D01*
X137717022Y-108761904D02*
X137774165Y-108666666D01*
X137774165Y-108666666D02*
X137888450Y-108619047D01*
X137888450Y-108619047D02*
X137945593Y-108619047D01*
X137945593Y-108619047D02*
X138059879Y-108666666D01*
X138059879Y-108666666D02*
X138117022Y-108761904D01*
X138117022Y-108761904D02*
X138117022Y-108904761D01*
X138117022Y-108904761D02*
X138174165Y-108999999D01*
X138174165Y-108999999D02*
X138288450Y-109047618D01*
X138288450Y-109047618D02*
X138345593Y-109047618D01*
X138345593Y-109047618D02*
X138459879Y-108999999D01*
X138459879Y-108999999D02*
X138517022Y-108904761D01*
X138517022Y-108904761D02*
X138517022Y-108761904D01*
X138517022Y-108761904D02*
X138459879Y-108666666D01*
X137774165Y-107809523D02*
X137717022Y-107904761D01*
X137717022Y-107904761D02*
X137717022Y-108095237D01*
X137717022Y-108095237D02*
X137774165Y-108190475D01*
X137774165Y-108190475D02*
X137888450Y-108238094D01*
X137888450Y-108238094D02*
X138345593Y-108238094D01*
X138345593Y-108238094D02*
X138459879Y-108190475D01*
X138459879Y-108190475D02*
X138517022Y-108095237D01*
X138517022Y-108095237D02*
X138517022Y-107904761D01*
X138517022Y-107904761D02*
X138459879Y-107809523D01*
X138459879Y-107809523D02*
X138345593Y-107761904D01*
X138345593Y-107761904D02*
X138231307Y-107761904D01*
X138231307Y-107761904D02*
X138117022Y-108238094D01*
X138517022Y-107428570D02*
X137717022Y-107238094D01*
X137717022Y-107238094D02*
X138288450Y-107047618D01*
X138288450Y-107047618D02*
X137717022Y-106857142D01*
X137717022Y-106857142D02*
X138517022Y-106666666D01*
X137717022Y-106285713D02*
X138517022Y-106285713D01*
X138917022Y-106285713D02*
X138859879Y-106333332D01*
X138859879Y-106333332D02*
X138802736Y-106285713D01*
X138802736Y-106285713D02*
X138859879Y-106238094D01*
X138859879Y-106238094D02*
X138917022Y-106285713D01*
X138917022Y-106285713D02*
X138802736Y-106285713D01*
X137717022Y-105380952D02*
X138917022Y-105380952D01*
X137774165Y-105380952D02*
X137717022Y-105476190D01*
X137717022Y-105476190D02*
X137717022Y-105666666D01*
X137717022Y-105666666D02*
X137774165Y-105761904D01*
X137774165Y-105761904D02*
X137831307Y-105809523D01*
X137831307Y-105809523D02*
X137945593Y-105857142D01*
X137945593Y-105857142D02*
X138288450Y-105857142D01*
X138288450Y-105857142D02*
X138402736Y-105809523D01*
X138402736Y-105809523D02*
X138459879Y-105761904D01*
X138459879Y-105761904D02*
X138517022Y-105666666D01*
X138517022Y-105666666D02*
X138517022Y-105476190D01*
X138517022Y-105476190D02*
X138459879Y-105380952D01*
X138517022Y-105047618D02*
X138517022Y-104666666D01*
X138917022Y-104904761D02*
X137888450Y-104904761D01*
X137888450Y-104904761D02*
X137774165Y-104857142D01*
X137774165Y-104857142D02*
X137717022Y-104761904D01*
X137717022Y-104761904D02*
X137717022Y-104666666D01*
X137717022Y-104333332D02*
X138917022Y-104333332D01*
X137717022Y-103904761D02*
X138345593Y-103904761D01*
X138345593Y-103904761D02*
X138459879Y-103952380D01*
X138459879Y-103952380D02*
X138517022Y-104047618D01*
X138517022Y-104047618D02*
X138517022Y-104190475D01*
X138517022Y-104190475D02*
X138459879Y-104285713D01*
X138459879Y-104285713D02*
X138402736Y-104333332D01*
X136127946Y-118476191D02*
X136127946Y-118000001D01*
X135785089Y-118571429D02*
X136985089Y-118238096D01*
X136985089Y-118238096D02*
X135785089Y-117904763D01*
X136585089Y-117666667D02*
X135785089Y-117428572D01*
X135785089Y-117428572D02*
X136585089Y-117190477D01*
X135785089Y-116380953D02*
X136413660Y-116380953D01*
X136413660Y-116380953D02*
X136527946Y-116428572D01*
X136527946Y-116428572D02*
X136585089Y-116523810D01*
X136585089Y-116523810D02*
X136585089Y-116714286D01*
X136585089Y-116714286D02*
X136527946Y-116809524D01*
X135842232Y-116380953D02*
X135785089Y-116476191D01*
X135785089Y-116476191D02*
X135785089Y-116714286D01*
X135785089Y-116714286D02*
X135842232Y-116809524D01*
X135842232Y-116809524D02*
X135956517Y-116857143D01*
X135956517Y-116857143D02*
X136070803Y-116857143D01*
X136070803Y-116857143D02*
X136185089Y-116809524D01*
X136185089Y-116809524D02*
X136242232Y-116714286D01*
X136242232Y-116714286D02*
X136242232Y-116476191D01*
X136242232Y-116476191D02*
X136299374Y-116380953D01*
X135785089Y-115761905D02*
X135842232Y-115857143D01*
X135842232Y-115857143D02*
X135956517Y-115904762D01*
X135956517Y-115904762D02*
X136985089Y-115904762D01*
X135785089Y-114952381D02*
X136413660Y-114952381D01*
X136413660Y-114952381D02*
X136527946Y-115000000D01*
X136527946Y-115000000D02*
X136585089Y-115095238D01*
X136585089Y-115095238D02*
X136585089Y-115285714D01*
X136585089Y-115285714D02*
X136527946Y-115380952D01*
X135842232Y-114952381D02*
X135785089Y-115047619D01*
X135785089Y-115047619D02*
X135785089Y-115285714D01*
X135785089Y-115285714D02*
X135842232Y-115380952D01*
X135842232Y-115380952D02*
X135956517Y-115428571D01*
X135956517Y-115428571D02*
X136070803Y-115428571D01*
X136070803Y-115428571D02*
X136185089Y-115380952D01*
X136185089Y-115380952D02*
X136242232Y-115285714D01*
X136242232Y-115285714D02*
X136242232Y-115047619D01*
X136242232Y-115047619D02*
X136299374Y-114952381D01*
X136585089Y-114476190D02*
X135785089Y-114476190D01*
X136470803Y-114476190D02*
X136527946Y-114428571D01*
X136527946Y-114428571D02*
X136585089Y-114333333D01*
X136585089Y-114333333D02*
X136585089Y-114190476D01*
X136585089Y-114190476D02*
X136527946Y-114095238D01*
X136527946Y-114095238D02*
X136413660Y-114047619D01*
X136413660Y-114047619D02*
X135785089Y-114047619D01*
X135842232Y-113142857D02*
X135785089Y-113238095D01*
X135785089Y-113238095D02*
X135785089Y-113428571D01*
X135785089Y-113428571D02*
X135842232Y-113523809D01*
X135842232Y-113523809D02*
X135899374Y-113571428D01*
X135899374Y-113571428D02*
X136013660Y-113619047D01*
X136013660Y-113619047D02*
X136356517Y-113619047D01*
X136356517Y-113619047D02*
X136470803Y-113571428D01*
X136470803Y-113571428D02*
X136527946Y-113523809D01*
X136527946Y-113523809D02*
X136585089Y-113428571D01*
X136585089Y-113428571D02*
X136585089Y-113238095D01*
X136585089Y-113238095D02*
X136527946Y-113142857D01*
X135785089Y-112714285D02*
X136985089Y-112714285D01*
X135785089Y-112285714D02*
X136413660Y-112285714D01*
X136413660Y-112285714D02*
X136527946Y-112333333D01*
X136527946Y-112333333D02*
X136585089Y-112428571D01*
X136585089Y-112428571D02*
X136585089Y-112571428D01*
X136585089Y-112571428D02*
X136527946Y-112666666D01*
X136527946Y-112666666D02*
X136470803Y-112714285D01*
X135842232Y-111428571D02*
X135785089Y-111523809D01*
X135785089Y-111523809D02*
X135785089Y-111714285D01*
X135785089Y-111714285D02*
X135842232Y-111809523D01*
X135842232Y-111809523D02*
X135956517Y-111857142D01*
X135956517Y-111857142D02*
X136413660Y-111857142D01*
X136413660Y-111857142D02*
X136527946Y-111809523D01*
X136527946Y-111809523D02*
X136585089Y-111714285D01*
X136585089Y-111714285D02*
X136585089Y-111523809D01*
X136585089Y-111523809D02*
X136527946Y-111428571D01*
X136527946Y-111428571D02*
X136413660Y-111380952D01*
X136413660Y-111380952D02*
X136299374Y-111380952D01*
X136299374Y-111380952D02*
X136185089Y-111857142D01*
X135785089Y-109714285D02*
X135785089Y-110190475D01*
X135785089Y-110190475D02*
X136985089Y-110190475D01*
X135785089Y-108952380D02*
X136413660Y-108952380D01*
X136413660Y-108952380D02*
X136527946Y-108999999D01*
X136527946Y-108999999D02*
X136585089Y-109095237D01*
X136585089Y-109095237D02*
X136585089Y-109285713D01*
X136585089Y-109285713D02*
X136527946Y-109380951D01*
X135842232Y-108952380D02*
X135785089Y-109047618D01*
X135785089Y-109047618D02*
X135785089Y-109285713D01*
X135785089Y-109285713D02*
X135842232Y-109380951D01*
X135842232Y-109380951D02*
X135956517Y-109428570D01*
X135956517Y-109428570D02*
X136070803Y-109428570D01*
X136070803Y-109428570D02*
X136185089Y-109380951D01*
X136185089Y-109380951D02*
X136242232Y-109285713D01*
X136242232Y-109285713D02*
X136242232Y-109047618D01*
X136242232Y-109047618D02*
X136299374Y-108952380D01*
X135842232Y-108523808D02*
X135785089Y-108428570D01*
X135785089Y-108428570D02*
X135785089Y-108238094D01*
X135785089Y-108238094D02*
X135842232Y-108142856D01*
X135842232Y-108142856D02*
X135956517Y-108095237D01*
X135956517Y-108095237D02*
X136013660Y-108095237D01*
X136013660Y-108095237D02*
X136127946Y-108142856D01*
X136127946Y-108142856D02*
X136185089Y-108238094D01*
X136185089Y-108238094D02*
X136185089Y-108380951D01*
X136185089Y-108380951D02*
X136242232Y-108476189D01*
X136242232Y-108476189D02*
X136356517Y-108523808D01*
X136356517Y-108523808D02*
X136413660Y-108523808D01*
X136413660Y-108523808D02*
X136527946Y-108476189D01*
X136527946Y-108476189D02*
X136585089Y-108380951D01*
X136585089Y-108380951D02*
X136585089Y-108238094D01*
X136585089Y-108238094D02*
X136527946Y-108142856D01*
X135842232Y-107285713D02*
X135785089Y-107380951D01*
X135785089Y-107380951D02*
X135785089Y-107571427D01*
X135785089Y-107571427D02*
X135842232Y-107666665D01*
X135842232Y-107666665D02*
X135956517Y-107714284D01*
X135956517Y-107714284D02*
X136413660Y-107714284D01*
X136413660Y-107714284D02*
X136527946Y-107666665D01*
X136527946Y-107666665D02*
X136585089Y-107571427D01*
X136585089Y-107571427D02*
X136585089Y-107380951D01*
X136585089Y-107380951D02*
X136527946Y-107285713D01*
X136527946Y-107285713D02*
X136413660Y-107238094D01*
X136413660Y-107238094D02*
X136299374Y-107238094D01*
X136299374Y-107238094D02*
X136185089Y-107714284D01*
X135785089Y-106809522D02*
X136585089Y-106809522D01*
X136356517Y-106809522D02*
X136470803Y-106761903D01*
X136470803Y-106761903D02*
X136527946Y-106714284D01*
X136527946Y-106714284D02*
X136585089Y-106619046D01*
X136585089Y-106619046D02*
X136585089Y-106523808D01*
X135785089Y-105428569D02*
X136985089Y-105428569D01*
X136985089Y-105428569D02*
X136985089Y-105190474D01*
X136985089Y-105190474D02*
X136927946Y-105047617D01*
X136927946Y-105047617D02*
X136813660Y-104952379D01*
X136813660Y-104952379D02*
X136699374Y-104904760D01*
X136699374Y-104904760D02*
X136470803Y-104857141D01*
X136470803Y-104857141D02*
X136299374Y-104857141D01*
X136299374Y-104857141D02*
X136070803Y-104904760D01*
X136070803Y-104904760D02*
X135956517Y-104952379D01*
X135956517Y-104952379D02*
X135842232Y-105047617D01*
X135842232Y-105047617D02*
X135785089Y-105190474D01*
X135785089Y-105190474D02*
X135785089Y-105428569D01*
X135785089Y-104428569D02*
X136585089Y-104428569D01*
X136356517Y-104428569D02*
X136470803Y-104380950D01*
X136470803Y-104380950D02*
X136527946Y-104333331D01*
X136527946Y-104333331D02*
X136585089Y-104238093D01*
X136585089Y-104238093D02*
X136585089Y-104142855D01*
X135785089Y-103809521D02*
X136585089Y-103809521D01*
X136985089Y-103809521D02*
X136927946Y-103857140D01*
X136927946Y-103857140D02*
X136870803Y-103809521D01*
X136870803Y-103809521D02*
X136927946Y-103761902D01*
X136927946Y-103761902D02*
X136985089Y-103809521D01*
X136985089Y-103809521D02*
X136870803Y-103809521D01*
X136585089Y-103428569D02*
X135785089Y-103190474D01*
X135785089Y-103190474D02*
X136585089Y-102952379D01*
X135842232Y-102190474D02*
X135785089Y-102285712D01*
X135785089Y-102285712D02*
X135785089Y-102476188D01*
X135785089Y-102476188D02*
X135842232Y-102571426D01*
X135842232Y-102571426D02*
X135956517Y-102619045D01*
X135956517Y-102619045D02*
X136413660Y-102619045D01*
X136413660Y-102619045D02*
X136527946Y-102571426D01*
X136527946Y-102571426D02*
X136585089Y-102476188D01*
X136585089Y-102476188D02*
X136585089Y-102285712D01*
X136585089Y-102285712D02*
X136527946Y-102190474D01*
X136527946Y-102190474D02*
X136413660Y-102142855D01*
X136413660Y-102142855D02*
X136299374Y-102142855D01*
X136299374Y-102142855D02*
X136185089Y-102619045D01*
X135785089Y-101714283D02*
X136585089Y-101714283D01*
X136356517Y-101714283D02*
X136470803Y-101666664D01*
X136470803Y-101666664D02*
X136527946Y-101619045D01*
X136527946Y-101619045D02*
X136585089Y-101523807D01*
X136585089Y-101523807D02*
X136585089Y-101428569D01*
X133121223Y-116285715D02*
X133121223Y-116095239D01*
X133121223Y-116095239D02*
X133064080Y-116000001D01*
X133064080Y-116000001D02*
X132949794Y-115904763D01*
X132949794Y-115904763D02*
X132721223Y-115857144D01*
X132721223Y-115857144D02*
X132321223Y-115857144D01*
X132321223Y-115857144D02*
X132092651Y-115904763D01*
X132092651Y-115904763D02*
X131978366Y-116000001D01*
X131978366Y-116000001D02*
X131921223Y-116095239D01*
X131921223Y-116095239D02*
X131921223Y-116285715D01*
X131921223Y-116285715D02*
X131978366Y-116380953D01*
X131978366Y-116380953D02*
X132092651Y-116476191D01*
X132092651Y-116476191D02*
X132321223Y-116523810D01*
X132321223Y-116523810D02*
X132721223Y-116523810D01*
X132721223Y-116523810D02*
X132949794Y-116476191D01*
X132949794Y-116476191D02*
X133064080Y-116380953D01*
X133064080Y-116380953D02*
X133121223Y-116285715D01*
X132721223Y-115000001D02*
X131921223Y-115000001D01*
X132721223Y-115428572D02*
X132092651Y-115428572D01*
X132092651Y-115428572D02*
X131978366Y-115380953D01*
X131978366Y-115380953D02*
X131921223Y-115285715D01*
X131921223Y-115285715D02*
X131921223Y-115142858D01*
X131921223Y-115142858D02*
X131978366Y-115047620D01*
X131978366Y-115047620D02*
X132035508Y-115000001D01*
X132721223Y-114666667D02*
X132721223Y-114285715D01*
X133121223Y-114523810D02*
X132092651Y-114523810D01*
X132092651Y-114523810D02*
X131978366Y-114476191D01*
X131978366Y-114476191D02*
X131921223Y-114380953D01*
X131921223Y-114380953D02*
X131921223Y-114285715D01*
X132721223Y-113952381D02*
X131521223Y-113952381D01*
X132664080Y-113952381D02*
X132721223Y-113857143D01*
X132721223Y-113857143D02*
X132721223Y-113666667D01*
X132721223Y-113666667D02*
X132664080Y-113571429D01*
X132664080Y-113571429D02*
X132606937Y-113523810D01*
X132606937Y-113523810D02*
X132492651Y-113476191D01*
X132492651Y-113476191D02*
X132149794Y-113476191D01*
X132149794Y-113476191D02*
X132035508Y-113523810D01*
X132035508Y-113523810D02*
X131978366Y-113571429D01*
X131978366Y-113571429D02*
X131921223Y-113666667D01*
X131921223Y-113666667D02*
X131921223Y-113857143D01*
X131921223Y-113857143D02*
X131978366Y-113952381D01*
X132721223Y-112619048D02*
X131921223Y-112619048D01*
X132721223Y-113047619D02*
X132092651Y-113047619D01*
X132092651Y-113047619D02*
X131978366Y-113000000D01*
X131978366Y-113000000D02*
X131921223Y-112904762D01*
X131921223Y-112904762D02*
X131921223Y-112761905D01*
X131921223Y-112761905D02*
X131978366Y-112666667D01*
X131978366Y-112666667D02*
X132035508Y-112619048D01*
X132721223Y-112285714D02*
X132721223Y-111904762D01*
X133121223Y-112142857D02*
X132092651Y-112142857D01*
X132092651Y-112142857D02*
X131978366Y-112095238D01*
X131978366Y-112095238D02*
X131921223Y-112000000D01*
X131921223Y-112000000D02*
X131921223Y-111904762D01*
X131921223Y-110380952D02*
X132549794Y-110380952D01*
X132549794Y-110380952D02*
X132664080Y-110428571D01*
X132664080Y-110428571D02*
X132721223Y-110523809D01*
X132721223Y-110523809D02*
X132721223Y-110714285D01*
X132721223Y-110714285D02*
X132664080Y-110809523D01*
X131978366Y-110380952D02*
X131921223Y-110476190D01*
X131921223Y-110476190D02*
X131921223Y-110714285D01*
X131921223Y-110714285D02*
X131978366Y-110809523D01*
X131978366Y-110809523D02*
X132092651Y-110857142D01*
X132092651Y-110857142D02*
X132206937Y-110857142D01*
X132206937Y-110857142D02*
X132321223Y-110809523D01*
X132321223Y-110809523D02*
X132378366Y-110714285D01*
X132378366Y-110714285D02*
X132378366Y-110476190D01*
X132378366Y-110476190D02*
X132435508Y-110380952D01*
X131921223Y-109476190D02*
X133121223Y-109476190D01*
X131978366Y-109476190D02*
X131921223Y-109571428D01*
X131921223Y-109571428D02*
X131921223Y-109761904D01*
X131921223Y-109761904D02*
X131978366Y-109857142D01*
X131978366Y-109857142D02*
X132035508Y-109904761D01*
X132035508Y-109904761D02*
X132149794Y-109952380D01*
X132149794Y-109952380D02*
X132492651Y-109952380D01*
X132492651Y-109952380D02*
X132606937Y-109904761D01*
X132606937Y-109904761D02*
X132664080Y-109857142D01*
X132664080Y-109857142D02*
X132721223Y-109761904D01*
X132721223Y-109761904D02*
X132721223Y-109571428D01*
X132721223Y-109571428D02*
X132664080Y-109476190D01*
X132721223Y-108999999D02*
X131692651Y-108999999D01*
X131692651Y-108999999D02*
X131578366Y-109047618D01*
X131578366Y-109047618D02*
X131521223Y-109142856D01*
X131521223Y-109142856D02*
X131521223Y-109190475D01*
X133121223Y-108999999D02*
X133064080Y-109047618D01*
X133064080Y-109047618D02*
X133006937Y-108999999D01*
X133006937Y-108999999D02*
X133064080Y-108952380D01*
X133064080Y-108952380D02*
X133121223Y-108999999D01*
X133121223Y-108999999D02*
X133006937Y-108999999D01*
X132721223Y-108095238D02*
X131921223Y-108095238D01*
X132721223Y-108523809D02*
X132092651Y-108523809D01*
X132092651Y-108523809D02*
X131978366Y-108476190D01*
X131978366Y-108476190D02*
X131921223Y-108380952D01*
X131921223Y-108380952D02*
X131921223Y-108238095D01*
X131921223Y-108238095D02*
X131978366Y-108142857D01*
X131978366Y-108142857D02*
X132035508Y-108095238D01*
X131978366Y-107666666D02*
X131921223Y-107571428D01*
X131921223Y-107571428D02*
X131921223Y-107380952D01*
X131921223Y-107380952D02*
X131978366Y-107285714D01*
X131978366Y-107285714D02*
X132092651Y-107238095D01*
X132092651Y-107238095D02*
X132149794Y-107238095D01*
X132149794Y-107238095D02*
X132264080Y-107285714D01*
X132264080Y-107285714D02*
X132321223Y-107380952D01*
X132321223Y-107380952D02*
X132321223Y-107523809D01*
X132321223Y-107523809D02*
X132378366Y-107619047D01*
X132378366Y-107619047D02*
X132492651Y-107666666D01*
X132492651Y-107666666D02*
X132549794Y-107666666D01*
X132549794Y-107666666D02*
X132664080Y-107619047D01*
X132664080Y-107619047D02*
X132721223Y-107523809D01*
X132721223Y-107523809D02*
X132721223Y-107380952D01*
X132721223Y-107380952D02*
X132664080Y-107285714D01*
X132721223Y-106952380D02*
X132721223Y-106571428D01*
X133121223Y-106809523D02*
X132092651Y-106809523D01*
X132092651Y-106809523D02*
X131978366Y-106761904D01*
X131978366Y-106761904D02*
X131921223Y-106666666D01*
X131921223Y-106666666D02*
X131921223Y-106571428D01*
X131921223Y-105809523D02*
X132549794Y-105809523D01*
X132549794Y-105809523D02*
X132664080Y-105857142D01*
X132664080Y-105857142D02*
X132721223Y-105952380D01*
X132721223Y-105952380D02*
X132721223Y-106142856D01*
X132721223Y-106142856D02*
X132664080Y-106238094D01*
X131978366Y-105809523D02*
X131921223Y-105904761D01*
X131921223Y-105904761D02*
X131921223Y-106142856D01*
X131921223Y-106142856D02*
X131978366Y-106238094D01*
X131978366Y-106238094D02*
X132092651Y-106285713D01*
X132092651Y-106285713D02*
X132206937Y-106285713D01*
X132206937Y-106285713D02*
X132321223Y-106238094D01*
X132321223Y-106238094D02*
X132378366Y-106142856D01*
X132378366Y-106142856D02*
X132378366Y-105904761D01*
X132378366Y-105904761D02*
X132435508Y-105809523D01*
X131921223Y-105333332D02*
X133121223Y-105333332D01*
X132664080Y-105333332D02*
X132721223Y-105238094D01*
X132721223Y-105238094D02*
X132721223Y-105047618D01*
X132721223Y-105047618D02*
X132664080Y-104952380D01*
X132664080Y-104952380D02*
X132606937Y-104904761D01*
X132606937Y-104904761D02*
X132492651Y-104857142D01*
X132492651Y-104857142D02*
X132149794Y-104857142D01*
X132149794Y-104857142D02*
X132035508Y-104904761D01*
X132035508Y-104904761D02*
X131978366Y-104952380D01*
X131978366Y-104952380D02*
X131921223Y-105047618D01*
X131921223Y-105047618D02*
X131921223Y-105238094D01*
X131921223Y-105238094D02*
X131978366Y-105333332D01*
X131921223Y-104285713D02*
X131978366Y-104380951D01*
X131978366Y-104380951D02*
X132092651Y-104428570D01*
X132092651Y-104428570D02*
X133121223Y-104428570D01*
X131978366Y-103523808D02*
X131921223Y-103619046D01*
X131921223Y-103619046D02*
X131921223Y-103809522D01*
X131921223Y-103809522D02*
X131978366Y-103904760D01*
X131978366Y-103904760D02*
X132092651Y-103952379D01*
X132092651Y-103952379D02*
X132549794Y-103952379D01*
X132549794Y-103952379D02*
X132664080Y-103904760D01*
X132664080Y-103904760D02*
X132721223Y-103809522D01*
X132721223Y-103809522D02*
X132721223Y-103619046D01*
X132721223Y-103619046D02*
X132664080Y-103523808D01*
X132664080Y-103523808D02*
X132549794Y-103476189D01*
X132549794Y-103476189D02*
X132435508Y-103476189D01*
X132435508Y-103476189D02*
X132321223Y-103952379D01*
X129989290Y-117047619D02*
X131189290Y-117047619D01*
X130732147Y-117047619D02*
X130789290Y-116952381D01*
X130789290Y-116952381D02*
X130789290Y-116761905D01*
X130789290Y-116761905D02*
X130732147Y-116666667D01*
X130732147Y-116666667D02*
X130675004Y-116619048D01*
X130675004Y-116619048D02*
X130560718Y-116571429D01*
X130560718Y-116571429D02*
X130217861Y-116571429D01*
X130217861Y-116571429D02*
X130103575Y-116619048D01*
X130103575Y-116619048D02*
X130046433Y-116666667D01*
X130046433Y-116666667D02*
X129989290Y-116761905D01*
X129989290Y-116761905D02*
X129989290Y-116952381D01*
X129989290Y-116952381D02*
X130046433Y-117047619D01*
X130046433Y-115761905D02*
X129989290Y-115857143D01*
X129989290Y-115857143D02*
X129989290Y-116047619D01*
X129989290Y-116047619D02*
X130046433Y-116142857D01*
X130046433Y-116142857D02*
X130160718Y-116190476D01*
X130160718Y-116190476D02*
X130617861Y-116190476D01*
X130617861Y-116190476D02*
X130732147Y-116142857D01*
X130732147Y-116142857D02*
X130789290Y-116047619D01*
X130789290Y-116047619D02*
X130789290Y-115857143D01*
X130789290Y-115857143D02*
X130732147Y-115761905D01*
X130732147Y-115761905D02*
X130617861Y-115714286D01*
X130617861Y-115714286D02*
X130503575Y-115714286D01*
X130503575Y-115714286D02*
X130389290Y-116190476D01*
X130789290Y-115428571D02*
X130789290Y-115047619D01*
X131189290Y-115285714D02*
X130160718Y-115285714D01*
X130160718Y-115285714D02*
X130046433Y-115238095D01*
X130046433Y-115238095D02*
X129989290Y-115142857D01*
X129989290Y-115142857D02*
X129989290Y-115047619D01*
X130789290Y-114809523D02*
X129989290Y-114619047D01*
X129989290Y-114619047D02*
X130560718Y-114428571D01*
X130560718Y-114428571D02*
X129989290Y-114238095D01*
X129989290Y-114238095D02*
X130789290Y-114047619D01*
X130046433Y-113285714D02*
X129989290Y-113380952D01*
X129989290Y-113380952D02*
X129989290Y-113571428D01*
X129989290Y-113571428D02*
X130046433Y-113666666D01*
X130046433Y-113666666D02*
X130160718Y-113714285D01*
X130160718Y-113714285D02*
X130617861Y-113714285D01*
X130617861Y-113714285D02*
X130732147Y-113666666D01*
X130732147Y-113666666D02*
X130789290Y-113571428D01*
X130789290Y-113571428D02*
X130789290Y-113380952D01*
X130789290Y-113380952D02*
X130732147Y-113285714D01*
X130732147Y-113285714D02*
X130617861Y-113238095D01*
X130617861Y-113238095D02*
X130503575Y-113238095D01*
X130503575Y-113238095D02*
X130389290Y-113714285D01*
X130046433Y-112428571D02*
X129989290Y-112523809D01*
X129989290Y-112523809D02*
X129989290Y-112714285D01*
X129989290Y-112714285D02*
X130046433Y-112809523D01*
X130046433Y-112809523D02*
X130160718Y-112857142D01*
X130160718Y-112857142D02*
X130617861Y-112857142D01*
X130617861Y-112857142D02*
X130732147Y-112809523D01*
X130732147Y-112809523D02*
X130789290Y-112714285D01*
X130789290Y-112714285D02*
X130789290Y-112523809D01*
X130789290Y-112523809D02*
X130732147Y-112428571D01*
X130732147Y-112428571D02*
X130617861Y-112380952D01*
X130617861Y-112380952D02*
X130503575Y-112380952D01*
X130503575Y-112380952D02*
X130389290Y-112857142D01*
X130789290Y-111952380D02*
X129989290Y-111952380D01*
X130675004Y-111952380D02*
X130732147Y-111904761D01*
X130732147Y-111904761D02*
X130789290Y-111809523D01*
X130789290Y-111809523D02*
X130789290Y-111666666D01*
X130789290Y-111666666D02*
X130732147Y-111571428D01*
X130732147Y-111571428D02*
X130617861Y-111523809D01*
X130617861Y-111523809D02*
X129989290Y-111523809D01*
X129989290Y-109761904D02*
X129989290Y-110333332D01*
X129989290Y-110047618D02*
X131189290Y-110047618D01*
X131189290Y-110047618D02*
X131017861Y-110142856D01*
X131017861Y-110142856D02*
X130903575Y-110238094D01*
X130903575Y-110238094D02*
X130846433Y-110333332D01*
X131189290Y-109142856D02*
X131189290Y-109047618D01*
X131189290Y-109047618D02*
X131132147Y-108952380D01*
X131132147Y-108952380D02*
X131075004Y-108904761D01*
X131075004Y-108904761D02*
X130960718Y-108857142D01*
X130960718Y-108857142D02*
X130732147Y-108809523D01*
X130732147Y-108809523D02*
X130446433Y-108809523D01*
X130446433Y-108809523D02*
X130217861Y-108857142D01*
X130217861Y-108857142D02*
X130103575Y-108904761D01*
X130103575Y-108904761D02*
X130046433Y-108952380D01*
X130046433Y-108952380D02*
X129989290Y-109047618D01*
X129989290Y-109047618D02*
X129989290Y-109142856D01*
X129989290Y-109142856D02*
X130046433Y-109238094D01*
X130046433Y-109238094D02*
X130103575Y-109285713D01*
X130103575Y-109285713D02*
X130217861Y-109333332D01*
X130217861Y-109333332D02*
X130446433Y-109380951D01*
X130446433Y-109380951D02*
X130732147Y-109380951D01*
X130732147Y-109380951D02*
X130960718Y-109333332D01*
X130960718Y-109333332D02*
X131075004Y-109285713D01*
X131075004Y-109285713D02*
X131132147Y-109238094D01*
X131132147Y-109238094D02*
X131189290Y-109142856D01*
X131189290Y-108190475D02*
X131189290Y-108095237D01*
X131189290Y-108095237D02*
X131132147Y-107999999D01*
X131132147Y-107999999D02*
X131075004Y-107952380D01*
X131075004Y-107952380D02*
X130960718Y-107904761D01*
X130960718Y-107904761D02*
X130732147Y-107857142D01*
X130732147Y-107857142D02*
X130446433Y-107857142D01*
X130446433Y-107857142D02*
X130217861Y-107904761D01*
X130217861Y-107904761D02*
X130103575Y-107952380D01*
X130103575Y-107952380D02*
X130046433Y-107999999D01*
X130046433Y-107999999D02*
X129989290Y-108095237D01*
X129989290Y-108095237D02*
X129989290Y-108190475D01*
X129989290Y-108190475D02*
X130046433Y-108285713D01*
X130046433Y-108285713D02*
X130103575Y-108333332D01*
X130103575Y-108333332D02*
X130217861Y-108380951D01*
X130217861Y-108380951D02*
X130446433Y-108428570D01*
X130446433Y-108428570D02*
X130732147Y-108428570D01*
X130732147Y-108428570D02*
X130960718Y-108380951D01*
X130960718Y-108380951D02*
X131075004Y-108333332D01*
X131075004Y-108333332D02*
X131132147Y-108285713D01*
X131132147Y-108285713D02*
X131189290Y-108190475D01*
X130446433Y-107428570D02*
X130446433Y-106666666D01*
X131075004Y-106238094D02*
X131132147Y-106190475D01*
X131132147Y-106190475D02*
X131189290Y-106095237D01*
X131189290Y-106095237D02*
X131189290Y-105857142D01*
X131189290Y-105857142D02*
X131132147Y-105761904D01*
X131132147Y-105761904D02*
X131075004Y-105714285D01*
X131075004Y-105714285D02*
X130960718Y-105666666D01*
X130960718Y-105666666D02*
X130846433Y-105666666D01*
X130846433Y-105666666D02*
X130675004Y-105714285D01*
X130675004Y-105714285D02*
X129989290Y-106285713D01*
X129989290Y-106285713D02*
X129989290Y-105666666D01*
X131189290Y-104809523D02*
X131189290Y-104999999D01*
X131189290Y-104999999D02*
X131132147Y-105095237D01*
X131132147Y-105095237D02*
X131075004Y-105142856D01*
X131075004Y-105142856D02*
X130903575Y-105238094D01*
X130903575Y-105238094D02*
X130675004Y-105285713D01*
X130675004Y-105285713D02*
X130217861Y-105285713D01*
X130217861Y-105285713D02*
X130103575Y-105238094D01*
X130103575Y-105238094D02*
X130046433Y-105190475D01*
X130046433Y-105190475D02*
X129989290Y-105095237D01*
X129989290Y-105095237D02*
X129989290Y-104904761D01*
X129989290Y-104904761D02*
X130046433Y-104809523D01*
X130046433Y-104809523D02*
X130103575Y-104761904D01*
X130103575Y-104761904D02*
X130217861Y-104714285D01*
X130217861Y-104714285D02*
X130503575Y-104714285D01*
X130503575Y-104714285D02*
X130617861Y-104761904D01*
X130617861Y-104761904D02*
X130675004Y-104809523D01*
X130675004Y-104809523D02*
X130732147Y-104904761D01*
X130732147Y-104904761D02*
X130732147Y-105095237D01*
X130732147Y-105095237D02*
X130675004Y-105190475D01*
X130675004Y-105190475D02*
X130617861Y-105238094D01*
X130617861Y-105238094D02*
X130503575Y-105285713D01*
X131189290Y-104095237D02*
X131189290Y-103999999D01*
X131189290Y-103999999D02*
X131132147Y-103904761D01*
X131132147Y-103904761D02*
X131075004Y-103857142D01*
X131075004Y-103857142D02*
X130960718Y-103809523D01*
X130960718Y-103809523D02*
X130732147Y-103761904D01*
X130732147Y-103761904D02*
X130446433Y-103761904D01*
X130446433Y-103761904D02*
X130217861Y-103809523D01*
X130217861Y-103809523D02*
X130103575Y-103857142D01*
X130103575Y-103857142D02*
X130046433Y-103904761D01*
X130046433Y-103904761D02*
X129989290Y-103999999D01*
X129989290Y-103999999D02*
X129989290Y-104095237D01*
X129989290Y-104095237D02*
X130046433Y-104190475D01*
X130046433Y-104190475D02*
X130103575Y-104238094D01*
X130103575Y-104238094D02*
X130217861Y-104285713D01*
X130217861Y-104285713D02*
X130446433Y-104333332D01*
X130446433Y-104333332D02*
X130732147Y-104333332D01*
X130732147Y-104333332D02*
X130960718Y-104285713D01*
X130960718Y-104285713D02*
X131075004Y-104238094D01*
X131075004Y-104238094D02*
X131132147Y-104190475D01*
X131132147Y-104190475D02*
X131189290Y-104095237D01*
X131189290Y-103476189D02*
X129989290Y-103142856D01*
X129989290Y-103142856D02*
X131189290Y-102809523D01*
X125668281Y-118523810D02*
X125725424Y-118571429D01*
X125725424Y-118571429D02*
X125896852Y-118666667D01*
X125896852Y-118666667D02*
X126011138Y-118714286D01*
X126011138Y-118714286D02*
X126182567Y-118761905D01*
X126182567Y-118761905D02*
X126468281Y-118809524D01*
X126468281Y-118809524D02*
X126696852Y-118809524D01*
X126696852Y-118809524D02*
X126982567Y-118761905D01*
X126982567Y-118761905D02*
X127153995Y-118714286D01*
X127153995Y-118714286D02*
X127268281Y-118666667D01*
X127268281Y-118666667D02*
X127439709Y-118571429D01*
X127439709Y-118571429D02*
X127496852Y-118523810D01*
X126182567Y-117714286D02*
X126125424Y-117809524D01*
X126125424Y-117809524D02*
X126125424Y-118000000D01*
X126125424Y-118000000D02*
X126182567Y-118095238D01*
X126182567Y-118095238D02*
X126239709Y-118142857D01*
X126239709Y-118142857D02*
X126353995Y-118190476D01*
X126353995Y-118190476D02*
X126696852Y-118190476D01*
X126696852Y-118190476D02*
X126811138Y-118142857D01*
X126811138Y-118142857D02*
X126868281Y-118095238D01*
X126868281Y-118095238D02*
X126925424Y-118000000D01*
X126925424Y-118000000D02*
X126925424Y-117809524D01*
X126925424Y-117809524D02*
X126868281Y-117714286D01*
X125668281Y-117380952D02*
X125725424Y-117333333D01*
X125725424Y-117333333D02*
X125896852Y-117238095D01*
X125896852Y-117238095D02*
X126011138Y-117190476D01*
X126011138Y-117190476D02*
X126182567Y-117142857D01*
X126182567Y-117142857D02*
X126468281Y-117095238D01*
X126468281Y-117095238D02*
X126696852Y-117095238D01*
X126696852Y-117095238D02*
X126982567Y-117142857D01*
X126982567Y-117142857D02*
X127153995Y-117190476D01*
X127153995Y-117190476D02*
X127268281Y-117238095D01*
X127268281Y-117238095D02*
X127439709Y-117333333D01*
X127439709Y-117333333D02*
X127496852Y-117380952D01*
X126125424Y-115857142D02*
X127325424Y-115857142D01*
X126753995Y-115857142D02*
X126753995Y-115285714D01*
X126125424Y-115285714D02*
X127325424Y-115285714D01*
X126125424Y-114380952D02*
X126753995Y-114380952D01*
X126753995Y-114380952D02*
X126868281Y-114428571D01*
X126868281Y-114428571D02*
X126925424Y-114523809D01*
X126925424Y-114523809D02*
X126925424Y-114714285D01*
X126925424Y-114714285D02*
X126868281Y-114809523D01*
X126182567Y-114380952D02*
X126125424Y-114476190D01*
X126125424Y-114476190D02*
X126125424Y-114714285D01*
X126125424Y-114714285D02*
X126182567Y-114809523D01*
X126182567Y-114809523D02*
X126296852Y-114857142D01*
X126296852Y-114857142D02*
X126411138Y-114857142D01*
X126411138Y-114857142D02*
X126525424Y-114809523D01*
X126525424Y-114809523D02*
X126582567Y-114714285D01*
X126582567Y-114714285D02*
X126582567Y-114476190D01*
X126582567Y-114476190D02*
X126639709Y-114380952D01*
X126925424Y-113904761D02*
X126125424Y-113904761D01*
X126811138Y-113904761D02*
X126868281Y-113857142D01*
X126868281Y-113857142D02*
X126925424Y-113761904D01*
X126925424Y-113761904D02*
X126925424Y-113619047D01*
X126925424Y-113619047D02*
X126868281Y-113523809D01*
X126868281Y-113523809D02*
X126753995Y-113476190D01*
X126753995Y-113476190D02*
X126125424Y-113476190D01*
X126925424Y-112999999D02*
X126125424Y-112999999D01*
X126811138Y-112999999D02*
X126868281Y-112952380D01*
X126868281Y-112952380D02*
X126925424Y-112857142D01*
X126925424Y-112857142D02*
X126925424Y-112714285D01*
X126925424Y-112714285D02*
X126868281Y-112619047D01*
X126868281Y-112619047D02*
X126753995Y-112571428D01*
X126753995Y-112571428D02*
X126125424Y-112571428D01*
X126182567Y-111714285D02*
X126125424Y-111809523D01*
X126125424Y-111809523D02*
X126125424Y-111999999D01*
X126125424Y-111999999D02*
X126182567Y-112095237D01*
X126182567Y-112095237D02*
X126296852Y-112142856D01*
X126296852Y-112142856D02*
X126753995Y-112142856D01*
X126753995Y-112142856D02*
X126868281Y-112095237D01*
X126868281Y-112095237D02*
X126925424Y-111999999D01*
X126925424Y-111999999D02*
X126925424Y-111809523D01*
X126925424Y-111809523D02*
X126868281Y-111714285D01*
X126868281Y-111714285D02*
X126753995Y-111666666D01*
X126753995Y-111666666D02*
X126639709Y-111666666D01*
X126639709Y-111666666D02*
X126525424Y-112142856D01*
X126182567Y-111285713D02*
X126125424Y-111190475D01*
X126125424Y-111190475D02*
X126125424Y-110999999D01*
X126125424Y-110999999D02*
X126182567Y-110904761D01*
X126182567Y-110904761D02*
X126296852Y-110857142D01*
X126296852Y-110857142D02*
X126353995Y-110857142D01*
X126353995Y-110857142D02*
X126468281Y-110904761D01*
X126468281Y-110904761D02*
X126525424Y-110999999D01*
X126525424Y-110999999D02*
X126525424Y-111142856D01*
X126525424Y-111142856D02*
X126582567Y-111238094D01*
X126582567Y-111238094D02*
X126696852Y-111285713D01*
X126696852Y-111285713D02*
X126753995Y-111285713D01*
X126753995Y-111285713D02*
X126868281Y-111238094D01*
X126868281Y-111238094D02*
X126925424Y-111142856D01*
X126925424Y-111142856D02*
X126925424Y-110999999D01*
X126925424Y-110999999D02*
X126868281Y-110904761D01*
X126125424Y-109666665D02*
X127325424Y-109666665D01*
X127325424Y-109666665D02*
X127325424Y-109428570D01*
X127325424Y-109428570D02*
X127268281Y-109285713D01*
X127268281Y-109285713D02*
X127153995Y-109190475D01*
X127153995Y-109190475D02*
X127039709Y-109142856D01*
X127039709Y-109142856D02*
X126811138Y-109095237D01*
X126811138Y-109095237D02*
X126639709Y-109095237D01*
X126639709Y-109095237D02*
X126411138Y-109142856D01*
X126411138Y-109142856D02*
X126296852Y-109190475D01*
X126296852Y-109190475D02*
X126182567Y-109285713D01*
X126182567Y-109285713D02*
X126125424Y-109428570D01*
X126125424Y-109428570D02*
X126125424Y-109666665D01*
X126925424Y-108238094D02*
X126125424Y-108238094D01*
X126925424Y-108666665D02*
X126296852Y-108666665D01*
X126296852Y-108666665D02*
X126182567Y-108619046D01*
X126182567Y-108619046D02*
X126125424Y-108523808D01*
X126125424Y-108523808D02*
X126125424Y-108380951D01*
X126125424Y-108380951D02*
X126182567Y-108285713D01*
X126182567Y-108285713D02*
X126239709Y-108238094D01*
X126182567Y-107809522D02*
X126125424Y-107714284D01*
X126125424Y-107714284D02*
X126125424Y-107523808D01*
X126125424Y-107523808D02*
X126182567Y-107428570D01*
X126182567Y-107428570D02*
X126296852Y-107380951D01*
X126296852Y-107380951D02*
X126353995Y-107380951D01*
X126353995Y-107380951D02*
X126468281Y-107428570D01*
X126468281Y-107428570D02*
X126525424Y-107523808D01*
X126525424Y-107523808D02*
X126525424Y-107666665D01*
X126525424Y-107666665D02*
X126582567Y-107761903D01*
X126582567Y-107761903D02*
X126696852Y-107809522D01*
X126696852Y-107809522D02*
X126753995Y-107809522D01*
X126753995Y-107809522D02*
X126868281Y-107761903D01*
X126868281Y-107761903D02*
X126925424Y-107666665D01*
X126925424Y-107666665D02*
X126925424Y-107523808D01*
X126925424Y-107523808D02*
X126868281Y-107428570D01*
X126125424Y-106952379D02*
X127325424Y-106952379D01*
X126582567Y-106857141D02*
X126125424Y-106571427D01*
X126925424Y-106571427D02*
X126468281Y-106952379D01*
X126182567Y-105761903D02*
X126125424Y-105857141D01*
X126125424Y-105857141D02*
X126125424Y-106047617D01*
X126125424Y-106047617D02*
X126182567Y-106142855D01*
X126182567Y-106142855D02*
X126296852Y-106190474D01*
X126296852Y-106190474D02*
X126753995Y-106190474D01*
X126753995Y-106190474D02*
X126868281Y-106142855D01*
X126868281Y-106142855D02*
X126925424Y-106047617D01*
X126925424Y-106047617D02*
X126925424Y-105857141D01*
X126925424Y-105857141D02*
X126868281Y-105761903D01*
X126868281Y-105761903D02*
X126753995Y-105714284D01*
X126753995Y-105714284D02*
X126639709Y-105714284D01*
X126639709Y-105714284D02*
X126525424Y-106190474D01*
X127211138Y-104571426D02*
X127268281Y-104523807D01*
X127268281Y-104523807D02*
X127325424Y-104428569D01*
X127325424Y-104428569D02*
X127325424Y-104190474D01*
X127325424Y-104190474D02*
X127268281Y-104095236D01*
X127268281Y-104095236D02*
X127211138Y-104047617D01*
X127211138Y-104047617D02*
X127096852Y-103999998D01*
X127096852Y-103999998D02*
X126982567Y-103999998D01*
X126982567Y-103999998D02*
X126811138Y-104047617D01*
X126811138Y-104047617D02*
X126125424Y-104619045D01*
X126125424Y-104619045D02*
X126125424Y-103999998D01*
X127325424Y-103380950D02*
X127325424Y-103285712D01*
X127325424Y-103285712D02*
X127268281Y-103190474D01*
X127268281Y-103190474D02*
X127211138Y-103142855D01*
X127211138Y-103142855D02*
X127096852Y-103095236D01*
X127096852Y-103095236D02*
X126868281Y-103047617D01*
X126868281Y-103047617D02*
X126582567Y-103047617D01*
X126582567Y-103047617D02*
X126353995Y-103095236D01*
X126353995Y-103095236D02*
X126239709Y-103142855D01*
X126239709Y-103142855D02*
X126182567Y-103190474D01*
X126182567Y-103190474D02*
X126125424Y-103285712D01*
X126125424Y-103285712D02*
X126125424Y-103380950D01*
X126125424Y-103380950D02*
X126182567Y-103476188D01*
X126182567Y-103476188D02*
X126239709Y-103523807D01*
X126239709Y-103523807D02*
X126353995Y-103571426D01*
X126353995Y-103571426D02*
X126582567Y-103619045D01*
X126582567Y-103619045D02*
X126868281Y-103619045D01*
X126868281Y-103619045D02*
X127096852Y-103571426D01*
X127096852Y-103571426D02*
X127211138Y-103523807D01*
X127211138Y-103523807D02*
X127268281Y-103476188D01*
X127268281Y-103476188D02*
X127325424Y-103380950D01*
X127211138Y-102666664D02*
X127268281Y-102619045D01*
X127268281Y-102619045D02*
X127325424Y-102523807D01*
X127325424Y-102523807D02*
X127325424Y-102285712D01*
X127325424Y-102285712D02*
X127268281Y-102190474D01*
X127268281Y-102190474D02*
X127211138Y-102142855D01*
X127211138Y-102142855D02*
X127096852Y-102095236D01*
X127096852Y-102095236D02*
X126982567Y-102095236D01*
X126982567Y-102095236D02*
X126811138Y-102142855D01*
X126811138Y-102142855D02*
X126125424Y-102714283D01*
X126125424Y-102714283D02*
X126125424Y-102095236D01*
X127325424Y-101238093D02*
X127325424Y-101428569D01*
X127325424Y-101428569D02*
X127268281Y-101523807D01*
X127268281Y-101523807D02*
X127211138Y-101571426D01*
X127211138Y-101571426D02*
X127039709Y-101666664D01*
X127039709Y-101666664D02*
X126811138Y-101714283D01*
X126811138Y-101714283D02*
X126353995Y-101714283D01*
X126353995Y-101714283D02*
X126239709Y-101666664D01*
X126239709Y-101666664D02*
X126182567Y-101619045D01*
X126182567Y-101619045D02*
X126125424Y-101523807D01*
X126125424Y-101523807D02*
X126125424Y-101333331D01*
X126125424Y-101333331D02*
X126182567Y-101238093D01*
X126182567Y-101238093D02*
X126239709Y-101190474D01*
X126239709Y-101190474D02*
X126353995Y-101142855D01*
X126353995Y-101142855D02*
X126639709Y-101142855D01*
X126639709Y-101142855D02*
X126753995Y-101190474D01*
X126753995Y-101190474D02*
X126811138Y-101238093D01*
X126811138Y-101238093D02*
X126868281Y-101333331D01*
X126868281Y-101333331D02*
X126868281Y-101523807D01*
X126868281Y-101523807D02*
X126811138Y-101619045D01*
X126811138Y-101619045D02*
X126753995Y-101666664D01*
X126753995Y-101666664D02*
X126639709Y-101714283D01*
X125393491Y-111523808D02*
X124193491Y-111190475D01*
X124193491Y-111190475D02*
X125393491Y-110857142D01*
X125393491Y-110333332D02*
X125393491Y-110238094D01*
X125393491Y-110238094D02*
X125336348Y-110142856D01*
X125336348Y-110142856D02*
X125279205Y-110095237D01*
X125279205Y-110095237D02*
X125164919Y-110047618D01*
X125164919Y-110047618D02*
X124936348Y-109999999D01*
X124936348Y-109999999D02*
X124650634Y-109999999D01*
X124650634Y-109999999D02*
X124422062Y-110047618D01*
X124422062Y-110047618D02*
X124307776Y-110095237D01*
X124307776Y-110095237D02*
X124250634Y-110142856D01*
X124250634Y-110142856D02*
X124193491Y-110238094D01*
X124193491Y-110238094D02*
X124193491Y-110333332D01*
X124193491Y-110333332D02*
X124250634Y-110428570D01*
X124250634Y-110428570D02*
X124307776Y-110476189D01*
X124307776Y-110476189D02*
X124422062Y-110523808D01*
X124422062Y-110523808D02*
X124650634Y-110571427D01*
X124650634Y-110571427D02*
X124936348Y-110571427D01*
X124936348Y-110571427D02*
X125164919Y-110523808D01*
X125164919Y-110523808D02*
X125279205Y-110476189D01*
X125279205Y-110476189D02*
X125336348Y-110428570D01*
X125336348Y-110428570D02*
X125393491Y-110333332D01*
X124307776Y-109571427D02*
X124250634Y-109523808D01*
X124250634Y-109523808D02*
X124193491Y-109571427D01*
X124193491Y-109571427D02*
X124250634Y-109619046D01*
X124250634Y-109619046D02*
X124307776Y-109571427D01*
X124307776Y-109571427D02*
X124193491Y-109571427D01*
X124193491Y-108571428D02*
X124193491Y-109142856D01*
X124193491Y-108857142D02*
X125393491Y-108857142D01*
X125393491Y-108857142D02*
X125222062Y-108952380D01*
X125222062Y-108952380D02*
X125107776Y-109047618D01*
X125107776Y-109047618D02*
X125050634Y-109142856D01*
G36*
X156114147Y-114552807D02*
G01*
X157409977Y-115299678D01*
X157409025Y-115301070D01*
X157417184Y-115308144D01*
X157419722Y-115316970D01*
X157417388Y-115325687D01*
X157410197Y-115332064D01*
X156114073Y-116080327D01*
X156105292Y-116083257D01*
X156096341Y-116080620D01*
X156089499Y-116073977D01*
X156087256Y-116065086D01*
X156087256Y-115316897D01*
X156185148Y-115316897D01*
X156191387Y-115349749D01*
X156210061Y-115377274D01*
X156237520Y-115395888D01*
X156270364Y-115402113D01*
X156303146Y-115395891D01*
X156330595Y-115377274D01*
X156349269Y-115349749D01*
X156355508Y-115316897D01*
X156420574Y-115316897D01*
X156426797Y-115349754D01*
X156445413Y-115377274D01*
X156472933Y-115395890D01*
X156505790Y-115402113D01*
X157048009Y-115402113D01*
X157080769Y-115395798D01*
X157108313Y-115376834D01*
X157127041Y-115349068D01*
X157133226Y-115316897D01*
X157126892Y-115284155D01*
X157107873Y-115256666D01*
X157080168Y-115237940D01*
X157048009Y-115231754D01*
X156505790Y-115231754D01*
X156472938Y-115237992D01*
X156445413Y-115256666D01*
X156426796Y-115284115D01*
X156420574Y-115316897D01*
X156355508Y-115316897D01*
X156349270Y-115284121D01*
X156330595Y-115256666D01*
X156303141Y-115237992D01*
X156270364Y-115231754D01*
X156237525Y-115237995D01*
X156210061Y-115256666D01*
X156191386Y-115284121D01*
X156185148Y-115316897D01*
X156087256Y-115316897D01*
X156087256Y-114567975D01*
X156095975Y-114553247D01*
X156104829Y-114550391D01*
X156114147Y-114552807D01*
G37*
G36*
X153162921Y-115452159D02*
G01*
X153238970Y-115469641D01*
X153162921Y-115487989D01*
X152663567Y-115669706D01*
X152663567Y-115268757D01*
X153162921Y-115452159D01*
G37*
G36*
X156939463Y-112297677D02*
G01*
X157023374Y-112316453D01*
X157093068Y-112345768D01*
X157150891Y-112384992D01*
X157198511Y-112434420D01*
X157236792Y-112495248D01*
X157265719Y-112569472D01*
X157284400Y-112659750D01*
X157291129Y-112769273D01*
X157291129Y-112950696D01*
X156362615Y-112950696D01*
X156362615Y-112777479D01*
X156368246Y-112683961D01*
X156384216Y-112603031D01*
X156409510Y-112532867D01*
X156443639Y-112471930D01*
X156486666Y-112419029D01*
X156538259Y-112374470D01*
X156597857Y-112339245D01*
X156666650Y-112313190D01*
X156746217Y-112296748D01*
X156838449Y-112290948D01*
X156939463Y-112297677D01*
G37*
G36*
X153119163Y-112449883D02*
G01*
X153167301Y-112470104D01*
X153206226Y-112503073D01*
X153234246Y-112546378D01*
X153252430Y-112603415D01*
X153259129Y-112678195D01*
X153259129Y-112864528D01*
X152832387Y-112864528D01*
X152832387Y-112679880D01*
X152836391Y-112629938D01*
X152847995Y-112585138D01*
X152867170Y-112544323D01*
X152892691Y-112510107D01*
X152924840Y-112482087D01*
X152964059Y-112460574D01*
X153008129Y-112447319D01*
X153059020Y-112442696D01*
X153119163Y-112449883D01*
G37*
G36*
X157194921Y-111525320D02*
G01*
X157270972Y-111542803D01*
X157194921Y-111561150D01*
X156695567Y-111742867D01*
X156695567Y-111341918D01*
X157194921Y-111525320D01*
G37*
G36*
X153119163Y-110985598D02*
G01*
X153167301Y-111005819D01*
X153206226Y-111038788D01*
X153234246Y-111082093D01*
X153252430Y-111139131D01*
X153259129Y-111213910D01*
X153259129Y-111400243D01*
X152832387Y-111400243D01*
X152832387Y-111215595D01*
X152836391Y-111165653D01*
X152847995Y-111120854D01*
X152867170Y-111080038D01*
X152892691Y-111045822D01*
X152924840Y-111017803D01*
X152964059Y-110996290D01*
X153008129Y-110983035D01*
X153059020Y-110978411D01*
X153119163Y-110985598D01*
G37*
G36*
X153162921Y-110134308D02*
G01*
X153238972Y-110151791D01*
X153162921Y-110170138D01*
X152663567Y-110351855D01*
X152663567Y-109950906D01*
X153162921Y-110134308D01*
G37*
G36*
X154924595Y-109109218D02*
G01*
X155021485Y-109130810D01*
X155101325Y-109164393D01*
X155166978Y-109209165D01*
X155221873Y-109267241D01*
X155261077Y-109334687D01*
X155285354Y-109413366D01*
X155293886Y-109505994D01*
X155285198Y-109595511D01*
X155260118Y-109673841D01*
X155218941Y-109743268D01*
X155160383Y-109805313D01*
X155090913Y-109854242D01*
X155010710Y-109890014D01*
X154917788Y-109912449D01*
X154809626Y-109920352D01*
X154701262Y-109912602D01*
X154608495Y-109890650D01*
X154528767Y-109855747D01*
X154460041Y-109808171D01*
X154401992Y-109747546D01*
X154361239Y-109679730D01*
X154336443Y-109603238D01*
X154327857Y-109515812D01*
X154336349Y-109421346D01*
X154360512Y-109340946D01*
X154399476Y-109271920D01*
X154453886Y-109212389D01*
X154519458Y-109165968D01*
X154598322Y-109131419D01*
X154693117Y-109109352D01*
X154807135Y-109101454D01*
X154924595Y-109109218D01*
G37*
G36*
X152907463Y-108659240D02*
G01*
X152991374Y-108678017D01*
X153061068Y-108707332D01*
X153118891Y-108746555D01*
X153166511Y-108795983D01*
X153204792Y-108856812D01*
X153233719Y-108931035D01*
X153252400Y-109021313D01*
X153259129Y-109130836D01*
X153259129Y-109312260D01*
X152330615Y-109312260D01*
X152330615Y-109139043D01*
X152336246Y-109045525D01*
X152352216Y-108964594D01*
X152377510Y-108894430D01*
X152411639Y-108833493D01*
X152454666Y-108780592D01*
X152506259Y-108736033D01*
X152565857Y-108700809D01*
X152634650Y-108674754D01*
X152714217Y-108658312D01*
X152806449Y-108652511D01*
X152907463Y-108659240D01*
G37*
G36*
X153162921Y-107427316D02*
G01*
X153238970Y-107444798D01*
X153162921Y-107463146D01*
X152663567Y-107644863D01*
X152663567Y-107243914D01*
X153162921Y-107427316D01*
G37*
G36*
X157151163Y-107045863D02*
G01*
X157199301Y-107066084D01*
X157238226Y-107099053D01*
X157266246Y-107142358D01*
X157284430Y-107199396D01*
X157291129Y-107274175D01*
X157291129Y-107460508D01*
X156864387Y-107460508D01*
X156864387Y-107275860D01*
X156868391Y-107225918D01*
X156879995Y-107181119D01*
X156899170Y-107140303D01*
X156924691Y-107106087D01*
X156956840Y-107078068D01*
X156996059Y-107056555D01*
X157040129Y-107043300D01*
X157091020Y-107038676D01*
X157151163Y-107045863D01*
G37*
G36*
X155178921Y-106813583D02*
G01*
X155254972Y-106831066D01*
X155178921Y-106849413D01*
X154679567Y-107031130D01*
X154679567Y-106630181D01*
X155178921Y-106813583D01*
G37*
G36*
X152908595Y-104659503D02*
G01*
X153005485Y-104681096D01*
X153085325Y-104714679D01*
X153150978Y-104759451D01*
X153205873Y-104817526D01*
X153245077Y-104884973D01*
X153269354Y-104963652D01*
X153277886Y-105056279D01*
X153269198Y-105145797D01*
X153244118Y-105224126D01*
X153202941Y-105293553D01*
X153144383Y-105355599D01*
X153074913Y-105404527D01*
X152994710Y-105440300D01*
X152901788Y-105462734D01*
X152793626Y-105470637D01*
X152685262Y-105462888D01*
X152592495Y-105440935D01*
X152512767Y-105406032D01*
X152444041Y-105358457D01*
X152385992Y-105297831D01*
X152345239Y-105230016D01*
X152320443Y-105153523D01*
X152311857Y-105066098D01*
X152320349Y-104971631D01*
X152344512Y-104891231D01*
X152383476Y-104822206D01*
X152437886Y-104762675D01*
X152503458Y-104716253D01*
X152582322Y-104681705D01*
X152677117Y-104659637D01*
X152791135Y-104651740D01*
X152908595Y-104659503D01*
G37*
G36*
X156114147Y-103913589D02*
G01*
X157409977Y-104660459D01*
X157409025Y-104661851D01*
X157417184Y-104668926D01*
X157419722Y-104677752D01*
X157417388Y-104686469D01*
X157410197Y-104692846D01*
X156114073Y-105441108D01*
X156105292Y-105444039D01*
X156096341Y-105441401D01*
X156089499Y-105434758D01*
X156087256Y-105425867D01*
X156087256Y-104677678D01*
X156185148Y-104677678D01*
X156191387Y-104710530D01*
X156210061Y-104738055D01*
X156237520Y-104756670D01*
X156270364Y-104762895D01*
X156303146Y-104756673D01*
X156330595Y-104738055D01*
X156349269Y-104710530D01*
X156355508Y-104677678D01*
X156420574Y-104677678D01*
X156426797Y-104710536D01*
X156445413Y-104738055D01*
X156472933Y-104756672D01*
X156505790Y-104762895D01*
X157048009Y-104762895D01*
X157080769Y-104756580D01*
X157108313Y-104737616D01*
X157127041Y-104709849D01*
X157133226Y-104677678D01*
X157126892Y-104644937D01*
X157107873Y-104617448D01*
X157080168Y-104598722D01*
X157048009Y-104592535D01*
X156505790Y-104592535D01*
X156472938Y-104598774D01*
X156445413Y-104617448D01*
X156426796Y-104644896D01*
X156420574Y-104677678D01*
X156355508Y-104677678D01*
X156349270Y-104644902D01*
X156330595Y-104617448D01*
X156303141Y-104598773D01*
X156270364Y-104592535D01*
X156237525Y-104598776D01*
X156210061Y-104617448D01*
X156191386Y-104644902D01*
X156185148Y-104677678D01*
X156087256Y-104677678D01*
X156087256Y-103928757D01*
X156095975Y-103914029D01*
X156104829Y-103911172D01*
X156114147Y-103913589D01*
G37*
G36*
X157675678Y-116804019D02*
G01*
X152051909Y-116804019D01*
X152051909Y-116670686D01*
X152204000Y-116670686D01*
X153385744Y-116670686D01*
X153385744Y-116528170D01*
X152330615Y-116528170D01*
X152330615Y-116055707D01*
X152204000Y-116055707D01*
X152204000Y-116670686D01*
X152051909Y-116670686D01*
X152051909Y-115097152D01*
X152204000Y-115097152D01*
X152536951Y-115221862D01*
X152536951Y-115669706D01*
X152536951Y-115717333D01*
X152204000Y-115834643D01*
X152204000Y-115993205D01*
X153385744Y-115540159D01*
X153385744Y-115394200D01*
X152204000Y-114939542D01*
X152204000Y-115097152D01*
X152051909Y-115097152D01*
X152051909Y-114506133D01*
X152185242Y-114506133D01*
X152189785Y-114575302D01*
X152202974Y-114659200D01*
X152224369Y-114740313D01*
X152238734Y-114776501D01*
X152253678Y-114802961D01*
X152422646Y-114802961D01*
X152396452Y-114769712D01*
X152374286Y-114732692D01*
X152340580Y-114650993D01*
X152319331Y-114564824D01*
X152311857Y-114484810D01*
X152318057Y-114401509D01*
X152334470Y-114340481D01*
X152358825Y-114296499D01*
X152394191Y-114262451D01*
X152438345Y-114241822D01*
X152494087Y-114234510D01*
X152538710Y-114239868D01*
X152575786Y-114255173D01*
X152608537Y-114279282D01*
X152639460Y-114312473D01*
X152667039Y-114351458D01*
X152694928Y-114399521D01*
X152750908Y-114507965D01*
X152814143Y-114623076D01*
X152848424Y-114673787D01*
X152884997Y-114716206D01*
X152926481Y-114751720D01*
X152972925Y-114778635D01*
X153024942Y-114795384D01*
X153088256Y-114801349D01*
X153141260Y-114797179D01*
X153187862Y-114785200D01*
X153229160Y-114765812D01*
X153281100Y-114726685D01*
X154220000Y-114726685D01*
X154759288Y-114726685D01*
X154759288Y-115330599D01*
X154220000Y-115330599D01*
X154220000Y-115473115D01*
X155401744Y-115473115D01*
X155401744Y-115330599D01*
X154885903Y-115330599D01*
X154885903Y-114726685D01*
X155401744Y-114726685D01*
X155401744Y-114584169D01*
X154220000Y-114584169D01*
X154220000Y-114726685D01*
X153281100Y-114726685D01*
X153283813Y-114724641D01*
X153327859Y-114672389D01*
X153361341Y-114611318D01*
X153376218Y-114567975D01*
X155964450Y-114567975D01*
X155964450Y-116065086D01*
X155972976Y-116115454D01*
X155997863Y-116156384D01*
X156035077Y-116186761D01*
X156080002Y-116203572D01*
X156127996Y-116204513D01*
X156176722Y-116187012D01*
X156175769Y-116185620D01*
X157472479Y-115438750D01*
X157511705Y-115405825D01*
X157534614Y-115364011D01*
X157542345Y-115316897D01*
X157534614Y-115269782D01*
X157511702Y-115227983D01*
X157472479Y-115195117D01*
X156175549Y-114446195D01*
X156127813Y-114428564D01*
X156080002Y-114429489D01*
X156035077Y-114446300D01*
X155997863Y-114476677D01*
X155972981Y-114517556D01*
X155964450Y-114567975D01*
X153376218Y-114567975D01*
X153385524Y-114540864D01*
X153399751Y-114466418D01*
X153404502Y-114390435D01*
X153398941Y-114280819D01*
X154220000Y-114280819D01*
X155401744Y-114280819D01*
X155401744Y-114138304D01*
X154220000Y-114138304D01*
X154220000Y-114280819D01*
X153398941Y-114280819D01*
X153398571Y-114273528D01*
X153383272Y-114191000D01*
X153361637Y-114134639D01*
X153200657Y-114134639D01*
X153233480Y-114189726D01*
X153257549Y-114252180D01*
X153272610Y-114323247D01*
X153277886Y-114404430D01*
X153275516Y-114449209D01*
X153268361Y-114494116D01*
X153255710Y-114536960D01*
X153237513Y-114573764D01*
X153213004Y-114605456D01*
X153182558Y-114630477D01*
X153146266Y-114646587D01*
X153100566Y-114652312D01*
X153058139Y-114647960D01*
X153023703Y-114635752D01*
X152993313Y-114615654D01*
X152964572Y-114586660D01*
X152938976Y-114551691D01*
X152912401Y-114507012D01*
X152856787Y-114398495D01*
X152791062Y-114278474D01*
X152754184Y-114224545D01*
X152714491Y-114178823D01*
X152669905Y-114140173D01*
X152621215Y-114110752D01*
X152567342Y-114092025D01*
X152503905Y-114085473D01*
X152446473Y-114089606D01*
X152397535Y-114101292D01*
X152355674Y-114119838D01*
X152300548Y-114160144D01*
X152256903Y-114212382D01*
X152224651Y-114274101D01*
X152202168Y-114346398D01*
X152189555Y-114423447D01*
X152185242Y-114506133D01*
X152051909Y-114506133D01*
X152051909Y-113855836D01*
X152204000Y-113855836D01*
X153385744Y-113855836D01*
X153385744Y-113346224D01*
X154201242Y-113346224D01*
X154208245Y-113446910D01*
X154228423Y-113536635D01*
X154261039Y-113617085D01*
X154306071Y-113689626D01*
X154364200Y-113755233D01*
X154431858Y-113810238D01*
X154507497Y-113853322D01*
X154592241Y-113884826D01*
X154687571Y-113904458D01*
X154795265Y-113911304D01*
X154904299Y-113903897D01*
X155002257Y-113882490D01*
X155090810Y-113847801D01*
X155171322Y-113799844D01*
X155244794Y-113737941D01*
X155307900Y-113665096D01*
X155356539Y-113585851D01*
X155391556Y-113499279D01*
X155413077Y-113404085D01*
X155420502Y-113298670D01*
X155412912Y-113171404D01*
X155391654Y-113064197D01*
X155358440Y-112973925D01*
X155202882Y-112973925D01*
X155242068Y-113048396D01*
X155270424Y-113129228D01*
X155287875Y-113217432D01*
X155293886Y-113314204D01*
X155288159Y-113391935D01*
X155271564Y-113461903D01*
X155244539Y-113525374D01*
X155206907Y-113583353D01*
X155157892Y-113636531D01*
X155086519Y-113690509D01*
X155005332Y-113729504D01*
X154912479Y-113753720D01*
X154805523Y-113762194D01*
X154694179Y-113754025D01*
X154600594Y-113731056D01*
X154521711Y-113694781D01*
X154455132Y-113645544D01*
X154400292Y-113583225D01*
X154360908Y-113511111D01*
X154336452Y-113427273D01*
X154327857Y-113329005D01*
X154334286Y-113238835D01*
X154352594Y-113160688D01*
X154381859Y-113092627D01*
X154712393Y-113092627D01*
X154712393Y-113350181D01*
X154839009Y-113350181D01*
X154839009Y-112950111D01*
X154300307Y-112950111D01*
X154257232Y-113041293D01*
X154226375Y-113137142D01*
X154207620Y-113238472D01*
X154201242Y-113346224D01*
X153385744Y-113346224D01*
X153385744Y-113253973D01*
X153259129Y-113253973D01*
X153259129Y-113713320D01*
X152869903Y-113713320D01*
X152869903Y-113288411D01*
X152743288Y-113288411D01*
X152743288Y-113713320D01*
X152330615Y-113713320D01*
X152330615Y-113227741D01*
X152204000Y-113227741D01*
X152204000Y-113855836D01*
X152051909Y-113855836D01*
X152051909Y-112326852D01*
X152204000Y-112326852D01*
X152535852Y-112524395D01*
X152614034Y-112576712D01*
X152644069Y-112602962D01*
X152666718Y-112628369D01*
X152684402Y-112655855D01*
X152694258Y-112679880D01*
X152696393Y-112685083D01*
X152703318Y-112716641D01*
X152705772Y-112753666D01*
X152705772Y-112864528D01*
X152204000Y-112864528D01*
X152204000Y-113007043D01*
X153385744Y-113007043D01*
X153385744Y-112779165D01*
X156236000Y-112779165D01*
X156236000Y-113093212D01*
X157417744Y-113093212D01*
X157417744Y-112766049D01*
X157410680Y-112635469D01*
X157390951Y-112525874D01*
X157360309Y-112434126D01*
X157319841Y-112357519D01*
X157269913Y-112293868D01*
X157210147Y-112241620D01*
X157139443Y-112199950D01*
X157056057Y-112168817D01*
X156957708Y-112148973D01*
X156841673Y-112141911D01*
X156732495Y-112149413D01*
X156635637Y-112170981D01*
X156549221Y-112205752D01*
X156471720Y-112253629D01*
X156402036Y-112315274D01*
X156343722Y-112387154D01*
X156297920Y-112468020D01*
X156264329Y-112559143D01*
X156243337Y-112662193D01*
X156236106Y-112777479D01*
X156236000Y-112779165D01*
X153385744Y-112779165D01*
X153385744Y-112653648D01*
X153380739Y-112578064D01*
X153366327Y-112510620D01*
X153341554Y-112448733D01*
X153307196Y-112396681D01*
X153262861Y-112353721D01*
X153208351Y-112320990D01*
X153145882Y-112300836D01*
X153069865Y-112293659D01*
X153009609Y-112298452D01*
X152956219Y-112312270D01*
X152907145Y-112334906D01*
X152863968Y-112365173D01*
X152826686Y-112402702D01*
X152794945Y-112447825D01*
X152770010Y-112498158D01*
X152751300Y-112554429D01*
X152721672Y-112504172D01*
X152681519Y-112462406D01*
X152629202Y-112423279D01*
X152561424Y-112380121D01*
X152204000Y-112157152D01*
X152204000Y-112326852D01*
X152051909Y-112326852D01*
X152051909Y-111935282D01*
X154220000Y-111935282D01*
X154759288Y-111935282D01*
X154759288Y-112539197D01*
X154220000Y-112539197D01*
X154220000Y-112681712D01*
X155401744Y-112681712D01*
X155401744Y-112539197D01*
X154885903Y-112539197D01*
X154885903Y-111935282D01*
X155401744Y-111935282D01*
X155401744Y-111792766D01*
X154220000Y-111792766D01*
X154220000Y-111935282D01*
X152051909Y-111935282D01*
X152051909Y-110862567D01*
X152204000Y-110862567D01*
X152535852Y-111060110D01*
X152614034Y-111112427D01*
X152644069Y-111138677D01*
X152666718Y-111164085D01*
X152684402Y-111191571D01*
X152694258Y-111215595D01*
X152696393Y-111220798D01*
X152703318Y-111252357D01*
X152705772Y-111289381D01*
X152705772Y-111400243D01*
X152204000Y-111400243D01*
X152204000Y-111542759D01*
X153385744Y-111542759D01*
X153385744Y-111189364D01*
X153380739Y-111113780D01*
X153366327Y-111046335D01*
X153341554Y-110984449D01*
X153307196Y-110932396D01*
X153262861Y-110889436D01*
X153208351Y-110856705D01*
X153145882Y-110836551D01*
X153069865Y-110829374D01*
X153009609Y-110834167D01*
X152956219Y-110847986D01*
X152907145Y-110870622D01*
X152863968Y-110900889D01*
X152826686Y-110938418D01*
X152794945Y-110983540D01*
X152770010Y-111033874D01*
X152751300Y-111090145D01*
X152721672Y-111039887D01*
X152681519Y-110998122D01*
X152629202Y-110958994D01*
X152561424Y-110915836D01*
X152204000Y-110692867D01*
X152204000Y-110862567D01*
X152051909Y-110862567D01*
X152051909Y-109779301D01*
X152204000Y-109779301D01*
X152536951Y-109904011D01*
X152536951Y-110351855D01*
X152536951Y-110399482D01*
X152204000Y-110516792D01*
X152204000Y-110675355D01*
X152434310Y-110587061D01*
X154220000Y-110587061D01*
X154220000Y-110742033D01*
X155401744Y-111170313D01*
X156236000Y-111170313D01*
X156568951Y-111295023D01*
X156568951Y-111742867D01*
X156568951Y-111790494D01*
X156236000Y-111907804D01*
X156236000Y-112066366D01*
X157417744Y-111613320D01*
X157417744Y-111467361D01*
X156236000Y-111012703D01*
X156236000Y-111170313D01*
X155401744Y-111170313D01*
X155401744Y-111011897D01*
X154466856Y-110685687D01*
X154419769Y-110672275D01*
X154366317Y-110662481D01*
X154412429Y-110653380D01*
X154468541Y-110635934D01*
X155401744Y-110303202D01*
X155401744Y-110149696D01*
X154220000Y-110587061D01*
X152434310Y-110587061D01*
X153385744Y-110222309D01*
X153385744Y-110079500D01*
X156236000Y-110079500D01*
X157175284Y-110685613D01*
X157248044Y-110722982D01*
X157248044Y-110723495D01*
X157201968Y-110719370D01*
X157088676Y-110717340D01*
X156236000Y-110717340D01*
X156236000Y-110859856D01*
X157417744Y-110859856D01*
X157417744Y-110677406D01*
X156493187Y-110087706D01*
X156417377Y-110041791D01*
X156473146Y-110046987D01*
X156586390Y-110049385D01*
X157417744Y-110049385D01*
X157417744Y-109906869D01*
X156236000Y-109906869D01*
X156236000Y-110079500D01*
X153385744Y-110079500D01*
X153385744Y-110076349D01*
X152204000Y-109621691D01*
X152204000Y-109779301D01*
X152051909Y-109779301D01*
X152051909Y-109515886D01*
X154201242Y-109515886D01*
X154208365Y-109615822D01*
X154228855Y-109704436D01*
X154261946Y-109783507D01*
X154307637Y-109854463D01*
X154366692Y-109918300D01*
X154435141Y-109971601D01*
X154511181Y-110013362D01*
X154595870Y-110043874D01*
X154690582Y-110062857D01*
X154796950Y-110069462D01*
X154911930Y-110062597D01*
X155013045Y-110042992D01*
X155102223Y-110011712D01*
X155181098Y-109969237D01*
X155250949Y-109915442D01*
X155311108Y-109850502D01*
X155357874Y-109777469D01*
X155391917Y-109695208D01*
X155413104Y-109602108D01*
X155420502Y-109496175D01*
X155413464Y-109399075D01*
X155393178Y-109312622D01*
X155360327Y-109235119D01*
X155314833Y-109165212D01*
X155269249Y-109116328D01*
X156217242Y-109116328D01*
X156224245Y-109217014D01*
X156244423Y-109306739D01*
X156277039Y-109387189D01*
X156322071Y-109459730D01*
X156380200Y-109525337D01*
X156447858Y-109580342D01*
X156523497Y-109623426D01*
X156608241Y-109654930D01*
X156703571Y-109674562D01*
X156811265Y-109681408D01*
X156920299Y-109674001D01*
X157018257Y-109652594D01*
X157106810Y-109617905D01*
X157187322Y-109569948D01*
X157260794Y-109508045D01*
X157323900Y-109435200D01*
X157372539Y-109355955D01*
X157407556Y-109269383D01*
X157429077Y-109174189D01*
X157436502Y-109068774D01*
X157428912Y-108941508D01*
X157407654Y-108834302D01*
X157374440Y-108744029D01*
X157218882Y-108744029D01*
X157258068Y-108818500D01*
X157286424Y-108899332D01*
X157303875Y-108987536D01*
X157309886Y-109084308D01*
X157304159Y-109162039D01*
X157287564Y-109232007D01*
X157260539Y-109295478D01*
X157222907Y-109353457D01*
X157173892Y-109406635D01*
X157102519Y-109460613D01*
X157021332Y-109499608D01*
X156928479Y-109523824D01*
X156821523Y-109532298D01*
X156710179Y-109524130D01*
X156616594Y-109501160D01*
X156537711Y-109464885D01*
X156471132Y-109415648D01*
X156416292Y-109353329D01*
X156376908Y-109281215D01*
X156352452Y-109197377D01*
X156343857Y-109099109D01*
X156350286Y-109008939D01*
X156368594Y-108930792D01*
X156397859Y-108862731D01*
X156728393Y-108862731D01*
X156728393Y-109120285D01*
X156855009Y-109120285D01*
X156855009Y-108720215D01*
X156316307Y-108720215D01*
X156273232Y-108811397D01*
X156242375Y-108907246D01*
X156223620Y-109008576D01*
X156217242Y-109116328D01*
X155269249Y-109116328D01*
X155255858Y-109101967D01*
X155187828Y-109049343D01*
X155112025Y-109008041D01*
X155027363Y-108977812D01*
X154932441Y-108958979D01*
X154825600Y-108952417D01*
X154708646Y-108959310D01*
X154606415Y-108978940D01*
X154516853Y-109010152D01*
X154438209Y-109052387D01*
X154369110Y-109105704D01*
X154309290Y-109170347D01*
X154262947Y-109242431D01*
X154229337Y-109322997D01*
X154208496Y-109413532D01*
X154201247Y-109515812D01*
X154201242Y-109515886D01*
X152051909Y-109515886D01*
X152051909Y-109140728D01*
X152204000Y-109140728D01*
X152204000Y-109454775D01*
X153385744Y-109454775D01*
X153385744Y-109127612D01*
X153378680Y-108997033D01*
X153358951Y-108887437D01*
X153328309Y-108795690D01*
X153294052Y-108730840D01*
X154220000Y-108730840D01*
X155401744Y-108730840D01*
X155401744Y-108588324D01*
X154346615Y-108588324D01*
X154346615Y-108451817D01*
X156236000Y-108451817D01*
X157417744Y-108451817D01*
X157417744Y-107849953D01*
X157291129Y-107849953D01*
X157291129Y-108309301D01*
X156901903Y-108309301D01*
X156901903Y-107884392D01*
X156775288Y-107884392D01*
X156775288Y-108309301D01*
X156362615Y-108309301D01*
X156362615Y-107823722D01*
X156236000Y-107823722D01*
X156236000Y-108451817D01*
X154346615Y-108451817D01*
X154346615Y-108115861D01*
X154220000Y-108115861D01*
X154220000Y-108730840D01*
X153294052Y-108730840D01*
X153287841Y-108719082D01*
X153237913Y-108655431D01*
X153178147Y-108603183D01*
X153107443Y-108561513D01*
X153024057Y-108530381D01*
X152925708Y-108510536D01*
X152809673Y-108503474D01*
X152700495Y-108510976D01*
X152603637Y-108532544D01*
X152517221Y-108567316D01*
X152439720Y-108615192D01*
X152370036Y-108676838D01*
X152311722Y-108748718D01*
X152265920Y-108829583D01*
X152232329Y-108920707D01*
X152211337Y-109023756D01*
X152204106Y-109139043D01*
X152204000Y-109140728D01*
X152051909Y-109140728D01*
X152051909Y-108277720D01*
X152204000Y-108277720D01*
X153385744Y-108277720D01*
X153385744Y-108135205D01*
X152204000Y-108135205D01*
X152204000Y-108277720D01*
X152051909Y-108277720D01*
X152051909Y-107072309D01*
X152204000Y-107072309D01*
X152536951Y-107197019D01*
X152536951Y-107644863D01*
X152536951Y-107692490D01*
X152204000Y-107809800D01*
X152204000Y-107968362D01*
X153094655Y-107626911D01*
X154220000Y-107626911D01*
X154220000Y-107769354D01*
X155275129Y-107769354D01*
X155275129Y-108108167D01*
X155401744Y-108108167D01*
X155401744Y-107287292D01*
X155275129Y-107287292D01*
X155275129Y-107626911D01*
X154220000Y-107626911D01*
X153094655Y-107626911D01*
X153385744Y-107515316D01*
X153385744Y-107369357D01*
X152204000Y-106914699D01*
X152204000Y-107072309D01*
X152051909Y-107072309D01*
X152051909Y-106448097D01*
X152204000Y-106448097D01*
X152204000Y-106590540D01*
X153259129Y-106590540D01*
X153259129Y-106929353D01*
X153385744Y-106929353D01*
X153385744Y-106458576D01*
X154220000Y-106458576D01*
X154552951Y-106583286D01*
X154552951Y-107031130D01*
X154552951Y-107078757D01*
X154220000Y-107196067D01*
X154220000Y-107354629D01*
X155346317Y-106922832D01*
X156236000Y-106922832D01*
X156567852Y-107120375D01*
X156646034Y-107172692D01*
X156676069Y-107198942D01*
X156698718Y-107224350D01*
X156716402Y-107251836D01*
X156726258Y-107275860D01*
X156728393Y-107281063D01*
X156735318Y-107312622D01*
X156737772Y-107349646D01*
X156737772Y-107460508D01*
X156236000Y-107460508D01*
X156236000Y-107603024D01*
X157417744Y-107603024D01*
X157417744Y-107249629D01*
X157412739Y-107174045D01*
X157398327Y-107106600D01*
X157373554Y-107044714D01*
X157339196Y-106992661D01*
X157294861Y-106949701D01*
X157240351Y-106916970D01*
X157177882Y-106896816D01*
X157101865Y-106889639D01*
X157041609Y-106894432D01*
X156988219Y-106908251D01*
X156939145Y-106930887D01*
X156895968Y-106961154D01*
X156858686Y-106998683D01*
X156826945Y-107043805D01*
X156802010Y-107094139D01*
X156783300Y-107150410D01*
X156753672Y-107100152D01*
X156713519Y-107058387D01*
X156661202Y-107019259D01*
X156593424Y-106976101D01*
X156236000Y-106753132D01*
X156236000Y-106922832D01*
X155346317Y-106922832D01*
X155401744Y-106901583D01*
X155401744Y-106755624D01*
X154220000Y-106300966D01*
X154220000Y-106458576D01*
X153385744Y-106458576D01*
X153385744Y-106108477D01*
X153259129Y-106108477D01*
X153259129Y-106448097D01*
X152204000Y-106448097D01*
X152051909Y-106448097D01*
X152051909Y-105989263D01*
X152204000Y-105989263D01*
X153385744Y-105989263D01*
X153385744Y-105846747D01*
X152204000Y-105846747D01*
X152204000Y-105989263D01*
X152051909Y-105989263D01*
X152051909Y-105719985D01*
X154201242Y-105719985D01*
X154208245Y-105820671D01*
X154228423Y-105910397D01*
X154261039Y-105990846D01*
X154306071Y-106063387D01*
X154364200Y-106128994D01*
X154431858Y-106184000D01*
X154507497Y-106227083D01*
X154592241Y-106258587D01*
X154687571Y-106278219D01*
X154795265Y-106285066D01*
X154904299Y-106277658D01*
X155002257Y-106256252D01*
X155090810Y-106221562D01*
X155171322Y-106173606D01*
X155244794Y-106111702D01*
X155307900Y-106038857D01*
X155356539Y-105959612D01*
X155391556Y-105873040D01*
X155413077Y-105777847D01*
X155420502Y-105672431D01*
X155412912Y-105545165D01*
X155391654Y-105437959D01*
X155358440Y-105347686D01*
X155202882Y-105347686D01*
X155242068Y-105422157D01*
X155270424Y-105502989D01*
X155287875Y-105591193D01*
X155293886Y-105687965D01*
X155288159Y-105765697D01*
X155271564Y-105835665D01*
X155244539Y-105899135D01*
X155206907Y-105957114D01*
X155157892Y-106010292D01*
X155086519Y-106064270D01*
X155005332Y-106103265D01*
X154912479Y-106127481D01*
X154805523Y-106135955D01*
X154694179Y-106127787D01*
X154600594Y-106104817D01*
X154521711Y-106068542D01*
X154455132Y-106019305D01*
X154400292Y-105956986D01*
X154360908Y-105884872D01*
X154336452Y-105801034D01*
X154327857Y-105702766D01*
X154334286Y-105612596D01*
X154352594Y-105534450D01*
X154381859Y-105466388D01*
X154712393Y-105466388D01*
X154712393Y-105723942D01*
X154839009Y-105723942D01*
X154839009Y-105323872D01*
X154300307Y-105323872D01*
X154257232Y-105415054D01*
X154226375Y-105510903D01*
X154207620Y-105612233D01*
X154201242Y-105719985D01*
X152051909Y-105719985D01*
X152051909Y-105066171D01*
X152185242Y-105066171D01*
X152192365Y-105166107D01*
X152212855Y-105254721D01*
X152245946Y-105333792D01*
X152291637Y-105404748D01*
X152350692Y-105468586D01*
X152419141Y-105521886D01*
X152495181Y-105563647D01*
X152579870Y-105594160D01*
X152674582Y-105613142D01*
X152780950Y-105619748D01*
X152895930Y-105612883D01*
X152997045Y-105593277D01*
X153086223Y-105561997D01*
X153165098Y-105519523D01*
X153234949Y-105465728D01*
X153295108Y-105400787D01*
X153341874Y-105327755D01*
X153375917Y-105245494D01*
X153397104Y-105152394D01*
X153403054Y-105067197D01*
X154220000Y-105067197D01*
X155401744Y-105067197D01*
X155401744Y-104465334D01*
X155275129Y-104465334D01*
X155275129Y-104924682D01*
X154885903Y-104924682D01*
X154885903Y-104499773D01*
X154759288Y-104499773D01*
X154759288Y-104924682D01*
X154346615Y-104924682D01*
X154346615Y-104439103D01*
X154220000Y-104439103D01*
X154220000Y-105067197D01*
X153403054Y-105067197D01*
X153404502Y-105046461D01*
X153397464Y-104949360D01*
X153377178Y-104862907D01*
X153344327Y-104785404D01*
X153298833Y-104715497D01*
X153239858Y-104652253D01*
X153171828Y-104599629D01*
X153096025Y-104558327D01*
X153011363Y-104528098D01*
X152916441Y-104509264D01*
X152809600Y-104502703D01*
X152692646Y-104509596D01*
X152590415Y-104529226D01*
X152500853Y-104560438D01*
X152422209Y-104602672D01*
X152353110Y-104655990D01*
X152293290Y-104720633D01*
X152246947Y-104792717D01*
X152213337Y-104873283D01*
X152192496Y-104963817D01*
X152185247Y-105066098D01*
X152185242Y-105066171D01*
X152051909Y-105066171D01*
X152051909Y-103496080D01*
X152204000Y-103496080D01*
X153143284Y-104102193D01*
X153216044Y-104139563D01*
X153216044Y-104140076D01*
X153169968Y-104135951D01*
X153056676Y-104133921D01*
X152204000Y-104133921D01*
X152204000Y-104276436D01*
X153385744Y-104276436D01*
X153385744Y-104093987D01*
X153126689Y-103928757D01*
X155964450Y-103928757D01*
X155964450Y-105425867D01*
X155972976Y-105476235D01*
X155997863Y-105517165D01*
X156035077Y-105547543D01*
X156080002Y-105564353D01*
X156127996Y-105565295D01*
X156176722Y-105547793D01*
X156175769Y-105546401D01*
X157472479Y-104799531D01*
X157511705Y-104766606D01*
X157534614Y-104724793D01*
X157542345Y-104677678D01*
X157534614Y-104630564D01*
X157511702Y-104588765D01*
X157472479Y-104555899D01*
X156175549Y-103806977D01*
X156127813Y-103789346D01*
X156080002Y-103790271D01*
X156035077Y-103807081D01*
X155997863Y-103837459D01*
X155972981Y-103878338D01*
X155964450Y-103928757D01*
X153126689Y-103928757D01*
X152461187Y-103504287D01*
X152385375Y-103458371D01*
X152441146Y-103463568D01*
X152554390Y-103465965D01*
X153385744Y-103465965D01*
X153385744Y-103323450D01*
X152204000Y-103323450D01*
X152204000Y-103496080D01*
X152051909Y-103496080D01*
X152051909Y-103190117D01*
X157675678Y-103190117D01*
X157675678Y-116804019D01*
G37*
M02*
