M48
; DRILL file {KiCad 9.0.7} date 2026-03-08T21:18:41+0100
; FORMAT={-:-/ absolute / metric / decimal}
; #@! TF.CreationDate,2026-03-08T21:18:41+01:00
; #@! TF.GenerationSoftware,Kicad,Pcbnew,9.0.7
; #@! TF.FileFunction,Plated,1,2,PTH
FMAT,2
METRIC
; #@! TA.AperFunction,Plated,PTH,ViaDrill
T1C0.300
; #@! TA.AperFunction,Plated,PTH,ComponentDrill
T2C0.300
; #@! TA.AperFunction,Plated,PTH,ComponentDrill
T3C1.500
; #@! TA.AperFunction,Plated,PTH,ComponentDrill
T4C1.700
%
G90
G05
T1
X104.937Y-114.821
X105.0Y-105.0
X105.0Y-110.0
X107.5Y-102.5
X110.0Y-100.0
X110.0Y-105.0
X110.0Y-110.0
X110.0Y-115.0
X110.0Y-120.0
X114.0Y-100.0
X115.0Y-110.0
X115.0Y-115.0
X115.0Y-120.0
X117.5Y-100.0
X120.0Y-115.0
X120.0Y-120.0
X121.25Y-100.0
X123.25Y-106.5
X123.8Y-100.0
X124.5Y-105.0
X125.0Y-120.0
X125.5Y-113.75
X127.0Y-100.0
X127.0Y-106.5
X127.5Y-117.5
X129.02Y-117.7
X130.0Y-100.0
X130.0Y-120.0
X131.675Y-105.075
X135.0Y-100.0
X135.0Y-120.0
X137.3Y-106.05
X140.0Y-100.0
X140.0Y-105.0
X140.0Y-110.0
X140.0Y-115.0
X140.0Y-120.0
X142.0Y-110.9
X143.0Y-104.0
X143.0Y-116.0
X145.0Y-100.0
X145.0Y-107.5
X145.0Y-112.5
X145.0Y-120.0
X147.6Y-110.9
X148.5Y-110.0
X150.0Y-115.0
X150.0Y-120.0
X152.6Y-110.1
X153.0Y-104.0
X154.7Y-112.3
X155.0Y-102.5
X155.0Y-104.9
X155.0Y-117.5
X157.5Y-102.5
X157.5Y-115.0
X157.5Y-117.5
T2
X154.7Y-114.5
T3
X145.5Y-104.0
X145.5Y-116.0
T4
X142.96Y-101.46
X142.96Y-106.54
X142.96Y-113.46
X142.96Y-118.54
X148.04Y-101.46
X148.04Y-106.54
X148.04Y-113.46
X148.04Y-118.54
M30
