G04 #@! TF.GenerationSoftware,KiCad,Pcbnew,9.0.7*
G04 #@! TF.CreationDate,2026-03-08T21:17:59+01:00*
G04 #@! TF.ProjectId,LightspeedLaserDriver,4c696768-7473-4706-9565-644c61736572,rev?*
G04 #@! TF.SameCoordinates,Original*
G04 #@! TF.FileFunction,Soldermask,Top*
G04 #@! TF.FilePolarity,Negative*
%FSLAX46Y46*%
G04 Gerber Fmt 4.6, Leading zero omitted, Abs format (unit mm)*
G04 Created by KiCad (PCBNEW 9.0.7) date 2026-03-08 21:17:59*
%MOMM*%
%LPD*%
G01*
G04 APERTURE LIST*
G04 Aperture macros list*
%AMRoundRect*
0 Rectangle with rounded corners*
0 $1 Rounding radius*
0 $2 $3 $4 $5 $6 $7 $8 $9 X,Y pos of 4 corners*
0 Add a 4 corners polygon primitive as box body*
4,1,4,$2,$3,$4,$5,$6,$7,$8,$9,$2,$3,0*
0 Add four circle primitives for the rounded corners*
1,1,$1+$1,$2,$3*
1,1,$1+$1,$4,$5*
1,1,$1+$1,$6,$7*
1,1,$1+$1,$8,$9*
0 Add four rect primitives between the rounded corners*
20,1,$1+$1,$2,$3,$4,$5,0*
20,1,$1+$1,$4,$5,$6,$7,0*
20,1,$1+$1,$6,$7,$8,$9,0*
20,1,$1+$1,$8,$9,$2,$3,0*%
G04 Aperture macros list end*
%ADD10RoundRect,0.250000X1.775000X-0.350000X1.775000X0.350000X-1.775000X0.350000X-1.775000X-0.350000X0*%
%ADD11RoundRect,0.250000X-0.750000X0.750000X-0.750000X-0.750000X0.750000X-0.750000X0.750000X0.750000X0*%
%ADD12C,1.600000*%
%ADD13C,1.800000*%
%ADD14R,1.400000X2.400000*%
%ADD15RoundRect,0.200000X0.275000X-0.200000X0.275000X0.200000X-0.275000X0.200000X-0.275000X-0.200000X0*%
%ADD16RoundRect,0.250000X0.262500X0.450000X-0.262500X0.450000X-0.262500X-0.450000X0.262500X-0.450000X0*%
%ADD17RoundRect,0.112500X0.187500X0.112500X-0.187500X0.112500X-0.187500X-0.112500X0.187500X-0.112500X0*%
%ADD18RoundRect,0.250000X0.650000X-0.325000X0.650000X0.325000X-0.650000X0.325000X-0.650000X-0.325000X0*%
%ADD19RoundRect,0.250000X-0.650000X0.325000X-0.650000X-0.325000X0.650000X-0.325000X0.650000X0.325000X0*%
%ADD20C,3.200000*%
%ADD21RoundRect,0.218750X-0.218750X-0.256250X0.218750X-0.256250X0.218750X0.256250X-0.218750X0.256250X0*%
%ADD22RoundRect,0.200000X0.200000X0.275000X-0.200000X0.275000X-0.200000X-0.275000X0.200000X-0.275000X0*%
%ADD23RoundRect,0.250000X-0.750000X0.400000X-0.750000X-0.400000X0.750000X-0.400000X0.750000X0.400000X0*%
%ADD24RoundRect,0.071250X-0.166250X-0.528750X0.166250X-0.528750X0.166250X0.528750X-0.166250X0.528750X0*%
%ADD25RoundRect,0.060000X-0.177500X-0.140000X0.177500X-0.140000X0.177500X0.140000X-0.177500X0.140000X0*%
%ADD26RoundRect,0.250000X-0.450000X0.262500X-0.450000X-0.262500X0.450000X-0.262500X0.450000X0.262500X0*%
%ADD27RoundRect,0.275000X0.725000X0.275000X-0.725000X0.275000X-0.725000X-0.275000X0.725000X-0.275000X0*%
%ADD28RoundRect,0.200000X0.200000X0.300000X-0.200000X0.300000X-0.200000X-0.300000X0.200000X-0.300000X0*%
%ADD29RoundRect,0.200000X-0.200000X-0.275000X0.200000X-0.275000X0.200000X0.275000X-0.200000X0.275000X0*%
%ADD30RoundRect,0.225000X0.225000X0.250000X-0.225000X0.250000X-0.225000X-0.250000X0.225000X-0.250000X0*%
%ADD31RoundRect,0.275000X-0.275000X0.725000X-0.275000X-0.725000X0.275000X-0.725000X0.275000X0.725000X0*%
%ADD32RoundRect,0.200000X-0.300000X0.200000X-0.300000X-0.200000X0.300000X-0.200000X0.300000X0.200000X0*%
%ADD33RoundRect,0.275000X-0.725000X-0.275000X0.725000X-0.275000X0.725000X0.275000X-0.725000X0.275000X0*%
%ADD34RoundRect,0.200000X-0.200000X-0.300000X0.200000X-0.300000X0.200000X0.300000X-0.200000X0.300000X0*%
%ADD35RoundRect,0.225000X-0.225000X-0.250000X0.225000X-0.250000X0.225000X0.250000X-0.225000X0.250000X0*%
%ADD36RoundRect,0.250000X-0.475000X0.250000X-0.475000X-0.250000X0.475000X-0.250000X0.475000X0.250000X0*%
%ADD37RoundRect,0.200000X-0.275000X0.200000X-0.275000X-0.200000X0.275000X-0.200000X0.275000X0.200000X0*%
%ADD38C,0.600000*%
%ADD39RoundRect,0.150000X-0.587500X-0.150000X0.587500X-0.150000X0.587500X0.150000X-0.587500X0.150000X0*%
%ADD40RoundRect,0.225000X0.250000X-0.225000X0.250000X0.225000X-0.250000X0.225000X-0.250000X-0.225000X0*%
%ADD41C,2.050000*%
%ADD42C,2.250000*%
%ADD43RoundRect,0.076250X-0.368250X-0.076250X0.368250X-0.076250X0.368250X0.076250X-0.368250X0.076250X0*%
%ADD44R,1.651000X2.845000*%
%ADD45RoundRect,0.162500X0.162500X-0.447500X0.162500X0.447500X-0.162500X0.447500X-0.162500X-0.447500X0*%
%ADD46R,1.000000X1.600000*%
%ADD47RoundRect,0.225000X0.225000X0.375000X-0.225000X0.375000X-0.225000X-0.375000X0.225000X-0.375000X0*%
%ADD48R,0.760000X1.400000*%
G04 APERTURE END LIST*
D10*
X158000000Y-111025000D03*
X158000000Y-108975000D03*
D11*
X113800000Y-118000000D03*
X107650000Y-118000000D03*
X107650000Y-107000000D03*
X113800000Y-107000000D03*
D12*
X107650000Y-112500000D03*
D13*
X112150000Y-112500000D03*
D14*
X125300000Y-109500000D03*
X128900000Y-109500000D03*
D15*
X150250000Y-117825000D03*
X150250000Y-116175000D03*
D16*
X134812500Y-112000000D03*
X132987500Y-112000000D03*
D17*
X151250000Y-110000000D03*
X149150000Y-110000000D03*
D18*
X130950000Y-111975000D03*
X130950000Y-109025000D03*
D19*
X123150000Y-108025000D03*
X123150000Y-110975000D03*
D20*
X156500000Y-97500000D03*
D21*
X111212500Y-102250000D03*
X112787500Y-102250000D03*
D22*
X126825000Y-105000000D03*
X125175000Y-105000000D03*
D23*
X133000000Y-103150000D03*
D11*
X129000000Y-102000000D03*
D23*
X133000000Y-100850000D03*
D24*
X156612500Y-112900000D03*
D25*
X156612500Y-114000000D03*
X155887500Y-114000000D03*
D24*
X155887500Y-112900000D03*
D26*
X146600000Y-109087500D03*
X146600000Y-110912500D03*
D27*
X134450000Y-108000000D03*
D28*
X132550000Y-108000000D03*
D29*
X118675000Y-112300000D03*
X120325000Y-112300000D03*
D30*
X126275000Y-118500000D03*
X124725000Y-118500000D03*
D31*
X157000000Y-105350000D03*
D32*
X157000000Y-107250000D03*
D17*
X120550000Y-110500000D03*
X118450000Y-110500000D03*
D20*
X106500000Y-122500000D03*
D29*
X135675000Y-103750000D03*
X137325000Y-103750000D03*
X130525000Y-117500000D03*
X132175000Y-117500000D03*
D21*
X115962500Y-105750000D03*
X117537500Y-105750000D03*
D27*
X132150000Y-114000000D03*
D28*
X130250000Y-114000000D03*
D20*
X106500000Y-97500000D03*
D29*
X121675000Y-117400000D03*
X123325000Y-117400000D03*
D33*
X133250000Y-110000000D03*
D34*
X135150000Y-110000000D03*
D22*
X151225000Y-108400000D03*
X149575000Y-108400000D03*
X123825000Y-105000000D03*
X122175000Y-105000000D03*
D35*
X121725000Y-115800000D03*
X123275000Y-115800000D03*
D26*
X155000000Y-104087500D03*
X155000000Y-105912500D03*
D30*
X132125000Y-116000000D03*
X130575000Y-116000000D03*
D36*
X144600000Y-109050000D03*
X144600000Y-110950000D03*
D20*
X156500000Y-122500000D03*
D29*
X131675000Y-105750000D03*
X133325000Y-105750000D03*
D22*
X116325000Y-103750000D03*
X114675000Y-103750000D03*
D37*
X142850000Y-109175000D03*
X142850000Y-110825000D03*
D22*
X130325000Y-105750000D03*
X128675000Y-105750000D03*
D38*
X154700000Y-113300000D03*
D39*
X119062500Y-106500000D03*
X119062500Y-108400000D03*
X120937500Y-107450000D03*
D40*
X154500000Y-109275000D03*
X154500000Y-107725000D03*
D22*
X112825000Y-103750000D03*
X111175000Y-103750000D03*
X151225000Y-111700000D03*
X149575000Y-111700000D03*
D18*
X134500000Y-116975000D03*
X134500000Y-114025000D03*
D21*
X135712500Y-102250000D03*
X137287500Y-102250000D03*
D41*
X145500000Y-116000000D03*
D42*
X148040000Y-113460000D03*
X142960000Y-113460000D03*
X148040000Y-118540000D03*
X142960000Y-118540000D03*
D43*
X124809500Y-113750000D03*
X124809500Y-114750000D03*
X124809500Y-115750000D03*
X124809500Y-116250000D03*
X124809500Y-116750000D03*
X124809500Y-117250000D03*
X129020500Y-117250000D03*
X129020500Y-116750000D03*
X129020500Y-116250000D03*
X129020500Y-115750000D03*
X129020500Y-114750000D03*
X129020500Y-113750000D03*
D44*
X126915000Y-115500000D03*
D45*
X152800000Y-113310000D03*
X154700000Y-113310000D03*
X153750000Y-110690000D03*
D46*
X125000000Y-102900000D03*
X122500000Y-102900000D03*
X120000000Y-102900000D03*
X125000000Y-100500000D03*
X122500000Y-100500000D03*
X120000000Y-100500000D03*
D22*
X151825000Y-100500000D03*
X150175000Y-100500000D03*
D18*
X137000000Y-112975000D03*
X137000000Y-110025000D03*
D41*
X145500000Y-104000000D03*
D42*
X148040000Y-101460000D03*
X142960000Y-101460000D03*
X148040000Y-106540000D03*
X142960000Y-106540000D03*
D40*
X153000000Y-109275000D03*
X153000000Y-107725000D03*
D22*
X137325000Y-105250000D03*
X135675000Y-105250000D03*
D47*
X139750000Y-108100000D03*
X136450000Y-108100000D03*
D48*
X150480000Y-105715000D03*
X153020000Y-105715000D03*
X153020000Y-102285000D03*
X151750000Y-102285000D03*
X150480000Y-102285000D03*
D21*
X114712500Y-102250000D03*
X116287500Y-102250000D03*
D30*
X125525000Y-112500000D03*
X123975000Y-112500000D03*
M02*
